{
.appVersion = "3151";
.formatVersion = 3;
customParameters = (
{
name = "Use Typo Metrics";
value = 1;
},
{
name = fsType;
value = (
);
}
);
date = "2022-07-30 15:19:26 +0000";
familyName = "Duyet Serif";
featurePrefixes = (
{
automatic = 1;
code = "languagesystem DFLT dflt;

languagesystem latn dflt;
languagesystem latn AZE;
languagesystem latn CRT;
languagesystem latn KAZ;
languagesystem latn TAT;
languagesystem latn TRK;
languagesystem latn ROM;
languagesystem latn MOL;
languagesystem latn CAT;
";
name = Languagesystems;
}
);
features = (
{
automatic = 1;
code = "feature locl;
feature ordn;
feature case;
feature ss01;
";
tag = aalt;
},
{
code = "lookup ccmp_Other_1 {
	@CombiningTopAccents = [acutecomb brevecomb caroncomb circumflexcomb commaturnedabovecomb dieresiscomb dotaccentcomb gravecomb hungarumlautcomb macroncomb ringcomb tildecomb];
	@CombiningNonTopAccents = [cedillacomb ogonekcomb];
	sub [i j]' @CombiningTopAccents by [idotless jdotless];
	sub [i j]' @CombiningNonTopAccents @CombiningTopAccents by [idotless jdotless];
	sub iogonek' @CombiningTopAccents by idotless ogonekcomb;
} ccmp_Other_1;
";
tag = ccmp;
},
{
automatic = 1;
code = "lookup locl_latn_0 {
	script latn;
	language AZE;
	sub i by idotaccent;
	language CRT;
	sub i by idotaccent;
	language KAZ;
	sub i by idotaccent;
	language TAT;
	sub i by idotaccent;
	language TRK;
	sub i by idotaccent;
} locl_latn_0;

lookup locl_latn_1 {
	script latn;
	language ROM;
	sub Scedilla by Scommaaccent;
	sub scedilla by scommaaccent;
	language MOL;
	sub Scedilla by Scommaaccent;
	sub scedilla by scommaaccent;
} locl_latn_1;

lookup locl_latn_2 {
	script latn;
	language CAT;
	sub l periodcentered' l by periodcentered.loclCAT;
	sub L periodcentered' L by periodcentered.loclCAT.case;
} locl_latn_2;
";
tag = locl;
},
{
automatic = 1;
code = "sub [zero one two three four five six seven eight nine] [A a]' by ordfeminine;
sub [zero one two three four five six seven eight nine] [O o]' by ordmasculine;
";
tag = ordn;

glyphs = (
{
glyphname = A;
kernLeft = A;
kernRight = A;
lastChange = "2022-09-01 21:01:03 +0000";
layers = (
{
anchors = (
{
name = bottom;
pos = (170,0);
},
{
name = ogonek;
pos = (354,0);
},
{
name = top;
pos = (336,720);
}
);
layerId = m002;
shapes = (
{
closed = 1;
nodes = (
(95,0,ls),
(108,0,o),
(115,5,o),
(115,11,cs),
(115,17,o),
(112,21,o),
(98,23,cs),
(82,25,ls),
(47,29,o),
(40,50,o),
(61,88,cs),
(136,222,ls),
(146,240,o),
(160,248,o),
(181,248,cs),
(304,248,ls),
(324,248,o),
(335,239,o),
(335,222,cs),
(337,67,ls),
(337,38,o),
(329,27,o),
(302,25,cs),
(279,23,ls),
(266,22,o),
(256,18,o),
(256,10,cs),
(256,4,o),
(261,0,o),
(271,0,cs),
(461,0,ls),
(474,0,o),
(481,4,o),
(481,11,cs),
(481,17,o),
(476,21,o),
(467,23,cs),
(452,26,ls),
(423,32,o),
(416,43,o),
(415,80,cs),
(402,714,ls),
(402,727,o),
(396,730,o),
(389,730,cs),
(383,730,o),
(374,727,o),
(367,714,cs),
(23,89,ls),
(2,52,o),
(-15,31,o),
(-42,26,cs),
(-58,23,ls),
(-67,21,o),
(-74,18,o),
(-74,10,cs),
(-74,4,o),
(-70,0,o),
(-62,0,cs)
);
},
{
closed = 1;
nodes = (
(174,278,o),
(169,285,o),
(175,295,cs),
(325,568,l),
(331,568,l),
(334,295,ls),
(334,285,o),
(325,278,o),
(314,278,cs),
(185,278,ls)
);
}
);
width = 526;
}
);
unicode = 65;
},
{
glyphname = AE;
kernRight = E;
lastChange = "2022-08-23 19:51:09 +0000";
layers = (
{
layerId = m002;
shapes = (
{
closed = 1;
nodes = (
(106,0,ls),
(121,0,o),
(128,4,o),
(128,11,cs),
(128,17,o),
(122,22,o),
(110,23,cs),
(93,25,ls),
(59,29,o),
(56,51,o),
(87,88,cs),
(306,348,ls),
(312,355,o),
(320,358,o),
(328,358,cs),
(492,358,ls),
(503,358,o),
(506,353,o),
(504,344,cs),
(430,66,ls),
(423,38,o),
(414,32,o),
(381,27,cs),
(353,23,ls),
(343,21,o),
(335,17,o),
(335,10,cs),
(335,4,o),
(339,0,o),
(351,0,cs),
(753,0,ls),
(770,0,o),
(783,8,o),
(788,23,cs),
(846,201,ls),
(850,212,o),
(844,218,o),
(835,218,cs),
(826,218,o),
(820,213,o),
(816,205,cs),
(788,146,ls),
(742,52,o),
(677,25,o),
(600,25,cs),
(526,25,o),
(506,45,o),
(519,93,cs),
(585,344,ls),
(588,353,o),
(596,358,o),
(606,358,cs),
(662,358,ls),
(697,358,o),
(711,347,o),
(710,301,cs),
(708,252,ls),
(708,244,o),
(715,238,o),
(724,239,cs),
(733,240,o),
(738,245,o),
(742,256,cs),
(802,481,ls),
(805,492,o),
(797,498,o),
(789,498,cs),
(780,498,o),
(775,493,o),
(770,485,cs),
(745,435,ls),
(729,402,o),
(706,388,o),
(672,388,cs),
(614,388,ls),
(604,388,o),
(599,393,o),
(601,402,cs),
(665,643,ls),
(675,681,o),
(698,695,o),
(760,695,cs),
(852,695,o),
(891,654,o),
(885,564,cs),
(883,527,ls),
(883,519,o),
(888,514,o),
(897,514,cs),
(906,514,o),
(913,520,o),
(915,531,cs),
(950,697,ls),
(953,712,o),
(944,720,o),
(927,720,cs),
(486,720,ls),
(475,720,o),
(467,716,o),
(467,708,cs),
(467,703,o),
(470,699,o),
(478,697,cs),
(504,692,ls),
(534,686,o),
(544,682,o),
(521,654,cs),
(47,89,ls),
(17,54,o),
(-14,31,o),
(-41,26,cs),
(-57,23,ls),
(-66,21,o),
(-74,18,o),
(-74,10,cs),
(-74,4,o),
(-70,0,o),
(-61,0,cs)
);
},
{
closed = 1;
nodes = (
(574,667,ls),
(583,678,o),
(592,676,o),
(589,664,cs),
(520,402,ls),
(518,393,o),
(511,388,o),
(500,388,cs),
(361,388,ls),
(350,388,o),
(346,396,o),
(354,405,cs)
);
}
);
width = 900;
}
);
metricLeft = A;
metricRight = E;
unicode = 198;
},
{
glyphname = B;
kernLeft = H;
lastChange = "2022-09-01 21:00:59 +0000";
layers = (
{
background = {
shapes = (
{
closed = 1;
nodes = (
(209,0,ls),
(377,0,o),
(511,106,o),
(511,239,cs),
(511,320,o),
(461,380,o),
(377,401,c),
(378,406,l),
(482,431,o),
(558,507,o),
(558,587,cs),
(558,665,o),
(486,720,o),
(384,720,cs),
(164,720,ls),
(152,720,o),
(144,716,o),
(144,708,cs),
(144,702,o),
(148,699,o),
(159,697,cs),
(182,693,ls),
(212,688,o),
(217,680,o),
(210,654,cs),
(54,66,ls),
(46,38,o),
(38,32,o),
(5,27,cs),
(-16,24,ls),
(-29,22,o),
(-36,17,o),
(-36,10,cs),
(-36,3,o),
(-31,0,o),
(-22,0,cs)
);
},
{
closed = 1;
nodes = (
(153,25,o),
(130,47,o),
(141,94,cs),
(205,333,ls),
(214,370,o),
(240,386,o),
(289,386,cs),
(376,386,o),
(427,334,o),
(427,244,cs),
(427,119,o),
(335,25,o),
(213,25,cs)
);
},
{
closed = 1;
nodes = (
(244,411,o),
(230,426,o),
(240,466,cs),
(290,655,ls),
(297,682,o),
(320,695,o),
(360,695,cs),
(431,695,o),
(475,653,o),
(475,583,cs),
(475,488,o),
(391,411,o),
(290,411,cs)
);
}
);
};
layerId = m002;
shapes = (
{
closed = 1;
nodes = (
(209,0,ls),
(377,0,o),
(511,106,o),
(511,239,cs),
(511,314,o),
(468,373,o),
(389,398,cs),
(381,400,o),
(381,406,o),
(389,408,cs),
(491,439,o),
(558,512,o),
(558,587,cs),
(558,665,o),
(486,720,o),
(384,720,cs),
(164,720,ls),
(152,720,o),
(144,716,o),
(144,708,cs),
(144,702,o),
(148,699,o),
(159,697,cs),
(182,693,ls),
(212,688,o),
(217,680,o),
(210,654,cs),
(54,66,ls),
(46,38,o),
(38,31,o),
(5,27,cs),
(-16,24,ls),
(-29,22,o),
(-36,17,o),
(-36,10,cs),
(-36,3,o),
(-31,0,o),
(-22,0,cs)
);
},
{
closed = 1;
nodes = (
(153,25,o),
(129,47,o),
(141,94,cs),
(205,333,ls),
(214,370,o),
(240,386,o),
(289,386,cs),
(376,386,o),
(427,334,o),
(427,244,cs),
(427,119,o),
(335,25,o),
(213,25,cs)
);
},
{
closed = 1;
nodes = (
(244,411,o),
(230,426,o),
(240,466,cs),
(290,655,ls),
(297,682,o),
(320,695,o),
(360,695,cs),
(431,695,o),
(475,653,o),
(475,583,cs),
(475,488,o),
(391,411,o),
(290,411,cs)
);
}
);
width = 551;
}
);
unicode = 66;
},
{
glyphname = C;
kernLeft = O;
kernRight = C;
lastChange = "2022-09-01 20:50:49 +0000";
layers = (
{
anchors = (
{
name = bottom;
pos = (229,0);
},
{
name = top;
pos = (375,720);
}
);
background = {
shapes = (
{
closed = 1;
nodes = (
(336,-9,o),
(386,0,o),
(413,8,cs),
(424,11,o),
(428,16,o),
(431,26,cs),
(482,182,ls),
(485,193,o),
(482,201,o),
(470,201,cs),
(462,201,o),
(457,196,o),
(453,189,cs),
(430,142,ls),
(385,51,o),
(338,17,o),
(281,17,cs),
(183,17,o),
(144,114,o),
(144,234,cs),
(144,406,o),
(275,704,o),
(435,704,cs),
(494,704,o),
(531,669,o),
(528,549,cs),
(527,510,ls),
(527,500,o),
(532,495,o),
(542,494,cs),
(550,494,o),
(557,499,o),
(559,510,cs),
(592,661,ls),
(595,672,o),
(593,677,o),
(585,683,cs),
(540,715,o),
(493,730,o),
(439,730,cs),
(213,730,o),
(63,454,o),
(63,262,cs),
(63,93,o),
(131,-9,o),
(294,-9,cs)
);
}
);
};
layerId = m002;
shapes = (
{
closed = 1;
nodes = (
(336,-9,o),
(392,0,o),
(419,8,cs),
(430,11,o),
(434,16,o),
(437,26,cs),
(483,182,ls),
(486,193,o),
(482,201,o),
(470,201,cs),
(462,201,o),
(457,196,o),
(453,189,cs),
(428,142,ls),
(379,53,o),
(338,20,o),
(281,20,cs),
(183,20,o),
(144,104,o),
(144,224,cs),
(144,406,o),
(278,702,o),
(427,702,cs),
(490,702,o),
(523,659,o),
(527,549,cs),
(528,510,ls),
(528,500,o),
(534,494,o),
(542,494,cs),
(551,494,o),
(557,499,o),
(559,510,cs),
(593,661,ls),
(596,672,o),
(593,677,o),
(585,683,cs),
(540,715,o),
(493,730,o),
(439,730,cs),
(213,730,o),
(63,454,o),
(63,252,cs),
(63,83,o),
(131,-9,o),
(294,-9,cs)
);
}
);
width = 546;
}
);
unicode = 67;
},
{
glyphname = D;
kernLeft = H;
kernRight = O;
lastChange = "2022-09-01 20:50:56 +0000";
layers = (
{
anchors = (
{
name = bottom;
pos = (209,0);
},
{
name = center;
pos = (292,360);
},
{
name = top;
pos = (365,720);
}
);
background = {
shapes = (
{
closed = 1;
nodes = (
(194,0,ls),
(379,0,o),
(535,139,o),
(592,357,cs),
(650,573,o),
(576,720,o),
(397,720,cs),
(164,720,ls),
(153,720,o),
(146,716,o),
(145,709,cs),
(143,702,o),
(146,699,o),
(156,697,cs),
(182,693,ls),
(213,688,o),
(217,682,o),
(210,654,cs),
(54,66,ls),
(48,42,o),
(33,31,o),
(5,27,cs),
(-20,23,ls),
(-29,21,o),
(-34,18,o),
(-35,11,cs),
(-37,4,o),
(-33,0,o),
(-23,0,cs)
);
},
{
closed = 1;
nodes = (
(148,26,o),
(131,46,o),
(145,99,cs),
(283,621,ls),
(296,669,o),
(334,694,o),
(390,694,cs),
(523,694,o),
(560,570,o),
(503,357,cs),
(446,142,o),
(342,26,o),
(206,26,cs)
);
}
);
};
layerId = m002;
shapes = (
{
closed = 1;
nodes = (
(209,0,ls),
(416,0,o),
(611,222,o),
(611,468,cs),
(611,634,o),
(527,720,o),
(396,720,cs),
(164,720,ls),
(152,720,o),
(144,716,o),
(144,708,cs),
(144,703,o),
(147,699,o),
(159,697,cs),
(182,693,ls),
(213,688,o),
(217,682,o),
(210,654,cs),
(54,66,ls),
(47,38,o),
(38,31,o),
(5,27,cs),
(-16,24,ls),
(-30,22,o),
(-36,17,o),
(-36,10,cs),
(-36,4,o),
(-32,0,o),
(-22,0,cs)
);
},
{
closed = 1;
nodes = (
(158,26,o),
(131,46,o),
(145,99,cs),
(283,621,ls),
(296,669,o),
(334,694,o),
(389,694,cs),
(478,694,o),
(532,640,o),
(532,534,cs),
(532,274,o),
(391,26,o),
(215,26,cs)
);
}
);
width = 616;
}
);
unicode = 68;
},
{
glyphname = Eth;
kernLeft = H;
kernRight = O;
lastChange = "2022-08-23 19:52:33 +0000";
layers = (
{
layerId = m002;
shapes = (
{
ref = D;
},
{
closed = 1;
nodes = (
(355,358,ls),
(362,358,o),
(368,362,o),
(369,368,cs),
(371,376,ls),
(373,382,o),
(369,386,o),
(362,386,cs),
(69,386,ls),
(62,386,o),
(56,382,o),
(55,376,cs),
(53,368,ls),
(52,362,o),
(55,358,o),
(62,358,cs)
);
}
);
width = 616;
}
);
unicode = 208;
},
{
glyphname = E;
kernLeft = H;
kernRight = E;
lastChange = "2022-09-01 20:51:22 +0000";
layers = (
{
anchors = (
{
name = bottom;
pos = (168,0);
},
{
name = ogonek;
pos = (326,0);
},
{
name = top;
pos = (334,720);
},
{
name = topleft;
pos = (127,720);
}
);
background = {
shapes = (
{
closed = 1;
nodes = (
(375,0,ls),
(392,0,o),
(405,8,o),
(409,23,cs),
(468,201,ls),
(471,212,o),
(466,218,o),
(457,218,cs),
(447,218,o),
(442,213,o),
(438,205,cs),
(401,128,ls),
(361,44,o),
(302,25,o),
(222,25,cs),
(147,25,o),
(128,45,o),
(140,93,cs),
(207,344,ls),
(209,353,o),
(217,358,o),
(228,358,cs),
(288,358,ls),
(322,358,o),
(338,347,o),
(335,301,cs),
(331,252,ls),
(331,244,o),
(336,239,o),
(345,239,cs),
(354,239,o),
(360,245,o),
(363,256,cs),
(423,481,ls),
(427,492,o),
(421,498,o),
(412,498,cs),
(402,498,o),
(397,493,o),
(393,485,cs),
(370,435,ls),
(355,402,o),
(331,388,o),
(297,388,cs),
(236,388,ls),
(225,388,o),
(221,393,o),
(223,402,cs),
(286,643,ls),
(297,681,o),
(320,695,o),
(382,695,cs),
(462,695,o),
(520,674,o),
(511,582,cs),
(505,527,ls),
(504,519,o),
(509,514,o),
(519,514,cs),
(528,514,o),
(535,520,o),
(537,531,cs),
(572,697,ls),
(575,712,o),
(566,720,o),
(549,720,cs),
(164,720,ls),
(152,720,o),
(144,716,o),
(144,708,cs),
(144,703,o),
(147,699,o),
(159,697,cs),
(182,693,ls),
(213,688,o),
(217,682,o),
(210,654,cs),
(54,66,ls),
(47,38,o),
(38,31,o),
(5,27,cs),
(-16,24,ls),
(-30,22,o),
(-36,17,o),
(-36,10,cs),
(-36,4,o),
(-32,0,o),
(-22,0,cs)
);
}
);
};
layerId = m002;
shapes = (
{
closed = 1;
nodes = (
(375,0,ls),
(392,0,o),
(405,8,o),
(409,23,cs),
(468,201,ls),
(471,212,o),
(466,218,o),
(457,218,cs),
(447,218,o),
(442,213,o),
(438,205,cs),
(411,149,ls),
(360,46,o),
(291,25,o),
(222,25,cs),
(147,25,o),
(128,45,o),
(140,93,cs),
(207,344,ls),
(209,353,o),
(217,358,o),
(228,358,cs),
(285,358,ls),
(320,358,o),
(334,347,o),
(332,301,cs),
(331,252,ls),
(331,244,o),
(336,239,o),
(345,239,cs),
(354,239,o),
(361,245,o),
(365,256,cs),
(424,481,ls),
(428,492,o),
(421,498,o),
(412,498,cs),
(402,498,o),
(397,493,o),
(393,485,cs),
(368,435,ls),
(352,402,o),
(329,388,o),
(294,388,cs),
(236,388,ls),
(225,388,o),
(221,393,o),
(223,402,cs),
(286,643,ls),
(297,681,o),
(320,695,o),
(382,695,cs),
(462,695,o),
(519,664,o),
(508,562,cs),
(505,527,ls),
(504,519,o),
(509,514,o),
(519,514,cs),
(528,514,o),
(535,520,o),
(537,531,cs),
(573,697,ls),
(576,712,o),
(566,720,o),
(549,720,cs),
(164,720,ls),
(152,720,o),
(144,716,o),
(144,708,cs),
(144,703,o),
(147,699,o),
(159,697,cs),
(182,693,ls),
(213,688,o),
(217,682,o),
(210,654,cs),
(54,66,ls),
(47,38,o),
(38,31,o),
(5,27,cs),
(-16,24,ls),
(-30,22,o),
(-36,17,o),
(-36,10,cs),
(-36,4,o),
(-32,0,o),
(-22,0,cs)
);
}
);
width = 522;
}
);
unicode = 69;
},
{
glyphname = F;
kernLeft = H;
lastChange = "2022-09-01 20:52:39 +0000";
layers = (
{
background = {
shapes = (
{
closed = 1;
nodes = (
(217,0,ls),
(230,0,o),
(237,4,o),
(237,12,cs),
(237,18,o),
(233,22,o),
(223,23,cs),
(162,30,ls),
(131,34,o),
(125,43,o),
(133,71,cs),
(207,344,ls),
(209,353,o),
(217,358,o),
(228,358,cs),
(273,358,ls),
(307,358,o),
(323,347,o),
(320,301,cs),
(316,253,ls),
(316,245,o),
(321,240,o),
(330,240,cs),
(339,240,o),
(345,246,o),
(348,257,cs),
(408,480,ls),
(412,491,o),
(404,497,o),
(396,497,cs),
(386,497,o),
(382,492,o),
(378,484,cs),
(355,435,ls),
(340,402,o),
(316,388,o),
(282,388,cs),
(236,388,ls),
(225,388,o),
(221,393,o),
(223,402,cs),
(285,638,ls),
(296,676,o),
(322,695,o),
(390,695,cs),
(454,695,o),
(506,674,o),
(497,582,cs),
(491,527,ls),
(490,519,o),
(496,514,o),
(505,514,cs),
(514,514,o),
(521,520,o),
(523,531,cs),
(558,697,ls),
(561,712,o),
(552,720,o),
(535,720,cs),
(164,720,ls),
(152,720,o),
(144,716,o),
(144,708,cs),
(144,703,o),
(147,699,o),
(159,697,cs),
(182,693,ls),
(213,688,o),
(217,682,o),
(210,654,cs),
(54,66,ls),
(47,38,o),
(38,31,o),
(5,27,cs),
(-16,24,ls),
(-30,22,o),
(-36,17,o),
(-36,10,cs),
(-36,4,o),
(-32,0,o),
(-22,0,cs)
);
}
);
};
layerId = m002;
shapes = (
{
closed = 1;
nodes = (
(217,0,ls),
(230,0,o),
(237,4,o),
(237,12,cs),
(237,18,o),
(233,22,o),
(223,23,cs),
(162,30,ls),
(131,34,o),
(125,43,o),
(133,71,cs),
(207,344,ls),
(209,353,o),
(217,358,o),
(228,358,cs),
(269,358,ls),
(304,358,o),
(316,347,o),
(316,301,cs),
(316,253,ls),
(316,245,o),
(321,240,o),
(330,240,cs),
(339,240,o),
(345,246,o),
(348,257,cs),
(408,480,ls),
(412,491,o),
(404,497,o),
(396,497,cs),
(386,497,o),
(383,492,o),
(378,484,cs),
(352,435,ls),
(335,402,o),
(313,388,o),
(278,388,cs),
(236,388,ls),
(225,388,o),
(221,393,o),
(223,402,cs),
(285,638,ls),
(296,676,o),
(322,695,o),
(389,695,cs),
(453,695,o),
(501,654,o),
(493,562,cs),
(491,527,ls),
(490,519,o),
(496,514,o),
(505,514,cs),
(514,514,o),
(521,520,o),
(523,531,cs),
(558,697,ls),
(561,712,o),
(552,720,o),
(535,720,cs),
(164,720,ls),
(152,720,o),
(144,716,o),
(144,708,cs),
(144,703,o),
(147,699,o),
(159,697,cs),
(182,693,ls),
(213,688,o),
(217,682,o),
(210,654,cs),
(54,66,ls),
(47,38,o),
(38,31,o),
(5,27,cs),
(-16,24,ls),
(-30,22,o),
(-36,17,o),
(-36,10,cs),
(-36,4,o),
(-32,0,o),
(-22,0,cs)
);
}
);
width = 473;
}
);
unicode = 70;
},
{
glyphname = G;
kernLeft = O;
kernRight = G;
lastChange = "2022-09-01 20:53:01 +0000";
layers = (
{
anchors = (
{
name = bottom;
pos = (228,0);
},
{
name = top;
pos = (394,720);
}
);
background = {
shapes = (
{
closed = 1;
nodes = (
(328,-9,o),
(371,8,o),
(409,28,cs),
(437,43,o),
(448,55,o),
(452,70,cs),
(519,321,ls),
(526,349,o),
(530,359,o),
(565,363,cs),
(582,365,ls),
(592,366,o),
(599,370,o),
(599,378,cs),
(599,385,o),
(593,388,o),
(584,388,cs),
(376,388,ls),
(363,388,o),
(355,384,o),
(355,376,cs),
(355,371,o),
(360,366,o),
(370,365,cs),
(411,361,ls),
(445,358,o),
(446,349,o),
(439,322,cs),
(382,103,ls),
(365,38,o),
(324,17,o),
(275,17,cs),
(195,17,o),
(140,89,o),
(140,235,cs),
(140,367,o),
(241,704,o),
(452,704,cs),
(512,704,o),
(549,671,o),
(545,565,cs),
(544,526,ls),
(544,518,o),
(549,513,o),
(558,513,cs),
(568,513,o),
(574,520,o),
(576,530,cs),
(611,682,ls),
(613,694,o),
(612,699,o),
(604,703,cs),
(572,719,o),
(526,730,o),
(458,730,cs),
(189,730,o),
(60,430,o),
(60,253,cs),
(60,84,o),
(139,-9,o),
(271,-9,cs)
);
}
);
};
layerId = m002;
shapes = (
{
closed = 1;
nodes = (
(328,-9,o),
(371,8,o),
(409,28,cs),
(437,43,o),
(448,55,o),
(452,70,cs),
(519,321,ls),
(526,349,o),
(530,359,o),
(565,363,cs),
(582,365,ls),
(592,366,o),
(599,370,o),
(599,378,cs),
(599,385,o),
(593,388,o),
(584,388,cs),
(376,388,ls),
(363,388,o),
(355,384,o),
(355,376,cs),
(355,371,o),
(360,366,o),
(370,365,cs),
(411,361,ls),
(445,358,o),
(446,349,o),
(439,322,cs),
(382,103,ls),
(365,38,o),
(324,17,o),
(275,17,cs),
(195,17,o),
(140,89,o),
(140,235,cs),
(140,367,o),
(241,704,o),
(452,704,cs),
(512,704,o),
(538,669,o),
(543,555,cs),
(544,526,ls),
(544,518,o),
(549,513,o),
(558,513,cs),
(568,513,o),
(574,520,o),
(576,530,cs),
(611,682,ls),
(613,694,o),
(612,699,o),
(604,703,cs),
(572,719,o),
(526,730,o),
(458,730,cs),
(189,730,o),
(60,430,o),
(60,253,cs),
(60,84,o),
(139,-9,o),
(271,-9,cs)
);
}
);
width = 591;
}
);
unicode = 71;
},
{
glyphname = H;
kernLeft = H;
kernRight = H;
lastChange = "2022-09-01 20:53:06 +0000";
layers = (
{
background = {
shapes = (
{
closed = 1;
nodes = (
(182,0,ls),
(193,0,o),
(200,4,o),
(202,12,cs),
(204,18,o),
(200,22,o),
(192,23,cs),
(162,27,ls),
(131,31,o),
(126,39,o),
(133,67,cs),
(207,344,ls),
(209,353,o),
(217,358,o),
(228,358,cs),
(455,358,ls),
(466,358,o),
(469,353,o),
(467,344,cs),
(393,67,ls),
(386,39,o),
(377,31,o),
(344,27,cs),
(312,23,ls),
(304,22,o),
(298,18,o),
(297,12,cs),
(294,4,o),
(299,0,o),
(310,0,cs),
(519,0,ls),
(530,0,o),
(537,4,o),
(539,11,cs),
(540,17,o),
(537,21,o),
(527,23,cs),
(501,27,ls),
(470,32,o),
(466,38,o),
(473,66,cs),
(629,654,ls),
(636,682,o),
(645,688,o),
(678,693,cs),
(706,697,ls),
(716,699,o),
(722,703,o),
(724,709,cs),
(726,716,o),
(721,720,o),
(710,720,cs),
(501,720,ls),
(490,720,o),
(483,716,o),
(481,708,cs),
(480,702,o),
(483,698,o),
(491,697,cs),
(521,693,ls),
(552,689,o),
(557,681,o),
(550,653,cs),
(483,402,ls),
(481,393,o),
(474,388,o),
(463,388,cs),
(236,388,ls),
(225,388,o),
(221,393,o),
(223,402,cs),
(290,653,ls),
(297,681,o),
(306,689,o),
(339,693,cs),
(371,697,ls),
(379,698,o),
(385,702,o),
(386,708,cs),
(389,716,o),
(384,720,o),
(373,720,cs),
(164,720,ls),
(153,720,o),
(146,716,o),
(145,709,cs),
(143,703,o),
(146,699,o),
(156,697,cs),
(182,693,ls),
(213,688,o),
(217,682,o),
(210,654,cs),
(54,66,ls),
(47,38,o),
(38,32,o),
(5,27,cs),
(-20,23,ls),
(-29,21,o),
(-34,17,o),
(-35,11,cs),
(-37,4,o),
(-33,0,o),
(-23,0,cs)
);
}
);
};
layerId = m002;
shapes = (
{
closed = 1;
nodes = (
(182,0,ls),
(195,0,o),
(204,4,o),
(204,12,cs),
(204,18,o),
(199,23,o),
(187,24,cs),
(162,27,ls),
(131,31,o),
(126,39,o),
(133,67,cs),
(207,344,ls),
(209,353,o),
(217,358,o),
(228,358,cs),
(455,358,ls),
(466,358,o),
(469,353,o),
(467,344,cs),
(393,67,ls),
(386,39,o),
(377,31,o),
(344,27,cs),
(316,24,ls),
(305,23,o),
(296,19,o),
(296,11,cs),
(296,5,o),
(300,0,o),
(312,0,cs),
(519,0,ls),
(531,0,o),
(539,4,o),
(539,12,cs),
(539,17,o),
(536,21,o),
(524,23,cs),
(501,27,ls),
(470,32,o),
(466,38,o),
(473,66,cs),
(629,654,ls),
(636,682,o),
(645,689,o),
(678,693,cs),
(702,696,ls),
(718,698,o),
(724,703,o),
(724,710,cs),
(724,716,o),
(720,720,o),
(708,720,cs),
(501,720,ls),
(488,720,o),
(480,716,o),
(480,708,cs),
(480,702,o),
(484,697,o),
(496,696,cs),
(521,693,ls),
(552,689,o),
(557,681,o),
(550,653,cs),
(483,402,ls),
(481,393,o),
(474,388,o),
(463,388,cs),
(236,388,ls),
(225,388,o),
(221,393,o),
(223,402,cs),
(290,653,ls),
(297,681,o),
(306,689,o),
(339,693,cs),
(367,696,ls),
(378,697,o),
(388,701,o),
(388,709,cs),
(388,715,o),
(383,720,o),
(371,720,cs),
(164,720,ls),
(152,720,o),
(144,716,o),
(144,708,cs),
(144,703,o),
(147,699,o),
(159,697,cs),
(182,693,ls),
(213,688,o),
(217,682,o),
(210,654,cs),
(54,66,ls),
(47,38,o),
(38,31,o),
(5,27,cs),
(-16,24,ls),
(-30,22,o),
(-36,17,o),
(-36,10,cs),
(-36,4,o),
(-32,0,o),
(-22,0,cs)
);
}
);
width = 627;
}
);
unicode = 72;
},
{
glyphname = Hbar;
kernLeft = H;
kernRight = H;
lastChange = "2022-08-23 19:52:53 +0000";
layers = (
{
layerId = m002;
shapes = (
{
ref = H;
},
{
closed = 1;
nodes = (
(666,532,ls),
(673,532,o),
(678,536,o),
(680,542,cs),
(682,550,ls),
(683,556,o),
(680,560,o),
(673,560,cs),
(115,560,ls),
(108,560,o),
(102,556,o),
(101,550,cs),
(99,542,ls),
(98,536,o),
(101,532,o),
(108,532,cs)
);
}
);
width = 627;
}
);
unicode = 294;
},
{
glyphname = I;
kernLeft = H;
kernRight = H;
lastChange = "2022-08-25 19:54:44 +0000";
layers = (
{
anchors = (
{
name = bottom;
pos = (66,0);
},
{
name = ogonek;
pos = (100,0);
},
{
name = top;
pos = (232,720);
},
{
name = topleft;
pos = (127,720);
}
);
background = {
shapes = (
{
closed = 1;
nodes = (
(182,0,ls),
(195,0,o),
(204,4,o),
(204,12,cs),
(204,18,o),
(199,23,o),
(187,24,cs),
(162,27,ls),
(131,30,o),
(126,39,o),
(133,67,cs),
(290,653,ls),
(297,681,o),
(306,689,o),
(337,693,cs),
(365,696,ls),
(376,697,o),
(385,701,o),
(385,709,cs),
(385,715,o),
(381,720,o),
(369,720,cs),
(164,720,ls),
(152,720,o),
(144,716,o),
(144,708,cs),
(144,703,o),
(147,699,o),
(159,697,cs),
(182,693,ls),
(213,688,o),
(217,682,o),
(210,654,cs),
(54,66,ls),
(47,38,o),
(38,31,o),
(5,27,cs),
(-16,24,ls),
(-30,22,o),
(-36,17,o),
(-36,10,cs),
(-36,4,o),
(-32,0,o),
(-22,0,cs)
);
}
);
};
layerId = m002;
shapes = (
{
closed = 1;
nodes = (
(179,0,ls),
(192,0,o),
(200,4,o),
(200,12,cs),
(200,17,o),
(197,21,o),
(185,23,cs),
(162,27,ls),
(131,32,o),
(126,38,o),
(133,66,cs),
(290,654,ls),
(297,682,o),
(306,689,o),
(339,693,cs),
(362,696,ls),
(378,698,o),
(385,703,o),
(385,710,cs),
(385,716,o),
(381,720,o),
(369,720,cs),
(164,720,ls),
(152,720,o),
(144,716,o),
(144,708,cs),
(144,703,o),
(147,699,o),
(159,697,cs),
(182,693,ls),
(213,688,o),
(217,682,o),
(210,654,cs),
(54,66,ls),
(47,38,o),
(38,31,o),
(5,27,cs),
(-16,24,ls),
(-30,22,o),
(-36,17,o),
(-36,10,cs),
(-36,4,o),
(-32,0,o),
(-22,0,cs)
);
}
);
width = 288;
}
);
unicode = 73;
},
{
glyphname = J;
kernRight = J;
lastChange = "2022-09-01 21:01:27 +0000";
layers = (
{
background = {
shapes = (
{
closed = 1;
nodes = (
(-4,-215,o),
(85,-116,o),
(128,44,cs),
(290,654,ls),
(297,682,o),
(306,689,o),
(339,693,cs),
(362,696,ls),
(378,698,o),
(385,703,o),
(385,710,cs),
(385,716,o),
(381,720,o),
(369,720,cs),
(164,720,ls),
(152,720,o),
(144,716,o),
(144,708,cs),
(144,703,o),
(147,699,o),
(159,697,cs),
(182,693,ls),
(213,688,o),
(217,682,o),
(210,654,cs),
(13,-91,ls),
(-1,-144,o),
(-23,-175,o),
(-48,-175,cs),
(-84,-175,o),
(-54,-109,o),
(-98,-109,cs),
(-122,-109,o),
(-144,-128,o),
(-150,-155,cs),
(-158,-191,o),
(-136,-215,o),
(-94,-215,cs)
);
}
);
};
layerId = m002;
shapes = (
{
closed = 1;
nodes = (
(-2,-215,o),
(85,-116,o),
(128,44,cs),
(290,654,ls),
(297,682,o),
(306,689,o),
(339,693,cs),
(362,696,ls),
(378,698,o),
(385,703,o),
(385,710,cs),
(385,716,o),
(381,720,o),
(369,720,cs),
(164,720,ls),
(152,720,o),
(144,716,o),
(144,708,cs),
(144,703,o),
(147,699,o),
(159,697,cs),
(182,693,ls),
(213,688,o),
(217,682,o),
(210,654,cs),
(13,-91,ls),
(-1,-144,o),
(-23,-175,o),
(-48,-175,cs),
(-84,-175,o),
(-58,-109,o),
(-107,-109,cs),
(-135,-109,o),
(-152,-134,o),
(-152,-161,cs),
(-152,-193,o),
(-127,-215,o),
(-89,-215,cs)
);
}
);
width = 289;
}
);
unicode = 74;
},
{
glyphname = K;
kernLeft = H;
kernRight = K;
lastChange = "2022-09-01 20:53:20 +0000";
layers = (
{
anchors = (
{
name = bottom;
pos = (221,0);
},
{
name = top;
pos = (357,720);
}
);
background = {
shapes = (
{
closed = 1;
nodes = (
(182,0,ls),
(195,0,o),
(202,4,o),
(202,12,cs),
(202,18,o),
(199,22,o),
(190,23,cs),
(162,27,ls),
(131,31,o),
(126,39,o),
(133,67,cs),
(290,653,ls),
(297,681,o),
(306,690,o),
(339,693,cs),
(369,696,ls),
(379,697,o),
(388,702,o),
(388,709,cs),
(388,716,o),
(382,720,o),
(370,720,cs),
(164,720,ls),
(152,720,o),
(144,716,o),
(144,708,cs),
(144,703,o),
(147,699,o),
(159,697,cs),
(182,693,ls),
(213,688,o),
(217,682,o),
(210,654,cs),
(54,66,ls),
(47,38,o),
(38,31,o),
(5,27,cs),
(-16,24,ls),
(-30,22,o),
(-36,17,o),
(-36,10,cs),
(-36,4,o),
(-32,0,o),
(-22,0,cs)
);
},
{
closed = 1;
nodes = (
(526,623,ls),
(577,675,o),
(606,691,o),
(653,695,cs),
(676,697,ls),
(689,698,o),
(695,703,o),
(695,710,cs),
(695,716,o),
(689,720,o),
(678,720,cs),
(482,720,ls),
(469,720,o),
(463,716,o),
(463,709,cs),
(463,703,o),
(468,699,o),
(480,697,cs),
(501,693,ls),
(531,688,o),
(527,669,o),
(493,635,cs),
(217,359,l),
(206,359,l),
(187,286,l)
);
},
{
closed = 1;
nodes = (
(270,379,l),
(267,367,l),
(275,367,l),
(374,74,ls),
(384,45,o),
(371,28,o),
(343,25,cs),
(322,23,ls),
(310,22,o),
(304,17,o),
(304,10,cs),
(304,5,o),
(308,0,o),
(320,0,cs),
(512,0,ls),
(524,0,o),
(531,4,o),
(531,12,cs),
(531,18,o),
(527,21,o),
(518,23,cs),
(493,27,ls),
(476,30,o),
(467,38,o),
(460,59,cs),
(329,437,l)
);
}
);
};
layerId = m002;
shapes = (
{
closed = 1;
nodes = (
(182,0,ls),
(195,0,o),
(202,4,o),
(202,12,cs),
(202,18,o),
(199,22,o),
(190,23,cs),
(162,27,ls),
(131,31,o),
(126,39,o),
(133,67,cs),
(185,264,ls),
(191,284,o),
(199,299,o),
(215,314,cs),
(259,357,ls),
(267,365,o),
(277,364,o),
(281,353,cs),
(374,74,ls),
(383,45,o),
(371,28,o),
(343,25,cs),
(322,23,ls),
(310,22,o),
(304,17,o),
(304,10,cs),
(304,5,o),
(308,0,o),
(320,0,cs),
(512,0,ls),
(524,0,o),
(531,4,o),
(531,12,cs),
(531,18,o),
(527,21,o),
(518,23,cs),
(493,27,ls),
(476,30,o),
(467,38,o),
(460,59,cs),
(337,412,ls),
(332,424,o),
(336,434,o),
(345,444,cs),
(526,623,ls),
(577,675,o),
(606,691,o),
(653,695,cs),
(676,697,ls),
(689,698,o),
(695,703,o),
(695,710,cs),
(695,716,o),
(689,720,o),
(678,720,cs),
(482,720,ls),
(469,720,o),
(463,716,o),
(463,709,cs),
(463,703,o),
(468,699,o),
(480,697,cs),
(501,693,ls),
(531,688,o),
(527,669,o),
(493,635,cs),
(232,374,ls),
(223,365,o),
(214,370,o),
(217,381,cs),
(290,653,ls),
(297,681,o),
(306,690,o),
(339,693,cs),
(369,696,ls),
(379,697,o),
(388,702,o),
(388,709,cs),
(388,716,o),
(382,720,o),
(370,720,cs),
(164,720,ls),
(152,720,o),
(144,716,o),
(144,708,cs),
(144,703,o),
(147,699,o),
(159,697,cs),
(182,693,ls),
(213,688,o),
(217,682,o),
(210,654,cs),
(54,66,ls),
(47,38,o),
(38,31,o),
(5,27,cs),
(-16,24,ls),
(-30,22,o),
(-36,17,o),
(-36,10,cs),
(-36,4,o),
(-32,0,o),
(-22,0,cs)
);
}
);
width = 574;
}
);
unicode = 75;
},
{
glyphname = L;
kernLeft = H;
kernRight = L;
lastChange = "2022-09-01 20:16:45 +0000";
layers = (
{
anchors = (
{
name = bottom;
pos = (148,0);
},
{
name = center;
pos = (231,360);
},
{
name = top;
pos = (228,720);
},
{
name = topright;
pos = (369,720);
}
);
background = {
shapes = (
{
closed = 1;
nodes = (
(343,0,ls),
(360,0,o),
(373,8,o),
(377,23,cs),
(442,211,ls),
(445,222,o),
(439,228,o),
(430,228,cs),
(421,228,o),
(415,223,o),
(412,215,cs),
(369,128,ls),
(329,45,o),
(270,25,o),
(217,25,cs),
(159,25,o),
(128,45,o),
(140,93,cs),
(290,653,ls),
(297,681,o),
(306,689,o),
(339,693,cs),
(371,697,ls),
(379,698,o),
(385,702,o),
(386,708,cs),
(389,716,o),
(384,720,o),
(373,720,cs),
(164,720,ls),
(152,720,o),
(144,716,o),
(144,708,cs),
(144,703,o),
(147,699,o),
(159,697,cs),
(182,693,ls),
(213,688,o),
(217,682,o),
(210,654,cs),
(54,66,ls),
(47,38,o),
(38,31,o),
(5,27,cs),
(-16,24,ls),
(-30,22,o),
(-36,17,o),
(-36,10,cs),
(-36,4,o),
(-32,0,o),
(-22,0,cs)
);
}
);
};
layerId = m002;
shapes = (
{
closed = 1;
nodes = (
(343,0,ls),
(360,0,o),
(373,8,o),
(377,23,cs),
(442,211,ls),
(445,222,o),
(439,228,o),
(430,228,cs),
(421,228,o),
(415,223,o),
(412,215,cs),
(377,145,ls),
(337,62,o),
(270,25,o),
(212,25,cs),
(159,25,o),
(128,45,o),
(140,93,cs),
(290,653,ls),
(297,681,o),
(306,689,o),
(339,693,cs),
(371,697,ls),
(379,698,o),
(385,702,o),
(386,708,cs),
(389,716,o),
(384,720,o),
(373,720,cs),
(164,720,ls),
(152,720,o),
(144,716,o),
(144,708,cs),
(144,703,o),
(147,699,o),
(159,697,cs),
(182,693,ls),
(213,688,o),
(217,682,o),
(210,654,cs),
(54,66,ls),
(47,38,o),
(38,31,o),
(5,27,cs),
(-16,24,ls),
(-30,22,o),
(-36,17,o),
(-36,10,cs),
(-36,4,o),
(-32,0,o),
(-22,0,cs)
);
}
);
width = 476;
}
);
unicode = 76;
},
{
glyphname = Lslash;
kernLeft = H;
kernRight = L;
lastChange = "2022-08-23 19:53:25 +0000";
layers = (
{
layerId = m002;
shapes = (
{
ref = L;
},
{
closed = 1;
nodes = (
(186,383,l),
(31,307,ls),
(24,304,o),
(21,298,o),
(24,293,cs),
(29,286,ls),
(32,281,o),
(37,280,o),
(44,283,cs),
(179,350,l)
);
},
{
closed = 1;
nodes = (
(181,345,l),
(343,424,ls),
(350,427,o),
(352,433,o),
(350,438,cs),
(345,445,ls),
(343,450,o),
(337,451,o),
(330,448,cs),
(187,378,l)
);
}
);
width = 476;
}
);
unicode = 321;
},
{
glyphname = M;
lastChange = "2022-09-01 20:53:28 +0000";
layers = (
{
background = {
shapes = (
{
closed = 1;
nodes = (
(305,10,o),
(312,13,o),
(319,26,cs),
(668,661,l),
(683,661,l),
(700,720,l),
(693,720,ls),
(672,720,o),
(659,712,o),
(650,695,cs),
(363,177,l),
(358,177,l),
(351,690,ls),
(351,711,o),
(339,720,o),
(317,720,cs),
(269,720,l),
(283,26,ls),
(283,13,o),
(290,10,o),
(298,10,cs)
);
},
{
closed = 1;
nodes = (
(662,0,ls),
(676,0,o),
(683,5,o),
(683,12,cs),
(683,17,o),
(680,22,o),
(665,24,cs),
(645,27,ls),
(614,32,o),
(610,38,o),
(616,66,cs),
(750,654,ls),
(757,682,o),
(766,688,o),
(799,693,cs),
(827,697,ls),
(839,699,o),
(846,703,o),
(846,710,cs),
(846,716,o),
(842,720,o),
(833,720,cs),
(700,720,l),
(678,685,l),
(537,66,ls),
(530,38,o),
(521,32,o),
(488,27,cs),
(460,23,ls),
(448,21,o),
(442,17,o),
(442,10,cs),
(442,4,o),
(446,0,o),
(458,0,cs)
);
},
{
closed = 1;
nodes = (
(291,720,l),
(179,720,ls),
(166,720,o),
(159,716,o),
(159,709,cs),
(159,703,o),
(163,698,o),
(177,696,cs),
(197,693,ls),
(230,688,o),
(236,682,o),
(228,654,cs),
(54,86,ls),
(43,48,o),
(26,30,o),
(-13,25,cs),
(-27,23,ls),
(-36,22,o),
(-43,18,o),
(-43,10,cs),
(-43,4,o),
(-39,0,o),
(-28,0,cs),
(130,0,ls),
(145,0,o),
(152,4,o),
(152,12,cs),
(152,17,o),
(148,22,o),
(138,23,cs),
(124,25,ls),
(87,30,o),
(78,48,o),
(90,86,cs),
(266,661,l),
(271,661,l)
);
}
);
};
guides = (
{
angle = 165.1125;
pos = (76,104);
showMeasurement = 1;
}
);
layerId = m002;
shapes = (
{
closed = 1;
nodes = (
(305,10,o),
(312,13,o),
(319,26,cs),
(654,637,ls),
(659,645,o),
(669,642,o),
(667,633,cs),
(537,66,ls),
(530,38,o),
(521,32,o),
(488,27,cs),
(460,23,ls),
(448,21,o),
(442,17,o),
(442,10,cs),
(442,4,o),
(446,0,o),
(458,0,cs),
(662,0,ls),
(676,0,o),
(683,5,o),
(683,12,cs),
(683,17,o),
(680,22,o),
(665,24,cs),
(645,27,ls),
(614,32,o),
(610,38,o),
(616,66,cs),
(750,654,ls),
(757,682,o),
(766,688,o),
(799,693,cs),
(827,697,ls),
(839,699,o),
(846,703,o),
(846,710,cs),
(846,716,o),
(842,720,o),
(833,720,cs),
(693,720,ls),
(672,720,o),
(659,712,o),
(650,695,cs),
(371,191,ls),
(367,183,o),
(358,184,o),
(358,193,cs),
(351,690,ls),
(351,711,o),
(339,720,o),
(317,720,cs),
(179,720,ls),
(166,720,o),
(159,716,o),
(159,709,cs),
(159,703,o),
(163,698,o),
(177,696,cs),
(197,693,ls),
(230,688,o),
(236,682,o),
(228,654,cs),
(54,86,ls),
(43,48,o),
(26,30,o),
(-13,25,cs),
(-27,23,ls),
(-36,22,o),
(-43,18,o),
(-43,10,cs),
(-43,4,o),
(-39,0,o),
(-28,0,cs),
(130,0,ls),
(145,0,o),
(152,4,o),
(152,12,cs),
(152,17,o),
(148,22,o),
(138,23,cs),
(124,25,ls),
(87,30,o),
(78,48,o),
(90,86,cs),
(259,637,ls),
(261,645,o),
(271,645,o),
(271,636,cs),
(283,26,ls),
(283,13,o),
(290,10,o),
(298,10,cs)
);
}
);
width = 765;
}
);
unicode = 77;
},
{
glyphname = N;
kernLeft = N;
kernRight = N;
lastChange = "2022-09-01 20:53:33 +0000";
layers = (
{
anchors = (
{
name = bottom;
pos = (212,0);
},
{
name = top;
pos = (378,720);
}
);
background = {
shapes = (
{
closed = 1;
nodes = (
(442,-9,o),
(453,-1,o),
(457,13,cs),
(621,634,ls),
(632,676,o),
(649,690,o),
(690,695,cs),
(706,697,ls),
(716,698,o),
(722,703,o),
(724,709,cs),
(726,716,o),
(721,720,o),
(710,720,cs),
(545,720,ls),
(534,720,o),
(527,716,o),
(526,709,cs),
(523,703,o),
(527,699,o),
(537,697,cs),
(557,694,ls),
(582,690,o),
(597,676,o),
(585,634,cs),
(461,165,l),
(455,165,l),
(306,698,ls),
(301,714,o),
(291,720,o),
(271,720,cs),
(160,720,ls),
(148,720,o),
(141,716,o),
(140,709,cs),
(138,703,o),
(141,699,o),
(152,697,cs),
(177,693,ls),
(210,688,o),
(215,682,o),
(208,654,cs),
(57,86,ls),
(47,48,o),
(30,30,o),
(-10,25,cs),
(-24,23,ls),
(-33,22,o),
(-38,17,o),
(-39,11,cs),
(-41,4,o),
(-37,0,o),
(-27,0,cs),
(133,0,ls),
(145,0,o),
(152,4,o),
(154,11,cs),
(155,17,o),
(152,22,o),
(141,23,cs),
(128,25,ls),
(91,30,o),
(83,48,o),
(93,86,cs),
(233,617,l),
(239,617,l),
(411,7,ls),
(414,-5,o),
(419,-9,o),
(430,-9,cs)
);
}
);
};
layerId = m002;
shapes = (
{
closed = 1;
nodes = (
(442,-9,o),
(453,-1,o),
(457,13,cs),
(621,634,ls),
(632,676,o),
(649,690,o),
(690,695,cs),
(706,697,ls),
(716,698,o),
(722,703,o),
(724,709,cs),
(726,716,o),
(721,720,o),
(710,720,cs),
(545,720,ls),
(534,720,o),
(527,716,o),
(526,709,cs),
(523,703,o),
(527,699,o),
(537,697,cs),
(557,694,ls),
(582,690,o),
(597,676,o),
(585,634,cs),
(465,180,ls),
(462,171,o),
(453,171,o),
(451,180,cs),
(306,698,ls),
(301,714,o),
(291,720,o),
(271,720,cs),
(160,720,ls),
(148,720,o),
(141,716,o),
(140,709,cs),
(138,703,o),
(141,699,o),
(152,697,cs),
(177,693,ls),
(210,688,o),
(215,682,o),
(208,654,cs),
(57,86,ls),
(47,48,o),
(30,30,o),
(-10,25,cs),
(-24,23,ls),
(-33,22,o),
(-38,17,o),
(-39,11,cs),
(-41,4,o),
(-37,0,o),
(-27,0,cs),
(133,0,ls),
(145,0,o),
(152,4,o),
(154,11,cs),
(155,17,o),
(152,22,o),
(141,23,cs),
(128,25,ls),
(91,30,o),
(83,48,o),
(93,86,cs),
(230,603,ls),
(232,610,o),
(240,610,o),
(243,603,cs),
(411,7,ls),
(414,-5,o),
(419,-9,o),
(430,-9,cs)
);
}
);
width = 623;
}
);
unicode = 78;
},
{
glyphname = Eng;
kernLeft = N;
kernRight = N;
lastChange = "2022-08-23 20:12:33 +0000";
layers = (
{
layerId = m002;
shapes = (
{
closed = 1;
nodes = (
(352,-215,o),
(414,-148,o),
(444,-37,cs),
(621,634,ls),
(632,676,o),
(649,690,o),
(690,695,cs),
(706,697,ls),
(716,698,o),
(722,703,o),
(724,709,cs),
(726,716,o),
(721,720,o),
(710,720,cs),
(545,720,ls),
(534,720,o),
(527,716,o),
(526,709,cs),
(523,703,o),
(527,699,o),
(537,697,cs),
(557,694,ls),
(582,690,o),
(597,676,o),
(585,634,cs),
(465,180,ls),
(462,171,o),
(453,171,o),
(451,180,cs),
(306,698,ls),
(301,714,o),
(291,720,o),
(271,720,cs),
(160,720,ls),
(148,720,o),
(141,716,o),
(140,709,cs),
(138,703,o),
(141,699,o),
(152,697,cs),
(177,693,ls),
(210,688,o),
(215,682,o),
(208,654,cs),
(57,86,ls),
(47,48,o),
(30,30,o),
(-10,25,cs),
(-24,23,ls),
(-33,22,o),
(-38,17,o),
(-39,11,cs),
(-41,4,o),
(-37,0,o),
(-27,0,cs),
(133,0,ls),
(145,0,o),
(152,4,o),
(154,11,cs),
(155,17,o),
(152,22,o),
(141,23,cs),
(128,25,ls),
(91,30,o),
(83,48,o),
(93,86,cs),
(230,603,ls),
(232,610,o),
(240,610,o),
(243,603,cs),
(391,75,ls),
(392,69,o),
(392,63,o),
(391,57,cs),
(346,-114,ls),
(329,-178,o),
(315,-188,o),
(299,-188,cs),
(255,-188,o),
(293,-106,o),
(235,-106,cs),
(214,-106,o),
(194,-120,o),
(194,-148,cs),
(194,-186,o),
(223,-215,o),
(277,-215,cs)
);
}
);
width = 623;
}
);
unicode = 330;
},
{
glyphname = O;
kernLeft = O;
kernRight = O;
lastChange = "2022-09-01 19:27:44 +0000";
layers = (
{
anchors = (
{
name = bottom;
pos = (211,0);
},
{
name = center;
pos = (294,360);
},
{
name = ogonek;
pos = (429,10);
},
{
name = top;
pos = (377,720);
},
{
name = topleft;
pos = (127,720);
},
{
name = topright;
pos = (627,720);
}
);
background = {
shapes = (
{
closed = 1;
nodes = (
(386,-9,o),
(546,153,o),
(601,361,cs),
(657,568,o),
(583,730,o),
(436,730,cs),
(288,730,o),
(128,568,o),
(72,361,cs),
(17,153,o),
(91,-9,o),
(239,-9,cs)
);
},
{
closed = 1;
nodes = (
(138,18,o),
(102,130,o),
(163,361,cs),
(224,591,o),
(320,703,o),
(428,703,cs),
(536,703,o),
(572,591,o),
(511,361,cs),
(450,130,o),
(354,18,o),
(246,18,cs)
);
}
);
};
layerId = m002;
shapes = (
{
closed = 1;
nodes = (
(440,-9,o),
(615,232,o),
(615,478,cs),
(615,644,o),
(540,730,o),
(421,730,cs),
(237,730,o),
(62,489,o),
(62,243,cs),
(62,77,o),
(137,-9,o),
(256,-9,cs)
);
},
{
closed = 1;
nodes = (
(178,17,o),
(140,71,o),
(140,177,cs),
(140,437,o),
(282,704,o),
(423,704,cs),
(499,704,o),
(537,650,o),
(537,544,cs),
(537,284,o),
(396,17,o),
(254,17,cs)
);
}
);
width = 621;
}
);
unicode = 79;
},
{
glyphname = Oslash;
kernLeft = O;
kernRight = O;
lastChange = "2022-08-23 19:53:48 +0000";
layers = (
{
background = {
shapes = (
{
closed = 1;
nodes = (
(40,-70,ls),
(46,-70,o),
(51,-68,o),
(54,-62,cs),
(588,708,ls),
(592,715,o),
(589,720,o),
(581,720,cs),
(570,720,ls),
(565,720,o),
(560,718,o),
(557,712,cs),
(23,-58,ls),
(18,-65,o),
(22,-70,o),
(30,-70,cs)
);
}
);
};
layerId = m002;
shapes = (
{
ref = O;
},
{
closed = 1;
nodes = (
(59,-60,ls),
(64,-60,o),
(69,-58,o),
(72,-52,cs),
(641,768,ls),
(645,775,o),
(642,780,o),
(634,780,cs),
(619,780,ls),
(613,780,o),
(608,778,o),
(605,772,cs),
(37,-48,ls),
(32,-55,o),
(36,-60,o),
(44,-60,cs)
);
}
);
width = 621;
}
);
unicode = 216;
},
{
glyphname = OE;
kernLeft = O;
kernRight = E;
lastChange = "2022-08-23 19:53:43 +0000";
layers = (
{
background = {
shapes = (
{
closed = 1;
nodes = (
(726,0,ls),
(743,0,o),
(756,8,o),
(760,23,cs),
(819,201,ls),
(822,212,o),
(816,218,o),
(807,218,cs),
(798,218,o),
(792,213,o),
(789,205,cs),
(761,149,ls),
(711,46,o),
(642,25,o),
(573,25,cs),
(498,25,o),
(478,45,o),
(491,93,cs),
(558,344,ls),
(560,353,o),
(568,358,o),
(578,358,cs),
(636,358,ls),
(670,358,o),
(684,347,o),
(683,301,cs),
(682,252,ls),
(682,244,o),
(687,239,o),
(696,239,cs),
(705,239,o),
(712,245,o),
(715,256,cs),
(775,481,ls),
(779,492,o),
(772,498,o),
(762,498,cs),
(753,498,o),
(747,493,o),
(744,485,cs),
(719,435,ls),
(703,402,o),
(680,388,o),
(645,388,cs),
(586,388,ls),
(576,388,o),
(572,393,o),
(574,402,cs),
(637,643,ls),
(647,681,o),
(670,695,o),
(733,695,cs),
(813,695,o),
(869,664,o),
(859,562,cs),
(856,527,ls),
(854,519,o),
(860,514,o),
(869,514,cs),
(879,514,o),
(885,520,o),
(888,531,cs),
(923,697,ls),
(927,712,o),
(917,720,o),
(899,720,cs),
(515,720,ls),
(503,720,o),
(494,716,o),
(494,708,cs),
(494,703,o),
(498,699,o),
(509,697,cs),
(532,693,ls),
(564,688,o),
(568,682,o),
(561,654,cs),
(405,66,ls),
(398,38,o),
(389,31,o),
(355,27,cs),
(332,24,ls),
(316,22,o),
(309,17,o),
(309,10,cs),
(309,4,o),
(314,0,o),
(325,0,cs)
);
}
);
};
layerId = m002;
shapes = (
{
closed = 1;
nodes = (
(297,-9,o),
(334,0,o),
(385,0,cs),
(726,0,ls),
(743,0,o),
(756,8,o),
(760,23,cs),
(819,201,ls),
(822,212,o),
(815,218,o),
(807,218,cs),
(798,218,o),
(792,213,o),
(789,205,cs),
(760,146,ls),
(714,52,o),
(650,25,o),
(573,25,cs),
(500,25,o),
(478,44,o),
(491,93,cs),
(558,344,ls),
(560,353,o),
(568,358,o),
(578,358,cs),
(635,358,ls),
(669,358,o),
(683,347,o),
(682,301,cs),
(681,252,ls),
(681,245,o),
(687,239,o),
(695,239,cs),
(705,239,o),
(712,246,o),
(714,256,cs),
(774,481,ls),
(777,493,o),
(772,498,o),
(761,498,cs),
(753,498,o),
(747,492,o),
(744,485,cs),
(718,435,ls),
(700,402,o),
(678,388,o),
(644,388,cs),
(586,388,ls),
(575,388,o),
(572,392,o),
(574,402,cs),
(637,643,ls),
(647,681,o),
(670,695,o),
(733,695,cs),
(835,695,o),
(862,645,o),
(858,564,cs),
(856,527,ls),
(856,519,o),
(860,514,o),
(869,514,cs),
(879,514,o),
(885,520,o),
(888,531,cs),
(922,697,ls),
(926,712,o),
(917,720,o),
(899,720,cs),
(576,720,ls),
(524,720,o),
(492,729,o),
(446,729,cs),
(197,729,o),
(60,448,o),
(60,234,cs),
(60,86,o),
(128,-9,o),
(251,-9,cs)
);
},
{
closed = 1;
nodes = (
(178,18,o),
(138,76,o),
(138,174,cs),
(138,346,o),
(221,702,o),
(444,702,cs),
(535,702,o),
(560,662,o),
(545,604,cs),
(416,116,ls),
(399,50,o),
(338,18,o),
(262,18,cs)
);
}
);
width = 873;
}
);
metricLeft = O;
metricRight = E;
unicode = 338;
},
{
glyphname = P;
kernLeft = H;
lastChange = "2022-09-01 20:53:52 +0000";
layers = (
{
background = {
shapes = (
{
closed = 1;
nodes = (
(218,0,ls),
(231,0,o),
(239,4,o),
(239,13,cs),
(239,18,o),
(236,22,o),
(229,23,cs),
(174,29,ls),
(136,33,o),
(125,41,o),
(133,70,cs),
(199,312,ls),
(201,321,o),
(208,326,o),
(218,326,cs),
(301,326,ls),
(466,326,o),
(585,446,o),
(585,572,cs),
(585,662,o),
(518,720,o),
(402,720,cs),
(164,720,ls),
(152,720,o),
(144,716,o),
(144,708,cs),
(144,703,o),
(147,699,o),
(159,697,cs),
(182,693,ls),
(216,687,o),
(216,676,o),
(210,654,cs),
(54,66,ls),
(47,38,o),
(38,31,o),
(5,27,cs),
(-16,24,ls),
(-30,22,o),
(-36,17,o),
(-36,10,cs),
(-36,4,o),
(-32,0,o),
(-22,0,cs)
);
},
{
closed = 1;
nodes = (
(290,655,ls),
(297,683,o),
(322,695,o),
(370,695,cs),
(457,695,o),
(501,655,o),
(501,582,cs),
(501,498,o),
(440,351,o),
(286,351,cs),
(230,351,o),
(215,371,o),
(224,406,cs)
);
}
);
};
layerId = m002;
shapes = (
{
closed = 1;
nodes = (
(218,0,ls),
(231,0,o),
(239,4,o),
(239,13,cs),
(239,18,o),
(236,22,o),
(229,23,cs),
(174,29,ls),
(136,33,o),
(125,41,o),
(133,70,cs),
(198,309,ls),
(201,320,o),
(208,326,o),
(222,326,cs),
(290,326,ls),
(466,326,o),
(585,436,o),
(585,562,cs),
(585,652,o),
(515,720,o),
(389,720,cs),
(164,720,ls),
(152,720,o),
(144,716,o),
(144,708,cs),
(144,703,o),
(147,699,o),
(159,697,cs),
(182,693,ls),
(216,687,o),
(216,676,o),
(210,654,cs),
(54,66,ls),
(47,38,o),
(38,31,o),
(5,27,cs),
(-16,24,ls),
(-30,22,o),
(-36,17,o),
(-36,10,cs),
(-36,4,o),
(-32,0,o),
(-22,0,cs)
);
},
{
closed = 1;
nodes = (
(290,655,ls),
(297,683,o),
(322,695,o),
(370,695,cs),
(457,695,o),
(501,645,o),
(501,572,cs),
(501,478,o),
(440,351,o),
(286,351,cs),
(230,351,o),
(215,371,o),
(224,406,cs)
);
}
);
width = 539;
}
);
unicode = 80;
},
{
glyphname = Thorn;
kernLeft = H;
lastChange = "2022-08-23 19:53:56 +0000";
layers = (
{
background = {
shapes = (
{
closed = 1;
nodes = (
(207,0,ls),
(218,0,o),
(225,4,o),
(228,11,cs),
(229,17,o),
(225,21,o),
(215,23,cs),
(166,31,ls),
(135,36,o),
(130,43,o),
(137,71,cs),
(163,171,ls),
(167,180,o),
(174,185,o),
(184,185,cs),
(267,185,ls),
(399,185,o),
(513,265,o),
(543,379,cs),
(575,497,o),
(504,579,o),
(368,579,cs),
(289,579,ls),
(278,579,o),
(274,584,o),
(276,593,cs),
(291,649,ls),
(298,677,o),
(307,684,o),
(340,689,cs),
(394,697,ls),
(405,699,o),
(411,703,o),
(413,709,cs),
(414,716,o),
(409,720,o),
(398,720,cs),
(164,720,ls),
(153,720,o),
(146,716,o),
(145,709,cs),
(143,703,o),
(146,699,o),
(156,697,cs),
(182,693,ls),
(213,688,o),
(217,682,o),
(210,654,cs),
(54,66,ls),
(47,38,o),
(38,32,o),
(5,27,cs),
(-20,23,ls),
(-29,21,o),
(-34,17,o),
(-35,11,cs),
(-37,4,o),
(-33,0,o),
(-23,0,cs)
);
},
{
closed = 1;
nodes = (
(198,210,o),
(178,227,o),
(189,265,cs),
(255,514,ls),
(262,542,o),
(288,554,o),
(336,554,cs),
(443,554,o),
(486,491,o),
(458,382,cs),
(429,275,o),
(351,210,o),
(251,210,cs)
);
}
);
};
layerId = m002;
shapes = (
{
closed = 1;
nodes = (
(207,0,ls),
(220,0,o),
(228,4,o),
(228,12,cs),
(228,17,o),
(224,21,o),
(213,23,cs),
(162,31,ls),
(131,36,o),
(128,43,o),
(133,66,cs),
(161,168,ls),
(164,179,o),
(171,185,o),
(185,185,cs),
(253,185,ls),
(429,185,o),
(549,295,o),
(549,421,cs),
(549,511,o),
(478,579,o),
(352,579,cs),
(289,579,ls),
(278,579,o),
(271,585,o),
(274,594,cs),
(290,654,ls),
(296,677,o),
(306,686,o),
(339,690,cs),
(390,696,ls),
(406,698,o),
(413,703,o),
(413,710,cs),
(413,716,o),
(408,720,o),
(397,720,cs),
(164,720,ls),
(152,720,o),
(144,716,o),
(144,708,cs),
(144,703,o),
(147,699,o),
(159,697,cs),
(182,693,ls),
(213,688,o),
(217,682,o),
(210,654,cs),
(54,66,ls),
(47,38,o),
(38,31,o),
(5,27,cs),
(-16,24,ls),
(-30,22,o),
(-36,17,o),
(-36,10,cs),
(-36,4,o),
(-32,0,o),
(-22,0,cs)
);
},
{
closed = 1;
nodes = (
(193,210,o),
(178,230,o),
(187,265,cs),
(253,514,ls),
(260,542,o),
(285,554,o),
(334,554,cs),
(420,554,o),
(465,504,o),
(465,431,cs),
(465,337,o),
(404,210,o),
(250,210,cs)
);
}
);
width = 539;
}
);
unicode = 222;
},
{
glyphname = Q;
kernLeft = O;
kernRight = O;
lastChange = "2022-09-01 19:45:32 +0000";
layers = (
{
background = {
shapes = (
{
closed = 1;
nodes = (
(440,-9,o),
(615,232,o),
(615,478,cs),
(615,644,o),
(540,730,o),
(421,730,cs),
(237,730,o),
(62,489,o),
(62,243,cs),
(62,77,o),
(137,-9,o),
(256,-9,cs)
);
},
{
closed = 1;
nodes = (
(178,17,o),
(140,71,o),
(140,177,cs),
(140,437,o),
(282,704,o),
(423,704,cs),
(499,704,o),
(537,650,o),
(537,544,cs),
(537,284,o),
(396,17,o),
(254,17,cs)
);
},
{
closed = 1;
nodes = (
(393,-215,o),
(460,-153,o),
(482,-58,cs),
(484,-47,o),
(480,-40,o),
(470,-40,cs),
(463,-40,o),
(458,-44,o),
(454,-53,cs),
(430,-121,o),
(397,-143,o),
(352,-143,cs),
(275,-143,o),
(224,-61,o),
(129,-61,c),
(144,-69,l),
(346,15,l),
(313,29,l),
(57,-70,l),
(-8,-85,o),
(-32,-108,o),
(-32,-131,cs),
(-32,-146,o),
(-22,-154,o),
(-8,-154,c),
(43,-154,o),
(64,-88,o),
(117,-88,cs),
(177,-88,o),
(185,-215,o),
(310,-215,cs)
);
}
);
};
layerId = m002;
shapes = (
{
closed = 1;
nodes = (
(393,-215,o),
(460,-153,o),
(482,-58,cs),
(484,-47,o),
(480,-40,o),
(470,-40,cs),
(463,-40,o),
(458,-44,o),
(454,-53,cs),
(430,-121,o),
(397,-143,o),
(352,-143,cs),
(292,-143,o),
(248,-94,o),
(187,-71,cs),
(172,-66,o),
(171,-57,o),
(185,-51,cs),
(254,-23,ls),
(288,-9,o),
(310,-4,o),
(343,9,cs),
(492,69,o),
(615,272,o),
(615,478,cs),
(615,644,o),
(540,730,o),
(421,730,cs),
(237,730,o),
(62,489,o),
(62,243,cs),
(62,110,o),
(110,28,o),
(191,1,cs),
(206,-4,o),
(207,-12,o),
(192,-18,cs),
(57,-70,l),
(-8,-85,o),
(-32,-108,o),
(-32,-131,cs),
(-32,-146,o),
(-22,-154,o),
(-8,-154,cs),
(43,-154,o),
(64,-88,o),
(117,-88,cs),
(177,-88,o),
(185,-215,o),
(310,-215,cs)
);
},
{
closed = 1;
nodes = (
(178,17,o),
(140,71,o),
(140,177,cs),
(140,437,o),
(282,704,o),
(423,704,cs),
(499,704,o),
(537,650,o),
(537,544,cs),
(537,284,o),
(396,17,o),
(254,17,cs)
);
}
);
width = 622;
}
);
unicode = 81;
},
{
glyphname = R;
kernLeft = H;
kernRight = R;
lastChange = "2022-09-01 20:17:03 +0000";
layers = (
{
anchors = (
{
name = bottom;
pos = (224,0);
},
{
name = top;
pos = (360,720);
}
);
background = {
shapes = (
{
closed = 1;
nodes = (
(218,0,ls),
(230,0,o),
(237,4,o),
(237,12,cs),
(237,18,o),
(232,22,o),
(221,23,cs),
(170,29,ls),
(131,34,o),
(125,42,o),
(133,70,cs),
(200,313,ls),
(206,335,o),
(221,346,o),
(254,346,cs),
(314,346,ls),
(440,346,o),
(600,436,o),
(600,566,cs),
(600,650,o),
(534,720,o),
(398,720,cs),
(164,720,ls),
(152,720,o),
(144,716,o),
(144,708,cs),
(144,703,o),
(147,699,o),
(159,697,cs),
(182,693,ls),
(213,688,o),
(217,682,o),
(210,654,cs),
(54,66,ls),
(47,38,o),
(38,31,o),
(5,27,cs),
(-16,24,ls),
(-30,22,o),
(-36,17,o),
(-36,10,cs),
(-36,4,o),
(-32,0,o),
(-22,0,cs)
);
},
{
closed = 1;
nodes = (
(241,371,o),
(218,388,o),
(229,426,cs),
(290,655,ls),
(298,683,o),
(324,695,o),
(375,695,cs),
(480,695,o),
(516,648,o),
(516,574,cs),
(516,460,o),
(409,371,o),
(294,371,cs)
);
},
{
closed = 1;
nodes = (
(508,-9,o),
(545,15,o),
(545,34,cs),
(545,45,o),
(534,50,o),
(521,41,cs),
(506,31,o),
(498,29,o),
(486,29,cs),
(454,29,o),
(435,52,o),
(435,125,cs),
(435,227,ls),
(435,296,o),
(416,330,o),
(365,346,c),
(366,352,l),
(254,346,l),
(339,346,o),
(356,323,o),
(355,216,cs),
(354,105,ls),
(353,33,o),
(398,-9,o),
(462,-9,cs)
);
}
);
};
layerId = m002;
shapes = (
{
closed = 1;
nodes = (
(508,-9,o),
(545,15,o),
(545,34,cs),
(545,45,o),
(534,50,o),
(521,41,cs),
(506,31,o),
(498,29,o),
(486,29,cs),
(454,29,o),
(435,52,o),
(435,125,cs),
(435,227,ls),
(435,287,o),
(422,321,o),
(379,341,cs),
(370,345,o),
(371,352,o),
(381,354,cs),
(494,381,o),
(600,460,o),
(600,566,cs),
(600,650,o),
(534,720,o),
(398,720,cs),
(164,720,ls),
(152,720,o),
(144,716,o),
(144,708,cs),
(144,703,o),
(147,699,o),
(159,697,cs),
(182,693,ls),
(213,688,o),
(217,682,o),
(210,654,cs),
(54,66,ls),
(47,38,o),
(38,31,o),
(5,27,cs),
(-16,24,ls),
(-30,22,o),
(-36,17,o),
(-36,10,cs),
(-36,4,o),
(-32,0,o),
(-22,0,cs),
(218,0,ls),
(230,0,o),
(237,4,o),
(237,12,cs),
(237,18,o),
(232,22,o),
(221,23,cs),
(170,29,ls),
(131,34,o),
(125,42,o),
(133,70,cs),
(200,313,ls),
(206,335,o),
(221,346,o),
(254,346,cs),
(339,346,o),
(356,323,o),
(355,216,cs),
(354,105,ls),
(353,33,o),
(398,-9,o),
(462,-9,cs)
);
},
{
closed = 1;
nodes = (
(241,371,o),
(218,388,o),
(229,426,cs),
(290,655,ls),
(298,683,o),
(324,695,o),
(375,695,cs),
(480,695,o),
(516,648,o),
(516,574,cs),
(516,460,o),
(409,371,o),
(294,371,cs)
);
}
);
width = 604;
}
);
unicode = 82;
},
{
glyphname = S;
kernLeft = S;
kernRight = S;
lastChange = "2022-09-01 20:17:08 +0000";
layers = (
{
anchors = (
{
name = bottom;
pos = (163,0);
},
{
name = top;
pos = (309,720);
}
);
background = {
shapes = (
{
closed = 1;
nodes = (
(331,-9,o),
(430,75,o),
(430,193,cs),
(430,258,o),
(386,327,o),
(313,403,cs),
(233,486,o),
(210,527,o),
(210,586,cs),
(210,637,o),
(245,701,o),
(337,701,cs),
(421,701,o),
(448,643,o),
(448,542,cs),
(448,514,ls),
(448,503,o),
(454,497,o),
(463,497,cs),
(471,497,o),
(477,503,o),
(480,512,cs),
(512,658,ls),
(515,673,o),
(512,683,o),
(500,691,cs),
(463,718,o),
(415,730,o),
(347,730,cs),
(204,730,o),
(136,642,o),
(136,561,cs),
(136,492,o),
(172,434,o),
(251,358,cs),
(316,294,o),
(355,229,o),
(355,170,cs),
(355,79,o),
(292,21,o),
(206,21,cs),
(112,21,o),
(70,71,o),
(70,179,cs),
(70,218,ls),
(70,232,o),
(66,238,o),
(56,238,cs),
(47,238,o),
(40,232,o),
(38,220,cs),
(6,63,ls),
(2,49,o),
(5,44,o),
(13,38,cs),
(49,10,o),
(133,-9,o),
(199,-9,cs)
);
}
);
};
layerId = m002;
shapes = (
{
closed = 1;
nodes = (
(331,-9,o),
(430,75,o),
(430,193,cs),
(430,258,o),
(386,327,o),
(313,403,cs),
(233,486,o),
(210,527,o),
(210,586,cs),
(210,637,o),
(245,701,o),
(337,701,cs),
(421,701,o),
(442,643,o),
(447,535,cs),
(448,514,ls),
(450,503,o),
(454,497,o),
(463,497,cs),
(471,497,o),
(477,503,o),
(480,512,cs),
(512,658,ls),
(515,673,o),
(512,683,o),
(500,691,cs),
(463,718,o),
(415,730,o),
(347,730,cs),
(204,730,o),
(136,642,o),
(136,561,cs),
(136,492,o),
(172,434,o),
(251,358,cs),
(316,294,o),
(355,229,o),
(355,170,cs),
(355,79,o),
(292,21,o),
(206,21,cs),
(112,21,o),
(75,67,o),
(71,179,cs),
(70,218,ls),
(70,232,o),
(66,238,o),
(56,238,cs),
(47,238,o),
(40,232,o),
(38,220,cs),
(6,63,ls),
(2,49,o),
(5,44,o),
(13,38,cs),
(49,10,o),
(133,-9,o),
(199,-9,cs)
);
}
);
width = 488;
}
);
unicode = 83;
},
{
glyphname = Germandbls;
lastChange = "2022-08-18 20:20:07 +0000";
layers = (
{
background = {
shapes = (
{
ref = H;
}
);
};
guides = (
{
angle = 258.4797;
pos = (181,142);
}
);
layerId = m002;
shapes = (
{
closed = 1;
nodes = (
(475,-9,o),
(557,75,o),
(557,173,cs),
(557,265,o),
(506,338,o),
(422,421,c),
(413,381,l),
(661,597,l),
(618,688,o),
(551,730,o),
(448,730,cs),
(290,730,o),
(206,633,o),
(169,495,cs),
(54,66,ls),
(46,38,o),
(38,31,o),
(5,27,cs),
(-16,24,ls),
(-30,22,o),
(-36,17,o),
(-36,10,cs),
(-36,4,o),
(-32,0,o),
(-22,0,cs),
(94,0,ls),
(110,0,o),
(117,4,o),
(121,18,cs),
(252,511,ls),
(288,645,o),
(354,701,o),
(442,701,cs),
(522,701,o),
(572,644,o),
(586,560,c),
(614,599,l),
(359,377,l),
(377,358,ls),
(440,293,o),
(482,229,o),
(482,150,cs),
(482,79,o),
(436,21,o),
(361,21,cs),
(290,21,o),
(264,67,o),
(258,149,cs),
(254,188,ls),
(253,202,o),
(248,208,o),
(239,208,cs),
(230,208,o),
(222,202,o),
(220,190,cs),
(190,63,ls),
(186,49,o),
(189,44,o),
(197,38,cs),
(233,10,o),
(289,-9,o),
(354,-9,cs)
);
}
);
width = 619;
}
);
metricLeft = H;
metricRight = S;
unicode = 7838;
},
{
glyphname = T;
kernLeft = T;
kernRight = T;
lastChange = "2022-09-01 21:02:25 +0000";
layers = (
{
anchors = (
{
name = bottom;
pos = (172,0);
},
{
name = center;
pos = (255,360);
},
{
name = top;
pos = (338,720);
}
);
background = {
shapes = (
{
closed = 1;
nodes = (
(335,0,ls),
(346,0,o),
(353,4,o),
(353,12,cs),
(353,17,o),
(350,22,o),
(340,23,cs),
(286,30,ls),
(258,34,o),
(247,41,o),
(255,69,cs),
(415,669,ls),
(420,688,o),
(429,695,o),
(458,695,cs),
(527,695,o),
(573,674,o),
(564,582,cs),
(558,527,ls),
(557,519,o),
(561,514,o),
(570,514,cs),
(580,514,o),
(588,520,o),
(590,531,cs),
(627,712,ls),
(630,727,o),
(626,735,o),
(613,735,cs),
(598,735,o),
(590,720,o),
(516,720,cs),
(260,720,ls),
(186,720,o),
(191,735,o),
(170,735,cs),
(159,735,o),
(150,727,o),
(145,712,cs),
(87,531,ls),
(84,520,o),
(89,514,o),
(98,514,cs),
(107,514,o),
(114,519,o),
(117,527,cs),
(144,582,ls),
(185,669,o),
(247,695,o),
(305,695,cs),
(334,695,o),
(340,688,o),
(336,669,cs),
(176,69,ls),
(169,41,o),
(156,34,o),
(125,30,cs),
(77,23,ls),
(66,21,o),
(59,17,o),
(59,10,cs),
(59,4,o),
(63,0,o),
(75,0,cs)
);
}
);
};
layerId = m002;
shapes = (
{
closed = 1;
nodes = (
(335,0,ls),
(346,0,o),
(353,4,o),
(353,12,cs),
(353,17,o),
(350,22,o),
(340,23,cs),
(286,30,ls),
(258,34,o),
(247,41,o),
(255,69,cs),
(415,669,ls),
(420,688,o),
(429,695,o),
(458,695,cs),
(527,695,o),
(569,650,o),
(560,552,cs),
(558,527,ls),
(557,519,o),
(561,514,o),
(570,514,cs),
(580,514,o),
(588,520,o),
(590,531,cs),
(627,712,ls),
(630,727,o),
(626,735,o),
(613,735,cs),
(598,735,o),
(590,720,o),
(516,720,cs),
(260,720,ls),
(186,720,o),
(191,735,o),
(170,735,cs),
(159,735,o),
(150,727,o),
(145,712,cs),
(87,531,ls),
(84,520,o),
(89,514,o),
(98,514,cs),
(107,514,o),
(114,519,o),
(117,527,cs),
(136,565,ls),
(184,665,o),
(253,695,o),
(305,695,cs),
(334,695,o),
(340,688,o),
(336,669,cs),
(176,69,ls),
(169,41,o),
(156,34,o),
(125,30,cs),
(77,23,ls),
(66,21,o),
(59,17,o),
(59,10,cs),
(59,4,o),
(63,0,o),
(75,0,cs)
);
}
);
width = 530;
}
);
unicode = 84;
},
{
glyphname = U;
kernLeft = U;
kernRight = U;
lastChange = "2022-09-01 20:54:19 +0000";
layers = (
{
anchors = (
{
name = bottom;
pos = (210,0);
},
{
name = ogonek;
pos = (286,0);
},
{
name = top;
pos = (396,720);
},
{
name = topright;
pos = (624,720);
}
);
background = {
shapes = (
{
closed = 1;
nodes = (
(371,-9,o),
(474,71,o),
(506,192,cs),
(623,634,ls),
(634,671,o),
(650,689,o),
(678,693,cs),
(706,697,ls),
(716,699,o),
(722,702,o),
(724,709,cs),
(726,716,o),
(721,720,o),
(710,720,cs),
(544,720,ls),
(532,720,o),
(526,716,o),
(523,708,cs),
(522,702,o),
(526,698,o),
(534,697,cs),
(564,693,ls),
(590,689,o),
(597,671,o),
(586,633,cs),
(469,191,ls),
(443,90,o),
(371,31,o),
(277,31,cs),
(184,31,o),
(145,89,o),
(171,191,cs),
(294,653,ls),
(301,681,o),
(312,689,o),
(344,693,cs),
(376,697,ls),
(384,698,o),
(390,702,o),
(391,708,cs),
(393,716,o),
(389,720,o),
(377,720,cs),
(167,720,ls),
(154,720,o),
(146,716,o),
(146,708,cs),
(146,703,o),
(150,699,o),
(161,697,cs),
(184,693,ls),
(215,688,o),
(220,682,o),
(213,654,cs),
(90,192,ls),
(59,73,o),
(123,-9,o),
(247,-9,cs)
);
}
);
};
layerId = m002;
shapes = (
{
closed = 1;
nodes = (
(388,-9,o),
(474,71,o),
(506,192,cs),
(623,634,ls),
(634,671,o),
(650,689,o),
(678,693,cs),
(706,697,ls),
(719,699,o),
(724,702,o),
(724,710,cs),
(724,716,o),
(719,720,o),
(710,720,cs),
(544,720,ls),
(532,720,o),
(522,716,o),
(522,708,cs),
(522,701,o),
(528,697,o),
(538,696,cs),
(564,693,ls),
(590,690,o),
(597,671,o),
(586,633,cs),
(469,191,ls),
(443,90,o),
(383,31,o),
(283,31,cs),
(191,31,o),
(141,89,o),
(169,191,cs),
(292,653,ls),
(300,681,o),
(309,689,o),
(342,693,cs),
(374,697,ls),
(383,698,o),
(390,703,o),
(390,710,cs),
(390,716,o),
(385,720,o),
(374,720,cs),
(167,720,ls),
(154,720,o),
(146,716,o),
(146,708,cs),
(146,703,o),
(150,699,o),
(161,697,cs),
(184,693,ls),
(215,688,o),
(220,682,o),
(213,654,cs),
(90,192,ls),
(57,73,o),
(135,-9,o),
(259,-9,cs)
);
}
);
width = 618;
}
);
unicode = 85;
},
{
glyphname = V;
lastChange = "2022-09-01 20:54:24 +0000";
layers = (
{
background = {
shapes = (
{
closed = 1;
nodes = (
(199,-10,o),
(208,-7,o),
(215,6,cs),
(559,631,ls),
(580,668,o),
(599,689,o),
(630,694,cs),
(649,697,ls),
(659,699,o),
(667,702,o),
(667,710,cs),
(667,716,o),
(662,720,o),
(653,720,cs),
(486,720,ls),
(474,720,o),
(467,715,o),
(467,709,cs),
(467,703,o),
(470,699,o),
(484,697,cs),
(500,695,ls),
(535,691,o),
(542,669,o),
(521,632,cs),
(256,152,l),
(251,152,l),
(245,653,ls),
(245,682,o),
(253,693,o),
(279,695,cs),
(302,697,ls),
(316,698,o),
(325,702,o),
(325,710,cs),
(325,716,o),
(321,720,o),
(310,720,cs),
(121,720,ls),
(108,720,o),
(101,716,o),
(101,709,cs),
(101,703,o),
(106,699,o),
(115,697,cs),
(130,694,ls),
(159,688,o),
(166,677,o),
(167,640,cs),
(179,6,ls),
(179,-7,o),
(186,-10,o),
(193,-10,cs)
);
}
);
};
layerId = m002;
shapes = (
{
closed = 1;
nodes = (
(199,-10,o),
(208,-7,o),
(215,6,cs),
(559,631,ls),
(580,668,o),
(599,689,o),
(630,694,cs),
(649,697,ls),
(659,699,o),
(667,702,o),
(667,710,cs),
(667,716,o),
(662,720,o),
(653,720,cs),
(486,720,ls),
(474,720,o),
(467,715,o),
(467,709,cs),
(467,703,o),
(470,699,o),
(484,697,cs),
(500,695,ls),
(535,691,o),
(542,669,o),
(521,632,cs),
(269,176,ls),
(263,165,o),
(251,167,o),
(251,180,cs),
(245,653,ls),
(245,682,o),
(253,693,o),
(279,695,cs),
(302,697,ls),
(316,698,o),
(325,702,o),
(325,710,cs),
(325,716,o),
(321,720,o),
(310,720,cs),
(121,720,ls),
(108,720,o),
(101,716,o),
(101,709,cs),
(101,703,o),
(106,699,o),
(115,697,cs),
(130,694,ls),
(159,688,o),
(166,677,o),
(167,640,cs),
(179,6,ls),
(179,-7,o),
(186,-10,o),
(193,-10,cs)
);
}
);
width = 527;
}
);
unicode = 86;
},
{
glyphname = W;
kernLeft = W;
kernRight = W;
lastChange = "2022-09-01 20:54:28 +0000";
layers = (
{
anchors = (
{
name = bottom;
pos = (268,0);
},
{
name = top;
pos = (444,720);
}
);
background = {
shapes = (
{
closed = 1;
nodes = (
(434,-10,o),
(440,-7,o),
(447,6,cs),
(792,631,ls),
(822,685,o),
(834,694,o),
(856,696,cs),
(868,697,ls),
(884,698,o),
(891,702,o),
(891,709,cs),
(891,716,o),
(885,720,o),
(875,720,cs),
(745,720,ls),
(733,720,o),
(726,716,o),
(726,709,cs),
(726,703,o),
(730,699,o),
(741,697,cs),
(752,695,ls),
(779,690,o),
(777,670,o),
(757,632,cs),
(494,157,l),
(486,157,l),
(481,653,ls),
(481,682,o),
(486,692,o),
(506,695,cs),
(520,697,ls),
(534,699,o),
(540,703,o),
(540,710,cs),
(540,716,o),
(536,720,o),
(526,720,cs),
(371,720,ls),
(358,720,o),
(351,715,o),
(351,708,cs),
(351,702,o),
(355,699,o),
(366,697,cs),
(381,694,ls),
(398,691,o),
(401,677,o),
(402,640,cs),
(415,6,ls),
(415,-7,o),
(421,-10,o),
(428,-10,cs)
);
},
{
closed = 1;
nodes = (
(453,477,l),
(256,151,l),
(251,151,l),
(244,653,ls),
(244,682,o),
(259,691,o),
(285,695,cs),
(299,697,ls),
(310,699,o),
(320,703,o),
(320,710,cs),
(320,716,o),
(315,720,o),
(305,720,cs),
(121,720,ls),
(110,720,o),
(101,717,o),
(101,709,cs),
(101,703,o),
(106,699,o),
(115,697,cs),
(130,694,ls),
(159,688,o),
(166,677,o),
(167,640,cs),
(179,6,ls),
(179,-7,o),
(186,-10,o),
(193,-10,cs),
(199,-10,o),
(205,-7,o),
(213,6,cs),
(462,432,l)
);
},
{
closed = 1;
nodes = (
(465,395,l),
(606,631,ls),
(632,676,o),
(647,694,o),
(669,696,cs),
(682,697,ls),
(697,698,o),
(705,702,o),
(705,710,cs),
(705,716,o),
(700,720,o),
(687,720,cs),
(578,720,ls),
(566,720,o),
(559,716,o),
(559,709,cs),
(559,703,o),
(564,699,o),
(574,697,cs),
(585,695,ls),
(599,693,o),
(603,682,o),
(573,632,cs),
(457,440,l)
);
}
);
};
layerId = m002;
shapes = (
{
closed = 1;
nodes = (
(434,-10,o),
(440,-7,o),
(447,6,cs),
(792,631,ls),
(822,685,o),
(834,694,o),
(856,696,cs),
(868,697,ls),
(884,698,o),
(891,702,o),
(891,709,cs),
(891,716,o),
(885,720,o),
(875,720,cs),
(745,720,ls),
(733,720,o),
(726,716,o),
(726,709,cs),
(726,703,o),
(730,699,o),
(741,697,cs),
(752,695,ls),
(779,690,o),
(777,670,o),
(757,632,cs),
(505,176,ls),
(499,165,o),
(486,166,o),
(486,178,cs),
(484,344,ls),
(483,404,o),
(496,445,o),
(527,498,cs),
(606,631,ls),
(632,676,o),
(647,694,o),
(669,696,cs),
(682,697,ls),
(697,698,o),
(705,702,o),
(705,710,cs),
(705,716,o),
(700,720,o),
(687,720,cs),
(578,720,ls),
(566,720,o),
(559,716,o),
(559,709,cs),
(559,703,o),
(564,699,o),
(574,697,cs),
(585,695,ls),
(599,693,o),
(603,682,o),
(573,632,cs),
(501,514,ls),
(494,502,o),
(483,504,o),
(483,518,cs),
(481,653,ls),
(481,682,o),
(486,692,o),
(506,695,cs),
(520,697,ls),
(534,699,o),
(540,703,o),
(540,710,cs),
(540,716,o),
(536,720,o),
(526,720,cs),
(371,720,ls),
(358,720,o),
(351,715,o),
(351,708,cs),
(351,702,o),
(355,699,o),
(366,697,cs),
(381,694,ls),
(398,691,o),
(401,677,o),
(402,640,cs),
(406,483,ls),
(407,423,o),
(394,381,o),
(363,329,cs),
(269,172,ls),
(262,160,o),
(251,162,o),
(251,174,cs),
(244,653,ls),
(244,682,o),
(259,691,o),
(285,695,cs),
(299,697,ls),
(310,699,o),
(320,703,o),
(320,710,cs),
(320,716,o),
(315,720,o),
(305,720,cs),
(121,720,ls),
(110,720,o),
(101,717,o),
(101,709,cs),
(101,703,o),
(106,699,o),
(115,697,cs),
(130,694,ls),
(159,688,o),
(166,677,o),
(167,640,cs),
(179,6,ls),
(179,-7,o),
(186,-10,o),
(193,-10,cs),
(199,-10,o),
(205,-7,o),
(213,6,cs),
(390,308,ls),
(398,321,o),
(409,318,o),
(409,304,cs),
(415,6,ls),
(415,-7,o),
(421,-10,o),
(428,-10,cs)
);
}
);
width = 751;
}
);
unicode = 87;
},
{
glyphname = X;
lastChange = "2022-09-01 20:54:34 +0000";
layers = (
{
background = {
shapes = (
{
closed = 1;
nodes = (
(518,0,ls),
(532,0,o),
(540,4,o),
(540,12,cs),
(540,18,o),
(536,23,o),
(526,24,cs),
(504,27,ls),
(486,29,o),
(469,35,o),
(461,67,cs),
(315,653,ls),
(308,679,o),
(322,690,o),
(350,694,cs),
(373,697,ls),
(385,699,o),
(393,703,o),
(396,710,cs),
(397,716,o),
(391,720,o),
(377,720,cs),
(178,720,ls),
(166,720,o),
(158,716,o),
(156,710,cs),
(154,703,o),
(159,699,o),
(171,697,cs),
(192,694,ls),
(212,691,o),
(228,683,o),
(235,653,cs),
(381,67,ls),
(386,42,o),
(371,31,o),
(344,27,cs),
(321,24,ls),
(306,22,o),
(299,18,o),
(299,11,cs),
(299,5,o),
(305,0,o),
(316,0,cs)
);
},
{
closed = 1;
nodes = (
(168,0,ls),
(183,0,o),
(190,5,o),
(190,12,cs),
(190,18,o),
(185,22,o),
(175,24,cs),
(144,30,ls),
(116,35,o),
(118,47,o),
(140,77,cs),
(314,312,l),
(336,312,l),
(300,392,l),
(307,361,o),
(301,347,o),
(288,329,cs),
(109,91,ls),
(79,51,o),
(49,36,o),
(-2,28,cs),
(-18,25,ls),
(-30,23,o),
(-36,18,o),
(-36,11,cs),
(-36,6,o),
(-33,0,o),
(-21,0,cs)
);
},
{
closed = 1;
nodes = (
(384,375,o),
(390,389,o),
(404,407,cs),
(572,629,ls),
(601,669,o),
(631,685,o),
(672,692,cs),
(690,695,ls),
(704,697,o),
(710,702,o),
(711,708,cs),
(713,714,o),
(710,720,o),
(693,720,cs),
(515,720,ls),
(500,720,o),
(493,716,o),
(492,710,cs),
(490,703,o),
(494,699,o),
(508,696,cs),
(538,690,ls),
(566,684,o),
(564,672,o),
(542,643,cs),
(377,424,l),
(355,424,l),
(392,344,l)
);
}
);
};
layerId = m002;
shapes = (
{
closed = 1;
nodes = (
(168,0,ls),
(183,0,o),
(190,5,o),
(190,12,cs),
(190,18,o),
(185,22,o),
(175,24,cs),
(144,30,ls),
(116,35,o),
(118,47,o),
(140,77,cs),
(307,303,ls),
(313,310,o),
(320,309,o),
(322,301,cs),
(381,67,ls),
(386,42,o),
(371,31,o),
(344,27,cs),
(321,24,ls),
(306,22,o),
(299,18,o),
(299,11,cs),
(299,5,o),
(305,0,o),
(316,0,cs),
(518,0,ls),
(532,0,o),
(540,4,o),
(540,12,cs),
(540,18,o),
(536,23,o),
(526,24,cs),
(504,27,ls),
(486,29,o),
(469,35,o),
(461,67,cs),
(392,344,ls),
(384,375,o),
(390,389,o),
(404,407,cs),
(572,629,ls),
(601,669,o),
(631,685,o),
(672,692,cs),
(690,695,ls),
(704,697,o),
(710,702,o),
(711,708,cs),
(713,714,o),
(710,720,o),
(693,720,cs),
(515,720,ls),
(500,720,o),
(493,716,o),
(492,710,cs),
(490,703,o),
(494,699,o),
(508,696,cs),
(538,690,ls),
(566,684,o),
(564,672,o),
(542,643,cs),
(384,434,ls),
(378,427,o),
(371,429,o),
(370,435,cs),
(315,653,ls),
(308,679,o),
(322,690,o),
(350,694,cs),
(373,697,ls),
(385,699,o),
(393,703,o),
(396,710,cs),
(397,716,o),
(391,720,o),
(377,720,cs),
(178,720,ls),
(166,720,o),
(158,716,o),
(156,710,cs),
(154,703,o),
(159,699,o),
(171,697,cs),
(192,694,ls),
(212,691,o),
(228,683,o),
(235,653,cs),
(301,383,ls),
(307,358,o),
(300,345,o),
(288,329,cs),
(109,91,ls),
(79,51,o),
(49,36,o),
(-2,28,cs),
(-18,25,ls),
(-30,23,o),
(-36,18,o),
(-36,11,cs),
(-36,6,o),
(-33,0,o),
(-21,0,cs)
);
}
);
width = 627;
}
);
unicode = 88;
},
{
glyphname = Y;
kernLeft = Y;
kernRight = Y;
lastChange = "2022-09-01 21:02:35 +0000";
layers = (
{
anchors = (
{
name = bottom;
pos = (180,0);
},
{
name = top;
pos = (356,720);
},
{
name = topleft;
pos = (127,720);
}
);
background = {
shapes = (
{
closed = 1;
nodes = (
(338,0,ls),
(352,0,o),
(359,5,o),
(359,12,cs),
(359,18,o),
(354,21,o),
(342,23,cs),
(297,30,ls),
(268,35,o),
(260,41,o),
(267,69,cs),
(331,313,ls),
(337,334,o),
(346,349,o),
(362,368,cs),
(583,631,ls),
(620,675,o),
(637,692,o),
(659,695,cs),
(672,697,ls),
(684,699,o),
(691,704,o),
(691,711,cs),
(691,717,o),
(685,720,o),
(675,720,cs),
(509,720,ls),
(498,720,o),
(491,716,o),
(491,709,cs),
(491,703,o),
(497,698,o),
(507,697,cs),
(531,694,ls),
(566,690,o),
(570,666,o),
(542,632,cs),
(329,376,l),
(321,376,l),
(245,653,ls),
(237,681,o),
(253,693,o),
(279,695,cs),
(302,697,ls),
(319,698,o),
(325,703,o),
(325,710,cs),
(325,716,o),
(321,720,o),
(310,720,cs),
(121,720,ls),
(109,720,o),
(100,717,o),
(100,709,cs),
(100,703,o),
(105,699,o),
(114,697,cs),
(123,695,ls),
(147,690,o),
(155,678,o),
(161,656,cs),
(248,348,ls),
(253,333,o),
(254,321,o),
(250,305,cs),
(187,69,ls),
(181,41,o),
(168,34,o),
(137,30,cs),
(83,23,ls),
(72,22,o),
(66,17,o),
(66,10,cs),
(66,4,o),
(70,0,o),
(82,0,cs)
);
}
);
};
layerId = m002;
shapes = (
{
closed = 1;
nodes = (
(338,0,ls),
(352,0,o),
(359,5,o),
(359,12,cs),
(359,18,o),
(354,21,o),
(342,23,cs),
(297,30,ls),
(268,35,o),
(260,41,o),
(267,69,cs),
(331,313,ls),
(337,334,o),
(346,349,o),
(362,368,cs),
(583,631,ls),
(620,675,o),
(637,692,o),
(659,695,cs),
(672,697,ls),
(684,699,o),
(691,704,o),
(691,711,cs),
(691,717,o),
(685,720,o),
(675,720,cs),
(509,720,ls),
(498,720,o),
(491,716,o),
(491,709,cs),
(491,703,o),
(497,698,o),
(507,697,cs),
(531,694,ls),
(566,690,o),
(570,666,o),
(542,632,cs),
(338,387,ls),
(330,377,o),
(320,379,o),
(317,388,cs),
(245,653,ls),
(237,681,o),
(253,693,o),
(279,695,cs),
(302,697,ls),
(319,698,o),
(325,703,o),
(325,710,cs),
(325,716,o),
(321,720,o),
(310,720,cs),
(121,720,ls),
(109,720,o),
(100,717,o),
(100,709,cs),
(100,703,o),
(105,699,o),
(114,697,cs),
(123,695,ls),
(147,690,o),
(155,678,o),
(161,656,cs),
(248,348,ls),
(253,333,o),
(254,321,o),
(250,305,cs),
(187,69,ls),
(181,41,o),
(168,34,o),
(137,30,cs),
(83,23,ls),
(72,22,o),
(66,17,o),
(66,10,cs),
(66,4,o),
(70,0,o),
(82,0,cs)
);
}
);
width = 550;
}
);
unicode = 89;
},
{
glyphname = Z;
kernLeft = Z;
kernRight = Z;
lastChange = "2022-08-31 20:25:35 +0000";
layers = (
{
anchors = (
{
name = bottom;
pos = (155,0);
},
{
name = center;
pos = (238,360);
},
{
name = top;
pos = (321,720);
}
);
background = {
shapes = (
{
closed = 1;
nodes = (
(351,0,ls),
(368,0,o),
(381,8,o),
(385,23,cs),
(450,211,ls),
(453,222,o),
(446,228,o),
(438,228,cs),
(429,228,o),
(424,223,o),
(420,215,cs),
(373,128,ls),
(328,45,o),
(282,30,o),
(215,30,cs),
(55,30,l),
(56,35,l),
(569,691,ls),
(583,709,o),
(576,720,o),
(554,720,cs),
(300,720,ls),
(229,720,o),
(232,740,o),
(214,740,cs),
(200,740,o),
(194,732,o),
(189,717,cs),
(118,531,ls),
(114,520,o),
(121,514,o),
(130,514,cs),
(139,514,o),
(144,519,o),
(148,527,cs),
(178,577,ls),
(232,667,o),
(286,690,o),
(344,690,cs),
(477,690,l),
(476,685,l),
(-31,29,ls),
(-43,11,o),
(-38,0,o),
(-19,0,cs)
);
}
);
};
layerId = m002;
shapes = (
{
closed = 1;
nodes = (
(351,0,ls),
(368,0,o),
(381,8,o),
(385,23,cs),
(450,211,ls),
(453,222,o),
(446,228,o),
(438,228,cs),
(429,228,o),
(424,223,o),
(420,215,cs),
(373,128,ls),
(330,48,o),
(270,30,o),
(204,30,cs),
(77,30,ls),
(64,30,o),
(59,37,o),
(67,47,cs),
(569,691,ls),
(583,709,o),
(576,720,o),
(554,720,cs),
(300,720,ls),
(229,720,o),
(232,740,o),
(214,740,cs),
(200,740,o),
(194,732,o),
(189,717,cs),
(118,531,ls),
(114,520,o),
(121,514,o),
(130,514,cs),
(139,514,o),
(144,519,o),
(148,527,cs),
(178,577,ls),
(232,667,o),
(286,690,o),
(355,690,cs),
(459,690,ls),
(470,690,o),
(475,683,o),
(467,673,cs),
(-31,29,ls),
(-43,11,o),
(-38,0,o),
(-19,0,cs)
);
}
);
width = 491;
}
);
unicode = 90;
},
{
glyphname = a;
kernLeft = a;
kernRight = a;
lastChange = "2022-09-01 20:17:48 +0000";
layers = (
{
anchors = (
{
name = bottom;
pos = (178,0);
},
{
name = ogonek;
pos = (363,0);
},
{
name = top;
pos = (296,510);
}
);
background = {
shapes = (
{
closed = 1;
nodes = (
(162,-9,o),
(222,36,o),
(284,135,cs),
(319,190,l),
(354,190,l),
(424,471,l),
(416,471,l),
(401,500,o),
(373,516,o),
(334,516,cs),
(184,516,o),
(15,303,o),
(15,113,cs),
(15,33,o),
(47,-9,o),
(103,-9,cs)
);
},
{
closed = 1;
nodes = (
(109,42,o),
(93,55,o),
(93,102,cs),
(93,275,o),
(229,491,o),
(330,491,cs),
(361,491,o),
(379,469,o),
(379,430,cs),
(379,318,o),
(223,42,o),
(131,42,cs)
);
},
{
closed = 1;
nodes = (
(521,177,o),
(519,186,o),
(508,186,cs),
(500,186,o),
(496,182,o),
(493,175,cs),
(465,88,o),
(438,48,o),
(402,48,cs),
(374,48,o),
(368,71,o),
(379,113,cs),
(482,496,ls),
(484,505,o),
(478,510,o),
(470,510,cs),
(461,510,o),
(454,506,o),
(445,496,cs),
(389,433,l),
(304,114,ls),
(283,38,o),
(312,-9,o),
(371,-9,cs),
(440,-9,o),
(489,41,o),
(519,166,cs)
);
}
);
};
guides = (
{
angle = -26.565;
pos = (205,61);
showMeasurement = 1;
}
);
layerId = m002;
shapes = (
{
closed = 1;
nodes = (
(161,-9,o),
(222,37,o),
(307,172,cs),
(312,180,o),
(321,178,o),
(319,169,cs),
(304,114,ls),
(283,38,o),
(312,-9,o),
(371,-9,cs),
(440,-9,o),
(489,41,o),
(519,166,cs),
(521,177,o),
(519,186,o),
(508,186,cs),
(500,186,o),
(496,182,o),
(493,175,cs),
(465,88,o),
(438,48,o),
(402,48,cs),
(374,48,o),
(368,71,o),
(379,113,cs),
(482,496,ls),
(484,505,o),
(478,510,o),
(470,510,cs),
(461,510,o),
(452,506,o),
(435,485,cs),
(430,479,o),
(427,476,o),
(421,476,cs),
(415,476,o),
(412,479,o),
(407,485,cs),
(390,506,o),
(362,516,o),
(334,516,cs),
(184,516,o),
(15,303,o),
(15,113,cs),
(15,33,o),
(47,-9,o),
(102,-9,cs)
);
},
{
closed = 1;
nodes = (
(107,42,o),
(93,55,o),
(93,102,cs),
(93,275,o),
(229,491,o),
(330,491,cs),
(361,491,o),
(379,469,o),
(379,430,cs),
(379,318,o),
(223,42,o),
(131,42,cs)
);
}
);
width = 545;
}
);
unicode = 97;
},
{
glyphname = ae;
kernLeft = a;
kernRight = e;
lastChange = "2022-08-23 19:55:07 +0000";
layers = (
{
layerId = m002;
shapes = (
{
closed = 1;
nodes = (
(163,-9,o),
(228,37,o),
(313,172,cs),
(355,239,o),
(366,251,o),
(416,250,c),
(482,496,ls),
(484,505,o),
(478,510,o),
(470,510,cs),
(461,510,o),
(452,506,o),
(435,485,cs),
(430,479,o),
(427,476,o),
(421,476,cs),
(415,476,o),
(412,479,o),
(407,485,cs),
(390,506,o),
(362,516,o),
(334,516,cs),
(184,516,o),
(15,303,o),
(15,113,cs),
(15,33,o),
(49,-9,o),
(105,-9,cs)
);
},
{
closed = 1;
nodes = (
(107,42,o),
(93,55,o),
(93,102,cs),
(93,275,o),
(229,491,o),
(330,491,cs),
(361,491,o),
(379,469,o),
(379,430,cs),
(379,318,o),
(223,42,o),
(131,42,cs)
);
},
{
closed = 1;
nodes = (
(542,-9,o),
(613,51,o),
(662,169,cs),
(666,178,o),
(664,186,o),
(654,186,cs),
(647,186,o),
(643,183,o),
(641,177,cs),
(604,91,o),
(545,43,o),
(488,43,cs),
(436,43,o),
(404,82,o),
(404,158,cs),
(404,167,o),
(404,177,o),
(405,187,cs),
(406,201,o),
(415,209,o),
(431,212,cs),
(605,246,o),
(721,342,o),
(721,433,cs),
(721,484,o),
(691,516,o),
(620,516,cs),
(486,516,o),
(324,327,o),
(324,150,cs),
(324,48,o),
(377,-9,o),
(459,-9,cs)
);
},
{
closed = 1;
nodes = (
(451,376,o),
(544,491,o),
(612,491,cs),
(638,491,o),
(650,477,o),
(650,449,cs),
(650,367,o),
(575,269,o),
(432,236,cs),
(421,233,o),
(413,240,o),
(416,250,cs)
);
}
);
width = 711;
}
);
metricRight = e;
unicode = 230;
},
{
glyphname = b;
kernRight = o;
lastChange = "2022-09-01 20:59:06 +0000";
layers = (
{
background = {
shapes = (
{
closed = 1;
nodes = (
(306,-9,o),
(481,204,o),
(481,394,cs),
(481,474,o),
(445,516,o),
(389,516,cs),
(330,516,o),
(273,472,o),
(210,376,cs),
(182,332,ls),
(177,324,o),
(168,326,o),
(170,335,cs),
(275,728,ls),
(277,738,o),
(273,743,o),
(264,743,cs),
(258,743,o),
(253,741,o),
(247,737,cs),
(221,718,o),
(177,708,o),
(122,700,cs),
(113,699,o),
(107,695,o),
(106,689,cs),
(105,682,o),
(109,677,o),
(121,676,cs),
(155,673,ls),
(177,671,o),
(183,664,o),
(176,640,cs),
(47,159,ls),
(17,47,o),
(78,-9,o),
(156,-9,cs)
);
},
{
closed = 1;
nodes = (
(129,16,o),
(110,38,o),
(110,77,cs),
(110,207,o),
(275,464,o),
(359,464,cs),
(390,464,o),
(400,445,o),
(400,395,cs),
(400,232,o),
(261,16,o),
(160,16,cs)
);
}
);
};
guides = (
{
angle = 90;
pos = (370,382);
}
);
layerId = m002;
shapes = (
{
closed = 1;
nodes = (
(306,-9,o),
(481,204,o),
(481,394,cs),
(481,474,o),
(445,516,o),
(389,516,cs),
(330,516,o),
(266,472,o),
(182,332,cs),
(177,324,o),
(168,326,o),
(170,335,cs),
(275,728,ls),
(277,738,o),
(273,743,o),
(264,743,cs),
(258,743,o),
(253,741,o),
(247,737,cs),
(221,718,o),
(177,708,o),
(122,700,cs),
(113,699,o),
(107,695,o),
(106,689,cs),
(105,682,o),
(109,677,o),
(121,676,cs),
(155,673,ls),
(177,671,o),
(183,664,o),
(176,640,cs),
(47,159,ls),
(17,47,o),
(78,-9,o),
(156,-9,cs)
);
},
{
closed = 1;
nodes = (
(129,16,o),
(110,38,o),
(110,77,cs),
(110,207,o),
(275,464,o),
(359,464,cs),
(390,464,o),
(400,445,o),
(400,395,cs),
(400,232,o),
(261,16,o),
(160,16,cs)
);
}
);
width = 496;
}
);
unicode = 98;
},
{
glyphname = c;
kernLeft = o;
kernRight = c;
lastChange = "2022-09-01 20:18:01 +0000";
layers = (
{
anchors = (
{
name = bottom;
pos = (131,0);
},
{
name = top;
pos = (265,510);
}
);
background = {
shapes = (
{
closed = 1;
nodes = (
(254,-9,o),
(338,70,o),
(362,179,cs),
(367,196,o),
(366,201,o),
(356,201,cs),
(348,201,o),
(343,198,o),
(340,191,cs),
(299,90,o),
(252,43,o),
(192,43,cs),
(130,43,o),
(98,87,o),
(98,169,cs),
(98,323,o),
(200,491,o),
(294,491,cs),
(334,491,o),
(345,468,o),
(345,384,cs),
(345,343,ls),
(345,333,o),
(350,329,o),
(359,329,cs),
(366,329,o),
(370,333,o),
(373,342,cs),
(404,473,ls),
(406,483,o),
(405,485,o),
(398,490,cs),
(371,508,o),
(344,516,o),
(305,516,cs),
(166,516,o),
(17,332,o),
(17,153,cs),
(17,58,o),
(78,-9,o),
(163,-9,cs)
);
}
);
};
guides = (
{
angle = 78.25;
pos = (337,405);
}
);
layerId = m002;
shapes = (
{
closed = 1;
nodes = (
(254,-9,o),
(338,70,o),
(362,179,cs),
(367,196,o),
(366,201,o),
(356,201,cs),
(348,201,o),
(343,198,o),
(340,191,cs),
(299,90,o),
(252,43,o),
(192,43,cs),
(130,43,o),
(98,87,o),
(98,169,cs),
(98,323,o),
(199,488,o),
(286,488,cs),
(317,488,o),
(332,475,o),
(337,414,cs),
(343,343,ls),
(344,333,o),
(348,328,o),
(358,328,cs),
(365,328,o),
(370,333,o),
(373,342,cs),
(404,473,ls),
(406,483,o),
(405,485,o),
(398,490,cs),
(371,508,o),
(344,516,o),
(305,516,cs),
(166,516,o),
(17,332,o),
(17,153,cs),
(17,58,o),
(78,-9,o),
(163,-9,cs)
);
}
);
width = 404;
}
);
unicode = 99;
},
{
glyphname = d;
kernLeft = o;
kernRight = d;
lastChange = "2022-09-01 20:59:12 +0000";
layers = (
{
anchors = (
{
name = bottom;
pos = (178,0);
},
{
name = center;
pos = (237,255);
},
{
name = top;
pos = (349,740);
},
{
name = topright;
pos = (501,740);
}
);
background = {
shapes = (
{
closed = 1;
nodes = (
(162,-9,o),
(222,36,o),
(284,135,cs),
(313,181,l),
(348,181,l),
(424,471,l),
(416,471,l),
(401,500,o),
(373,516,o),
(334,516,cs),
(184,516,o),
(15,303,o),
(15,113,cs),
(15,33,o),
(47,-9,o),
(103,-9,cs)
);
},
{
closed = 1;
nodes = (
(109,42,o),
(93,55,o),
(93,102,cs),
(93,275,o),
(229,491,o),
(330,491,cs),
(361,491,o),
(379,469,o),
(379,430,cs),
(379,318,o),
(223,42,o),
(131,42,cs)
);
},
{
closed = 1;
nodes = (
(300,114,ls),
(279,38,o),
(308,-9,o),
(368,-9,cs),
(437,-9,o),
(489,41,o),
(519,166,cs),
(521,177,o),
(519,186,o),
(508,186,cs),
(500,186,o),
(496,182,o),
(493,175,cs),
(465,88,o),
(438,48,o),
(402,48,cs),
(374,48,o),
(368,71,o),
(379,113,cs),
(543,728,ls),
(545,738,o),
(540,743,o),
(532,743,cs),
(526,743,o),
(521,741,o),
(515,737,cs),
(489,718,o),
(445,708,o),
(390,700,cs),
(381,699,o),
(375,695,o),
(374,689,cs),
(373,682,o),
(377,677,o),
(389,676,cs),
(423,673,ls),
(445,671,o),
(451,664,o),
(444,640,cs)
);
}
);
};
layerId = m002;
shapes = (
{
closed = 1;
nodes = (
(162,-9,o),
(228,38,o),
(301,163,cs),
(306,171,o),
(315,169,o),
(313,160,cs),
(300,114,ls),
(279,38,o),
(308,-9,o),
(368,-9,cs),
(437,-9,o),
(489,41,o),
(519,166,cs),
(521,177,o),
(519,186,o),
(508,186,cs),
(500,186,o),
(496,182,o),
(493,175,cs),
(465,88,o),
(438,48,o),
(402,48,cs),
(374,48,o),
(368,71,o),
(379,113,cs),
(543,728,ls),
(545,738,o),
(540,743,o),
(532,743,cs),
(526,743,o),
(521,741,o),
(515,737,cs),
(489,718,o),
(445,708,o),
(390,700,cs),
(381,699,o),
(375,695,o),
(374,689,cs),
(373,682,o),
(377,677,o),
(389,676,cs),
(423,673,ls),
(445,671,o),
(451,664,o),
(444,640,cs),
(407,508,ls),
(405,498,o),
(398,496,o),
(388,502,cs),
(373,511,o),
(355,516,o),
(334,516,cs),
(184,516,o),
(15,303,o),
(15,113,cs),
(15,33,o),
(47,-9,o),
(103,-9,cs)
);
},
{
closed = 1;
nodes = (
(109,42,o),
(93,55,o),
(93,102,cs),
(93,275,o),
(229,491,o),
(330,491,cs),
(361,491,o),
(379,469,o),
(379,430,cs),
(379,318,o),
(223,42,o),
(131,42,cs)
);
}
);
width = 545;
}
);
unicode = 100;
},
{
glyphname = eth;
kernLeft = o;
kernRight = o;
lastChange = "2022-08-23 19:55:36 +0000";
layers = (
{
background = {
shapes = (
{
closed = 1;
nodes = (
(273,-9,o),
(381,100,o),
(423,261,cs),
(482,480,o),
(382,688,o),
(195,729,cs),
(182,732,o),
(172,725,o),
(171,717,cs),
(169,710,o),
(172,706,o),
(181,704,cs),
(305,665,o),
(363,580,o),
(366,442,cs),
(367,432,o),
(359,429,o),
(351,434,cs),
(331,449,o),
(304,456,o),
(273,456,cs),
(164,456,o),
(59,360,o),
(24,229,cs),
(-9,98,o),
(48,-9,o),
(156,-9,cs)
);
},
{
closed = 1;
nodes = (
(87,18,o),
(68,84,o),
(106,224,cs),
(143,366,o),
(195,431,o),
(271,431,cs),
(352,431,o),
(374,358,o),
(336,218,cs),
(300,84,o),
(244,18,o),
(166,18,cs)
);
}
);
};
layerId = m002;
shapes = (
{
closed = 1;
nodes = (
(354,-9,o),
(438,214,o),
(438,359,cs),
(438,532,o),
(346,698,o),
(199,750,cs),
(184,755,o),
(175,749,o),
(175,738,cs),
(175,733,o),
(178,730,o),
(184,727,cs),
(307,672,o),
(366,568,o),
(366,425,cs),
(366,417,o),
(358,415,o),
(351,421,cs),
(327,443,o),
(297,454,o),
(258,454,cs),
(116,454,o),
(22,293,o),
(22,178,cs),
(22,72,o),
(85,-9,o),
(183,-9,cs)
);
},
{
closed = 1;
nodes = (
(122,17,o),
(93,67,o),
(93,141,cs),
(93,226,o),
(140,429,o),
(259,429,cs),
(324,429,o),
(354,372,o),
(354,305,cs),
(354,200,o),
(307,17,o),
(185,17,cs)
);
}
);
width = 467;
}
);
unicode = 240;
},
{
glyphname = dcroat;
kernLeft = o;
kernRight = d;
lastChange = "2022-08-23 19:55:32 +0000";
layers = (
{
layerId = m002;
shapes = (
{
ref = d;
},
{
closed = 1;
nodes = (
(568,578,ls),
(575,578,o),
(581,582,o),
(583,588,cs),
(585,596,ls),
(586,602,o),
(583,606,o),
(576,606,cs),
(260,606,ls),
(253,606,o),
(247,602,o),
(246,596,cs),
(244,588,ls),
(241,582,o),
(245,578,o),
(252,578,cs)
);
}
);
width = 545;
}
);
unicode = 273;
},
{
glyphname = e;
kernLeft = o;
kernRight = e;
lastChange = "2022-09-01 20:18:09 +0000";
layers = (
{
anchors = (
{
name = bottom;
pos = (115,0);
},
{
name = ogonek;
pos = (175,0);
},
{
name = top;
pos = (273,510);
}
);
background = {
shapes = (
{
closed = 1;
nodes = (
(231,-9,o),
(302,51,o),
(352,169,cs),
(355,178,o),
(353,186,o),
(344,186,cs),
(337,186,o),
(332,183,o),
(330,177,cs),
(293,91,o),
(235,43,o),
(177,43,cs),
(125,43,o),
(93,82,o),
(93,158,cs),
(93,313,o),
(216,491,o),
(301,491,cs),
(328,491,o),
(339,477,o),
(339,449,cs),
(339,360,o),
(251,253,o),
(86,230,c),
(86,206,l),
(279,233,o),
(411,336,o),
(411,433,cs),
(411,484,o),
(381,516,o),
(309,516,cs),
(176,516,o),
(14,327,o),
(14,150,cs),
(14,48,o),
(67,-9,o),
(148,-9,cs)
);
}
);
};
layerId = m002;
shapes = (
{
closed = 1;
nodes = (
(231,-9,o),
(302,51,o),
(352,169,cs),
(355,178,o),
(353,186,o),
(344,186,cs),
(337,186,o),
(332,183,o),
(330,177,cs),
(293,91,o),
(235,43,o),
(177,43,cs),
(125,43,o),
(93,82,o),
(93,158,cs),
(93,167,o),
(93,177,o),
(94,187,cs),
(95,201,o),
(105,209,o),
(121,212,cs),
(294,246,o),
(411,342,o),
(411,433,cs),
(411,484,o),
(381,516,o),
(309,516,cs),
(176,516,o),
(14,327,o),
(14,150,cs),
(14,48,o),
(67,-9,o),
(148,-9,cs)
);
},
{
closed = 1;
nodes = (
(140,376,o),
(233,491,o),
(301,491,cs),
(328,491,o),
(339,477,o),
(339,449,cs),
(339,367,o),
(264,269,o),
(122,236,cs),
(110,233,o),
(102,240,o),
(106,250,cs)
);
}
);
width = 400;
}
);
unicode = 101;
},
{
glyphname = f;
kernLeft = f;
lastChange = "2022-09-01 20:59:24 +0000";
layers = (
{
background = {
shapes = (
{
closed = 1;
nodes = (
(74,0,ls),
(90,0,o),
(100,7,o),
(103,21,cs),
(224,472,ls),
(227,479,o),
(231,482,o),
(239,482,cs),
(339,482,ls),
(350,482,o),
(358,487,o),
(360,496,cs),
(362,504,o),
(355,510,o),
(343,510,cs),
(251,510,ls),
(241,510,o),
(236,514,o),
(238,523,cs),
(261,610,ls),
(283,692,o),
(308,717,o),
(344,717,cs),
(400,717,o),
(354,637,o),
(419,637,cs),
(445,637,o),
(465,656,o),
(465,686,cs),
(465,725,o),
(429,748,o),
(375,748,cs),
(275,748,o),
(198,663,o),
(169,550,cs),
(161,518,o),
(139,510,o),
(92,510,cs),
(80,510,o),
(71,505,o),
(71,496,cs),
(71,488,o),
(77,482,o),
(90,482,cs),
(114,482,ls),
(139,482,o),
(148,471,o),
(141,445,cs),
(29,27,ls),
(24,11,o),
(33,0,o),
(53,0,cs)
);
}
);
};
guides = (
{
pos = (244,748);
}
);
layerId = m002;
shapes = (
{
closed = 1;
nodes = (
(85,0,ls),
(94,0,o),
(99,3,o),
(101,11,cs),
(224,472,ls),
(227,479,o),
(231,482,o),
(239,482,cs),
(339,482,ls),
(350,482,o),
(358,487,o),
(360,496,cs),
(362,504,o),
(355,510,o),
(343,510,cs),
(251,510,ls),
(241,510,o),
(236,514,o),
(238,523,cs),
(261,610,ls),
(283,692,o),
(308,717,o),
(344,717,cs),
(400,717,o),
(354,637,o),
(419,637,cs),
(445,637,o),
(465,656,o),
(465,686,cs),
(465,725,o),
(429,748,o),
(375,748,cs),
(275,748,o),
(198,663,o),
(169,550,cs),
(161,518,o),
(139,510,o),
(92,510,cs),
(80,510,o),
(71,505,o),
(71,496,cs),
(71,488,o),
(77,482,o),
(90,482,cs),
(114,482,ls),
(139,482,o),
(148,471,o),
(141,445,cs),
(25,13,ls),
(23,4,o),
(26,0,o),
(37,0,cs)
);
}
);
width = 314;
}
);
unicode = 102;
},
{
glyphname = g;
kernLeft = g;
kernRight = g;
lastChange = "2022-09-01 20:59:30 +0000";
layers = (
{
anchors = (
{
name = bottom;
pos = (95,-205);
},
{
name = top;
pos = (260,510);
}
);
background = {
shapes = (
{
closed = 1;
nodes = (
(248,-216,o),
(370,-157,o),
(370,-56,cs),
(370,-4,o),
(338,40,o),
(236,70,cs),
(148,96,o),
(139,103,o),
(139,118,cs),
(139,130,o),
(153,142,o),
(222,172,cs),
(288,200,ls),
(366,234,o),
(429,308,o),
(429,389,cs),
(429,425,o),
(417,455,o),
(397,477,c),
(397,482,l),
(494,482,ls),
(508,482,o),
(518,487,o),
(518,496,cs),
(518,505,o),
(512,510,o),
(498,510,cs),
(365,510,ls),
(336,510,o),
(322,516,o),
(294,516,cs),
(181,516,o),
(75,418,o),
(75,311,cs),
(75,243,o),
(118,195,o),
(185,186,c),
(185,182,l),
(139,161,ls),
(85,136,o),
(66,118,o),
(66,90,cs),
(66,73,o),
(72,60,o),
(103,45,c),
(103,40,l),
(67,26,ls),
(-29,-12,o),
(-68,-59,o),
(-68,-111,cs),
(-68,-172,o),
(-13,-216,o),
(107,-216,cs)
);
},
{
closed = 1;
nodes = (
(30,-191,o),
(-6,-151,o),
(-6,-98,cs),
(-6,-56,o),
(14,-12,o),
(143,29,c),
(199,11,ls),
(269,-11,o),
(292,-36,o),
(292,-76,cs),
(292,-153,o),
(208,-191,o),
(120,-191,cs)
);
},
{
closed = 1;
nodes = (
(174,206,o),
(152,235,o),
(152,293,cs),
(152,394,o),
(218,495,o),
(291,495,cs),
(330,495,o),
(351,465,o),
(351,408,cs),
(351,307,o),
(284,206,o),
(212,206,cs)
);
}
);
};
layerId = m002;
shapes = (
{
closed = 1;
nodes = (
(248,-216,o),
(370,-157,o),
(370,-60,cs),
(370,-8,o),
(342,30,o),
(256,57,cs),
(158,89,ls),
(108,105,o),
(99,125,o),
(122,137,cs),
(168,161,ls),
(201,179,o),
(220,185,o),
(247,190,cs),
(352,209,o),
(429,297,o),
(429,391,cs),
(429,424,o),
(419,455,o),
(399,477,cs),
(390,488,o),
(385,497,o),
(392,509,cs),
(402,526,o),
(416,534,o),
(432,534,cs),
(458,534,o),
(455,514,o),
(486,514,cs),
(512,514,o),
(531,531,o),
(531,557,cs),
(531,582,o),
(513,598,o),
(481,598,cs),
(436,598,o),
(392,567,o),
(367,518,cs),
(362,510,o),
(356,507,o),
(346,510,cs),
(334,514,o),
(317,516,o),
(301,516,cs),
(175,516,o),
(75,418,o),
(75,311,cs),
(75,264,o),
(95,222,o),
(137,201,cs),
(153,193,o),
(152,182,o),
(137,175,cs),
(49,131,ls),
(22,117,o),
(30,79,o),
(74,55,cs),
(90,46,o),
(86,35,o),
(70,27,cs),
(-38,-30,o),
(-68,-72,o),
(-68,-118,cs),
(-68,-172,o),
(-13,-216,o),
(107,-216,cs)
);
},
{
closed = 1;
nodes = (
(30,-191,o),
(-8,-151,o),
(-8,-101,cs),
(-8,-60,o),
(14,-28,o),
(97,12,cs),
(121,23,o),
(150,26,o),
(177,17,cs),
(199,10,ls),
(273,-14,o),
(292,-40,o),
(292,-84,cs),
(292,-151,o),
(208,-191,o),
(120,-191,cs)
);
},
{
closed = 1;
nodes = (
(152,394,o),
(218,495,o),
(291,495,cs),
(330,495,o),
(351,474,o),
(351,408,cs),
(351,307,o),
(284,206,o),
(212,206,cs),
(174,206,o),
(152,232,o),
(152,293,cs)
);
}
);
width = 461;
}
);
unicode = 103;
},
{
glyphname = h;
kernLeft = h;
kernRight = n;
lastChange = "2022-09-01 20:59:43 +0000";
layers = (
{
background = {
shapes = (
{
closed = 1;
nodes = (
(422,-9,o),
(477,29,o),
(521,166,cs),
(524,177,o),
(522,186,o),
(511,186,cs),
(503,186,o),
(498,182,o),
(496,175,cs),
(462,76,o),
(435,48,o),
(404,48,cs),
(379,48,o),
(368,66,o),
(379,104,cs),
(467,394,ls),
(492,476,o),
(461,516,o),
(405,516,cs),
(345,516,o),
(269,460,o),
(202,348,cs),
(161,278,l),
(155,278,l),
(275,728,ls),
(277,738,o),
(273,743,o),
(264,743,cs),
(258,743,o),
(253,741,o),
(247,737,cs),
(221,718,o),
(177,708,o),
(122,700,cs),
(113,699,o),
(107,695,o),
(106,689,cs),
(105,682,o),
(109,677,o),
(121,676,cs),
(155,673,ls),
(177,671,o),
(183,664,o),
(176,640,cs),
(12,27,ls),
(7,11,o),
(16,0,o),
(36,0,cs),
(57,0,ls),
(74,0,o),
(84,7,o),
(87,21,cs),
(141,221,o),
(288,473,o),
(374,473,cs),
(396,473,o),
(411,456,o),
(394,404,cs),
(306,114,ls),
(281,30,o),
(315,-9,o),
(370,-9,cs)
);
}
);
};
guides = (
{
angle = 76.9884;
pos = (153,627);
}
);
layerId = m002;
shapes = (
{
closed = 1;
nodes = (
(422,-9,o),
(477,29,o),
(521,166,cs),
(524,177,o),
(522,186,o),
(511,186,cs),
(503,186,o),
(498,182,o),
(496,175,cs),
(462,76,o),
(435,48,o),
(404,48,cs),
(379,48,o),
(368,66,o),
(379,104,cs),
(467,394,ls),
(492,476,o),
(461,516,o),
(405,516,cs),
(345,516,o),
(266,463,o),
(174,300,cs),
(169,292,o),
(160,294,o),
(162,303,cs),
(275,728,ls),
(277,738,o),
(273,743,o),
(264,743,cs),
(258,743,o),
(253,741,o),
(247,737,cs),
(221,718,o),
(177,708,o),
(122,700,cs),
(113,699,o),
(107,695,o),
(106,689,cs),
(105,682,o),
(109,677,o),
(121,676,cs),
(155,673,ls),
(177,671,o),
(183,664,o),
(176,640,cs),
(8,13,ls),
(6,4,o),
(10,0,o),
(21,0,cs),
(69,0,ls),
(78,0,o),
(83,3,o),
(85,11,cs),
(139,219,o),
(289,473,o),
(374,473,cs),
(396,473,o),
(411,456,o),
(394,404,cs),
(306,114,ls),
(281,30,o),
(315,-9,o),
(370,-9,cs)
);
}
);
width = 547;
}
);
unicode = 104;
},
{
glyphname = hbar;
kernLeft = h;
kernRight = n;
lastChange = "2022-08-23 19:55:55 +0000";
layers = (
{
layerId = m002;
shapes = (
{
ref = h;
},
{
closed = 1;
nodes = (
(411,578,ls),
(417,578,o),
(423,582,o),
(425,588,cs),
(428,596,ls),
(429,602,o),
(425,606,o),
(419,606,cs),
(102,606,ls),
(95,606,o),
(90,602,o),
(89,596,cs),
(86,588,ls),
(84,582,o),
(87,578,o),
(94,578,cs)
);
}
);
width = 547;
}
);
unicode = 295;
},
{
glyphname = i;
kernLeft = i;
kernRight = i;
lastChange = "2022-09-01 20:59:49 +0000";
layers = (
{
anchors = (
{
name = bottom;
pos = (85,0);
}
);
background = {
shapes = (
{
closed = 1;
nodes = (
(192,-10,o),
(258,36,o),
(308,185,c),
(281,185,l),
(237,77,o),
(206,47,o),
(177,47,cs),
(154,47,o),
(151,65,o),
(159,94,cs),
(243,411,ls),
(262,486,o),
(238,516,o),
(187,516,cs),
(136,516,o),
(70,470,o),
(20,321,c),
(47,321,l),
(91,429,o),
(122,459,o),
(151,459,cs),
(174,459,o),
(178,441,o),
(170,412,c),
(85,95,ls),
(66,20,o),
(90,-10,o),
(140,-10,cs)
);
},
{
closed = 1;
nodes = (
(269,605,o),
(300,628,o),
(300,665,cs),
(300,692,o),
(277,710,o),
(246,710,cs),
(214,710,o),
(184,687,o),
(184,651,cs),
(184,625,o),
(206,605,o),
(235,605,cs)
);
}
);
};
guides = (
{
angle = 76.985;
pos = (132,206);
}
);
layerId = m002;
shapes = (
{
closed = 1;
nodes = (
(190,-10,o),
(256,32,o),
(306,169,cs),
(310,180,o),
(306,187,o),
(297,187,cs),
(290,187,o),
(284,183,o),
(281,174,cs),
(239,75,o),
(207,47,o),
(179,47,cs),
(156,47,o),
(152,65,o),
(160,94,cs),
(245,411,ls),
(264,486,o),
(240,516,o),
(187,516,cs),
(138,516,o),
(74,474,o),
(24,337,cs),
(20,326,o),
(24,319,o),
(33,319,cs),
(40,319,o),
(46,323,o),
(49,332,cs),
(91,431,o),
(123,459,o),
(151,459,cs),
(174,459,o),
(178,441,o),
(170,412,cs),
(85,95,ls),
(66,20,o),
(90,-10,o),
(140,-10,cs)
);
},
{
closed = 1;
nodes = (
(269,605,o),
(300,628,o),
(300,665,cs),
(300,692,o),
(277,710,o),
(246,710,cs),
(214,710,o),
(184,687,o),
(184,651,cs),
(184,625,o),
(206,605,o),
(235,605,cs)
);
}
);
width = 331;
}
);
unicode = 105;
},
{
glyphname = idotless;
kernLeft = i;
kernRight = i;
lastChange = "2022-08-23 19:56:03 +0000";
layers = (
{
anchors = (
{
name = bottom;
pos = (85,0);
},
{
name = ogonek;
pos = (159,0);
},
{
name = top;
pos = (203,510);
}
);
layerId = m002;
shapes = (
{
closed = 1;
nodes = (
(190,-10,o),
(256,32,o),
(306,169,cs),
(310,180,o),
(306,187,o),
(297,187,cs),
(290,187,o),
(284,183,o),
(281,174,cs),
(239,75,o),
(207,47,o),
(179,47,cs),
(156,47,o),
(152,65,o),
(160,94,cs),
(245,411,ls),
(264,486,o),
(240,516,o),
(187,516,cs),
(138,516,o),
(74,474,o),
(24,337,cs),
(20,326,o),
(24,319,o),
(33,319,cs),
(40,319,o),
(46,323,o),
(49,332,cs),
(91,431,o),
(123,459,o),
(151,459,cs),
(174,459,o),
(178,441,o),
(170,412,cs),
(85,95,ls),
(66,20,o),
(90,-10,o),
(140,-10,cs)
);
}
);
width = 331;
}
);
unicode = 305;
},
{
glyphname = j;
kernLeft = j;
kernRight = j;
lastChange = "2022-09-01 20:59:53 +0000";
layers = (
{
background = {
shapes = (
{
closed = 1;
nodes = (
(237,440,ls),
(236,464,o),
(224,475,o),
(202,475,cs),
(163,475,o),
(115,433,o),
(82,391,cs),
(56,360,o),
(39,329,o),
(40,317,cs),
(40,313,o),
(47,311,o),
(52,311,cs),
(61,311,o),
(67,336,o),
(102,377,cs),
(126,405,o),
(143,415,o),
(155,415,cs),
(163,415,o),
(166,411,o),
(167,404,cs),
(167,399,o),
(163,390,o),
(147,334,cs),
(130,276,o),
(100,165,o),
(47,-49,cs),
(37,-95,o),
(29,-127,o),
(18,-149,cs),
(5,-183,o),
(-6,-191,o),
(-18,-191,cs),
(-36,-191,o),
(-42,-170,o),
(-44,-146,cs),
(-45,-122,o),
(-52,-109,o),
(-73,-109,cs),
(-101,-109,o),
(-109,-132,o),
(-107,-151,cs),
(-105,-190,o),
(-77,-215,o),
(-42,-215,cs),
(5,-215,o),
(44,-187,o),
(74,-144,cs),
(100,-105,o),
(120,-54,o),
(132,-2,cs),
(164,123,o),
(204,259,o),
(224,350,cs),
(233,392,o),
(238,424,o),
(237,439,cs)
);
}
);
};
guides = (
{
angle = 76.8603;
pos = (74,95);
}
);
layerId = m002;
shapes = (
{
closed = 1;
nodes = (
(34,-215,o),
(97,-148,o),
(126,-37,cs),
(246,411,ls),
(266,486,o),
(241,516,o),
(187,516,cs),
(138,516,o),
(74,474,o),
(24,337,cs),
(20,326,o),
(24,319,o),
(33,319,cs),
(40,319,o),
(46,323,o),
(49,332,cs),
(91,431,o),
(123,459,o),
(151,459,cs),
(174,459,o),
(178,441,o),
(170,412,cs),
(29,-114,ls),
(12,-178,o),
(-2,-188,o),
(-16,-188,cs),
(-54,-188,o),
(-21,-106,o),
(-72,-106,cs),
(-90,-106,o),
(-107,-120,o),
(-107,-148,cs),
(-107,-186,o),
(-82,-215,o),
(-35,-215,cs)
);
},
{
closed = 1;
nodes = (
(269,605,o),
(300,628,o),
(300,665,cs),
(300,692,o),
(277,710,o),
(246,710,cs),
(214,710,o),
(184,687,o),
(184,651,cs),
(184,625,o),
(206,605,o),
(235,605,cs)
);
}
);
width = 306;
}
);
unicode = 106;
},
{
glyphname = jdotless;
kernLeft = j;
kernRight = j;
lastChange = "2022-08-23 19:56:16 +0000";
layers = (
{
layerId = m002;
shapes = (
{
closed = 1;
nodes = (
(34,-215,o),
(97,-148,o),
(126,-37,cs),
(246,411,ls),
(266,486,o),
(241,516,o),
(187,516,cs),
(138,516,o),
(74,474,o),
(24,337,cs),
(20,326,o),
(24,319,o),
(33,319,cs),
(40,319,o),
(46,323,o),
(49,332,cs),
(91,431,o),
(123,459,o),
(151,459,cs),
(174,459,o),
(178,441,o),
(170,412,cs),
(29,-114,ls),
(12,-178,o),
(-2,-188,o),
(-16,-188,cs),
(-54,-188,o),
(-21,-106,o),
(-72,-106,cs),
(-90,-106,o),
(-107,-120,o),
(-107,-148,cs),
(-107,-186,o),
(-82,-215,o),
(-35,-215,cs)
);
}
);
width = 306;
}
);
unicode = 567;
},
{
glyphname = k;
kernLeft = h;
kernRight = k;
lastChange = "2022-09-01 20:19:58 +0000";
layers = (
{
anchors = (
{
name = bottom;
pos = (165,0);
},
{
name = top;
pos = (336,740);
}
);
background = {
shapes = (
{
closed = 1;
nodes = (
(57,0,ls),
(71,0,o),
(80,8,o),
(84,21,cs),
(99,77,ls),
(115,136,o),
(133,189,o),
(148,218,cs),
(158,236,o),
(166,243,o),
(178,243,cs),
(191,243,o),
(199,236,o),
(207,219,cs),
(270,74,ls),
(296,17,o),
(325,-9,o),
(366,-9,cs),
(432,-9,o),
(475,54,o),
(483,166,cs),
(484,180,o),
(481,186,o),
(471,186,cs),
(463,186,o),
(459,181,o),
(458,173,cs),
(444,78,o),
(428,45,o),
(393,45,cs),
(370,45,o),
(356,57,o),
(342,91,cs),
(264,262,l),
(396,301,o),
(489,379,o),
(489,449,cs),
(489,490,o),
(455,516,o),
(404,516,cs),
(335,516,o),
(271,472,o),
(217,388,cs),
(174,320,l),
(164,320,l),
(275,728,ls),
(277,738,o),
(274,743,o),
(263,743,cs),
(258,743,o),
(253,741,o),
(247,737,cs),
(225,721,o),
(187,709,o),
(122,700,cs),
(113,699,o),
(107,695,o),
(106,689,cs),
(105,682,o),
(110,677,o),
(121,676,cs),
(155,673,ls),
(177,671,o),
(183,663,o),
(176,640,cs),
(12,27,ls),
(7,11,o),
(16,0,o),
(36,0,cs)
);
},
{
closed = 1;
nodes = (
(248,402,o),
(327,485,o),
(383,485,cs),
(406,485,o),
(416,473,o),
(416,447,cs),
(416,365,o),
(319,291,o),
(178,267,c)
);
}
);
};
guides = (
{
pos = (230,271);
},
{
angle = 76.9307;
pos = (80,49);
},
{
angle = 256.8689;
pos = (82,334);
}
);
layerId = m002;
shapes = (
{
closed = 1;
nodes = (
(432,-9,o),
(475,54,o),
(483,166,cs),
(484,180,o),
(481,186,o),
(471,186,cs),
(463,186,o),
(459,181,o),
(458,173,cs),
(444,78,o),
(428,45,o),
(393,45,cs),
(370,45,o),
(356,57,o),
(342,91,cs),
(275,239,ls),
(268,253,o),
(274,265,o),
(291,271,cs),
(408,312,o),
(489,384,o),
(489,449,cs),
(489,490,o),
(455,516,o),
(404,516,cs),
(335,516,o),
(271,472,o),
(217,388,cs),
(179,329,ls),
(175,321,o),
(166,323,o),
(168,332,cs),
(275,728,ls),
(277,738,o),
(274,743,o),
(263,743,cs),
(258,743,o),
(253,741,o),
(247,737,cs),
(225,721,o),
(187,709,o),
(122,700,cs),
(113,699,o),
(107,695,o),
(106,689,cs),
(105,682,o),
(110,677,o),
(121,676,cs),
(155,673,ls),
(177,671,o),
(182,663,o),
(176,640,cs),
(8,13,ls),
(6,4,o),
(10,0,o),
(21,0,cs),
(66,0,ls),
(75,0,o),
(79,3,o),
(82,11,cs),
(99,77,ls),
(114,136,o),
(133,189,o),
(148,218,cs),
(158,236,o),
(166,243,o),
(178,243,cs),
(191,243,o),
(199,236,o),
(207,219,cs),
(270,74,ls),
(296,17,o),
(325,-9,o),
(366,-9,cs)
);
},
{
closed = 1;
nodes = (
(256,410,o),
(330,485,o),
(383,485,cs),
(406,485,o),
(416,473,o),
(416,447,cs),
(416,370,o),
(330,300,o),
(204,272,cs),
(190,269,o),
(183,276,o),
(190,288,cs)
);
}
);
width = 514;
}
);
unicode = 107;
},
{
glyphname = l;
kernLeft = h;
kernRight = l;
lastChange = "2022-09-01 20:39:59 +0000";
layers = (
{
anchors = (
{
name = bottom;
pos = (61,0);
},
{
name = center;
pos = (147,370);
},
{
name = top;
pos = (169,710);
},
{
name = topright;
pos = (267,740);
}
);
guides = (
{
angle = 256.8603;
pos = (63,254);
}
);
layerId = m002;
shapes = (
{
closed = 1;
nodes = (
(135,-10,o),
(201,32,o),
(251,169,cs),
(255,180,o),
(251,187,o),
(241,187,cs),
(235,187,o),
(229,183,o),
(225,174,cs),
(184,75,o),
(152,47,o),
(124,47,cs),
(101,47,o),
(97,65,o),
(105,94,cs),
(275,728,ls),
(277,738,o),
(273,743,o),
(264,743,cs),
(258,743,o),
(253,741,o),
(247,737,cs),
(221,718,o),
(177,708,o),
(122,700,cs),
(113,699,o),
(107,695,o),
(106,689,cs),
(105,682,o),
(109,677,o),
(121,676,cs),
(155,673,ls),
(177,671,o),
(183,664,o),
(176,640,cs),
(30,95,ls),
(9,20,o),
(34,-10,o),
(85,-10,cs)
);
}
);
width = 276;
}
);
unicode = 108;
},
{
glyphname = lslash;
kernLeft = h;
kernRight = l;
lastChange = "2022-08-23 20:01:07 +0000";
layers = (
{
layerId = m002;
shapes = (
{
pos = (31,0);
ref = l;
},
{
closed = 1;
nodes = (
(186,383,l),
(31,307,ls),
(24,304,o),
(21,298,o),
(24,293,cs),
(29,286,ls),
(32,281,o),
(37,280,o),
(44,283,cs),
(179,350,l)
);
},
{
closed = 1;
nodes = (
(181,345,l),
(343,424,ls),
(350,427,o),
(352,433,o),
(350,438,cs),
(345,445,ls),
(343,450,o),
(337,451,o),
(330,448,cs),
(187,378,l)
);
}
);
width = 312;
}
);
unicode = 322;
},
{
glyphname = m;
kernLeft = n;
kernRight = n;
lastChange = "2022-09-01 19:49:06 +0000";
layers = (
{
background = {
shapes = (
{
closed = 1;
nodes = (
(406,23,cs),
(457,212,o),
(607,473,o),
(683,473,cs),
(705,473,o),
(720,456,o),
(704,404,cs),
(615,114,ls),
(590,30,o),
(624,-9,o),
(680,-9,cs),
(731,-9,o),
(787,29,o),
(830,166,cs),
(834,177,o),
(831,186,o),
(820,186,cs),
(812,186,o),
(807,182,o),
(805,175,cs),
(773,76,o),
(744,48,o),
(713,48,cs),
(689,48,o),
(677,66,o),
(689,104,cs),
(776,394,ls),
(802,476,o),
(770,516,o),
(714,516,cs),
(654,516,o),
(586,461,o),
(522,348,cs),
(482,278,l),
(476,278,l),
(507,394,ls),
(529,476,o),
(501,516,o),
(445,516,cs),
(385,516,o),
(317,461,o),
(253,348,cs),
(213,278,l),
(207,278,l),
(243,411,ls),
(262,486,o),
(238,516,o),
(187,516,cs),
(138,516,o),
(74,474,o),
(24,337,cs),
(20,326,o),
(24,319,o),
(33,319,cs),
(40,319,o),
(46,323,o),
(49,332,cs),
(91,431,o),
(123,459,o),
(151,459,cs),
(174,459,o),
(178,441,o),
(170,412,cs),
(67,27,ls),
(62,11,o),
(71,0,o),
(91,0,cs),
(109,0,ls),
(125,0,o),
(136,7,o),
(139,21,cs),
(193,221,o),
(339,473,o),
(414,473,cs),
(436,473,o),
(448,456,o),
(435,404,cs),
(334,27,ls),
(329,11,o),
(338,0,o),
(358,0,cs),
(376,0,ls),
(392,0,o),
(401,7,o)
);
}
);
};
layerId = m002;
shapes = (
{
closed = 1;
nodes = (
(731,-9,o),
(787,29,o),
(830,166,cs),
(834,177,o),
(831,186,o),
(820,186,cs),
(812,186,o),
(807,182,o),
(805,175,cs),
(773,76,o),
(744,48,o),
(713,48,cs),
(689,48,o),
(677,66,o),
(689,104,cs),
(776,394,ls),
(802,476,o),
(770,516,o),
(714,516,cs),
(654,516,o),
(581,462,o),
(494,300,cs),
(490,292,o),
(481,294,o),
(483,303,cs),
(507,394,ls),
(529,476,o),
(501,516,o),
(445,516,cs),
(385,516,o),
(314,460,o),
(225,300,cs),
(221,292,o),
(212,294,o),
(214,303,cs),
(243,411,ls),
(262,486,o),
(238,516,o),
(187,516,cs),
(138,516,o),
(74,474,o),
(24,337,cs),
(20,326,o),
(24,319,o),
(33,319,cs),
(40,319,o),
(46,323,o),
(49,332,cs),
(91,431,o),
(123,459,o),
(151,459,cs),
(174,459,o),
(178,441,o),
(170,412,cs),
(61,13,ls),
(59,4,o),
(63,0,o),
(74,0,cs),
(121,0,ls),
(130,0,o),
(135,3,o),
(137,11,cs),
(192,220,o),
(339,473,o),
(414,473,cs),
(436,473,o),
(448,456,o),
(435,404,cs),
(329,13,ls),
(327,4,o),
(331,0,o),
(342,0,cs),
(386,0,ls),
(396,0,o),
(400,3,o),
(402,11,cs),
(459,221,o),
(607,473,o),
(683,473,cs),
(705,473,o),
(720,456,o),
(704,404,cs),
(615,114,ls),
(590,30,o),
(624,-9,o),
(680,-9,cs)
);
}
);
width = 857;
}
);
metricRight = n;
unicode = 109;
},
{
glyphname = n;
kernLeft = n;
kernRight = n;
lastChange = "2022-08-31 18:09:38 +0000";
layers = (
{
anchors = (
{
name = bottom;
pos = (202,0);
},
{
name = top;
pos = (320,510);
}
);
background = {
shapes = (
{
closed = 1;
nodes = (
(478,-9,o),
(539,37,o),
(578,186,c),
(551,186,l),
(519,78,o),
(488,48,o),
(455,48,cs),
(431,48,o),
(420,66,o),
(431,104,cs),
(519,394,ls),
(544,476,o),
(513,516,o),
(457,516,cs),
(397,516,o),
(321,460,o),
(254,348,cs),
(213,278,l),
(191,278,l),
(133,0,l),
(193,225,o),
(337,473,o),
(425,473,cs),
(447,473,o),
(462,456,o),
(446,404,cs),
(358,114,ls),
(332,30,o),
(367,-9,o),
(422,-9,cs)
);
},
{
closed = 1;
nodes = (
(133,0,l),
(243,411,ls),
(262,486,o),
(238,516,o),
(187,516,cs),
(136,516,o),
(70,470,o),
(20,321,c),
(47,321,l),
(91,429,o),
(122,459,o),
(151,459,cs),
(174,459,o),
(178,441,o),
(170,412,c),
(60,0,l)
);
}
);
};
guides = (
{
pos = (500,186);
}
);
layerId = m002;
shapes = (
{
closed = 1;
nodes = (
(59,4,o),
(63,0,o),
(74,0,cs),
(121,0,ls),
(130,0,o),
(135,3,o),
(137,11,cs),
(191,218,o),
(339,473,o),
(425,473,cs),
(447,473,o),
(462,456,o),
(446,404,cs),
(358,114,ls),
(332,30,o),
(367,-9,o),
(422,-9,cs),
(474,-9,o),
(529,29,o),
(573,166,cs),
(576,177,o),
(574,186,o),
(562,186,cs),
(554,186,o),
(550,182,o),
(547,175,cs),
(515,76,o),
(486,48,o),
(455,48,cs),
(431,48,o),
(420,66,o),
(431,104,cs),
(519,394,ls),
(544,476,o),
(513,516,o),
(457,516,cs),
(397,516,o),
(315,462,o),
(225,300,cs),
(221,292,o),
(212,294,o),
(214,303,cs),
(243,411,ls),
(262,486,o),
(238,516,o),
(187,516,cs),
(138,516,o),
(74,474,o),
(24,337,cs),
(20,326,o),
(24,319,o),
(33,319,cs),
(40,319,o),
(46,323,o),
(49,332,cs),
(91,431,o),
(123,459,o),
(151,459,cs),
(174,459,o),
(178,441,o),
(170,412,cs),
(61,13,ls)
);
}
);
width = 599;
}
);
unicode = 110;
},
{
glyphname = eng;
kernLeft = n;
kernRight = j;
lastChange = "2022-08-23 20:01:41 +0000";
layers = (
{
background = {
shapes = (
{
closed = 1;
nodes = (
(59,4,o),
(63,0,o),
(74,0,cs),
(121,0,ls),
(130,0,o),
(135,3,o),
(137,11,cs),
(191,218,o),
(339,473,o),
(425,473,cs),
(447,473,o),
(462,456,o),
(446,404,cs),
(358,114,ls),
(332,30,o),
(367,-9,o),
(422,-9,cs),
(474,-9,o),
(529,29,o),
(573,166,cs),
(576,177,o),
(574,186,o),
(562,186,cs),
(554,186,o),
(550,182,o),
(547,175,cs),
(515,76,o),
(486,48,o),
(455,48,cs),
(431,48,o),
(420,66,o),
(431,104,cs),
(519,394,ls),
(544,476,o),
(513,516,o),
(457,516,cs),
(397,516,o),
(315,462,o),
(225,300,cs),
(221,292,o),
(212,294,o),
(214,303,cs),
(243,411,ls),
(262,486,o),
(238,516,o),
(187,516,cs),
(138,516,o),
(74,474,o),
(24,337,cs),
(20,326,o),
(24,319,o),
(33,319,cs),
(40,319,o),
(46,323,o),
(49,332,cs),
(91,431,o),
(123,459,o),
(151,459,cs),
(174,459,o),
(178,441,o),
(170,412,cs),
(61,13,ls)
);
}
);
};
layerId = m002;
shapes = (
{
closed = 1;
nodes = (
(297,-215,o),
(355,-147,o),
(389,-37,cs),
(519,394,ls),
(543,476,o),
(513,516,o),
(457,516,cs),
(397,516,o),
(315,462,o),
(225,300,cs),
(221,292,o),
(212,294,o),
(214,303,cs),
(243,411,ls),
(262,486,o),
(238,516,o),
(187,516,cs),
(138,516,o),
(74,474,o),
(24,337,cs),
(20,326,o),
(24,319,o),
(33,319,cs),
(40,319,o),
(46,323,o),
(49,332,cs),
(91,431,o),
(123,459,o),
(151,459,cs),
(174,459,o),
(178,441,o),
(170,412,cs),
(61,13,ls),
(59,4,o),
(63,0,o),
(74,0,cs),
(121,0,ls),
(130,0,o),
(135,3,o),
(137,11,cs),
(191,218,o),
(339,473,o),
(425,473,cs),
(447,473,o),
(461,456,o),
(446,404,cs),
(292,-114,ls),
(273,-178,o),
(260,-188,o),
(244,-188,cs),
(200,-188,o),
(238,-106,o),
(179,-106,cs),
(159,-106,o),
(139,-120,o),
(139,-148,cs),
(139,-186,o),
(168,-215,o),
(222,-215,cs)
);
}
);
width = 572;
}
);
unicode = 331;
},
{
glyphname = o;
kernLeft = o;
kernRight = o;
lastChange = "2022-08-31 20:21:46 +0000";
layers = (
{
anchors = (
{
name = bottom;
pos = (148,0);
},
{
name = center;
pos = (207,255);
},
{
name = ogonek;
pos = (316,10);
},
{
name = top;
pos = (266,510);
},
{
name = topright;
pos = (453,510);
}
);
background = {
shapes = (
{
closed = 1;
nodes = (
(342,-9,o),
(475,146,o),
(475,315,cs),
(475,436,o),
(407,516,o),
(304,516,cs),
(158,516,o),
(24,361,o),
(24,191,cs),
(24,71,o),
(92,-9,o),
(195,-9,cs)
);
},
{
closed = 1;
nodes = (
(132,16,o),
(102,65,o),
(102,155,cs),
(102,324,o),
(206,491,o),
(310,491,cs),
(367,491,o),
(397,442,o),
(397,352,cs),
(397,183,o),
(293,16,o),
(189,16,cs)
);
}
);
};
layerId = m002;
shapes = (
{
closed = 1;
nodes = (
(309,-9,o),
(452,151,o),
(452,325,cs),
(452,443,o),
(393,516,o),
(298,516,cs),
(166,516,o),
(23,356,o),
(23,182,cs),
(23,64,o),
(82,-9,o),
(177,-9,cs)
);
},
{
closed = 1;
nodes = (
(125,15,o),
(101,59,o),
(101,141,cs),
(101,310,o),
(202,492,o),
(299,492,cs),
(350,492,o),
(374,449,o),
(374,367,cs),
(374,199,o),
(271,15,o),
(175,15,cs)
);
}
);
width = 476;
}
);
unicode = 111;
},
{
glyphname = oslash;
kernLeft = o;
kernRight = o;
lastChange = "2022-08-23 20:01:47 +0000";
layers = (
{
layerId = m002;
shapes = (
{
ref = o;
},
{
closed = 1;
nodes = (
(30,-50,ls),
(36,-50,o),
(40,-48,o),
(44,-42,cs),
(452,548,ls),
(457,555,o),
(453,560,o),
(445,560,cs),
(435,560,ls),
(429,560,o),
(424,558,o),
(421,552,cs),
(13,-38,ls),
(8,-45,o),
(12,-50,o),
(20,-50,cs)
);
}
);
width = 476;
}
);
unicode = 248;
},
{
glyphname = oe;
kernLeft = o;
kernRight = e;
lastChange = "2022-08-23 20:01:51 +0000";
layers = (
{
layerId = m002;
shapes = (
{
closed = 1;
nodes = (
(309,-9,o),
(440,151,o),
(440,325,cs),
(440,443,o),
(393,516,o),
(298,516,cs),
(166,516,o),
(23,356,o),
(23,182,cs),
(23,64,o),
(82,-9,o),
(177,-9,cs)
);
},
{
closed = 1;
nodes = (
(125,15,o),
(101,59,o),
(101,141,cs),
(101,310,o),
(202,492,o),
(299,492,cs),
(350,492,o),
(374,449,o),
(374,367,cs),
(374,199,o),
(271,15,o),
(175,15,cs)
);
},
{
closed = 1;
nodes = (
(561,-9,o),
(632,51,o),
(682,169,cs),
(685,178,o),
(683,186,o),
(674,186,cs),
(667,186,o),
(662,183,o),
(660,177,cs),
(623,91,o),
(565,43,o),
(507,43,cs),
(455,43,o),
(423,82,o),
(423,158,cs),
(423,167,o),
(423,177,o),
(424,187,cs),
(425,201,o),
(435,209,o),
(451,212,cs),
(624,246,o),
(741,342,o),
(741,433,cs),
(741,484,o),
(711,516,o),
(639,516,cs),
(506,516,o),
(344,327,o),
(344,150,cs),
(344,48,o),
(397,-9,o),
(478,-9,cs)
);
},
{
closed = 1;
nodes = (
(470,376,o),
(564,491,o),
(631,491,cs),
(658,491,o),
(669,477,o),
(669,449,cs),
(669,367,o),
(595,269,o),
(452,236,cs),
(440,233,o),
(432,240,o),
(436,250,cs)
);
}
);
width = 730;
}
);
metricRight = e;
unicode = 339;
},
{
glyphname = p;
kernLeft = n;
kernRight = o;
lastChange = "2022-08-31 17:39:19 +0000";
layers = (
{
background = {
shapes = (
{
closed = 1;
nodes = (
(120,-205,ls),
(132,-205,o),
(139,-201,o),
(139,-193,cs),
(139,-187,o),
(135,-183,o),
(118,-181,cs),
(89,-177,ls),
(60,-173,o),
(52,-168,o),
(60,-138,cs),
(244,556,ls),
(248,573,o),
(238,583,o),
(220,583,cs),
(199,583,ls),
(182,583,o),
(172,575,o),
(169,562,cs),
(-15,-138,ls),
(-22,-168,o),
(-32,-176,o),
(-59,-180,cs),
(-73,-182,ls),
(-82,-183,o),
(-89,-187,o),
(-89,-194,cs),
(-89,-200,o),
(-86,-205,o),
(-76,-205,cs)
);
},
{
closed = 1;
nodes = (
(323,-9,o),
(494,163,o),
(494,345,cs),
(494,461,o),
(414,516,o),
(301,516,cs),
(207,516,o),
(123,481,o),
(63,446,cs),
(55,441,o),
(52,437,o),
(52,432,cs),
(52,422,o),
(66,420,o),
(76,426,cs),
(145,465,o),
(215,489,o),
(283,489,cs),
(368,489,o),
(414,452,o),
(414,363,cs),
(414,190,o),
(282,16,o),
(176,16,cs),
(128,16,o),
(109,53,o),
(131,132,c),
(69,41,l),
(84,11,o),
(123,-9,o),
(174,-9,cs)
);
}
);
};
layerId = m002;
shapes = (
{
closed = 1;
nodes = (
(120,-205,ls),
(132,-205,o),
(139,-201,o),
(139,-193,cs),
(139,-187,o),
(135,-183,o),
(118,-181,cs),
(89,-177,ls),
(60,-173,o),
(52,-168,o),
(60,-138,cs),
(94,-6,ls),
(97,3,o),
(105,6,o),
(115,2,cs),
(132,-5,o),
(152,-9,o),
(174,-9,cs),
(323,-9,o),
(494,163,o),
(494,345,cs),
(494,461,o),
(414,516,o),
(301,516,cs),
(284,516,o),
(268,515,o),
(251,513,cs),
(239,511,o),
(233,517,o),
(236,527,cs),
(244,556,ls),
(248,573,o),
(238,583,o),
(220,583,cs),
(199,583,ls),
(182,583,o),
(172,575,o),
(169,562,cs),
(154,505,ls),
(151,492,o),
(144,485,o),
(130,479,cs),
(106,469,o),
(84,458,o),
(63,446,cs),
(55,441,o),
(52,437,o),
(52,432,cs),
(52,422,o),
(62,418,o),
(76,426,cs),
(90,434,o),
(102,441,o),
(118,448,cs),
(131,454,o),
(139,447,o),
(136,436,cs),
(-15,-138,ls),
(-22,-168,o),
(-32,-176,o),
(-59,-180,cs),
(-73,-182,ls),
(-82,-183,o),
(-89,-187,o),
(-89,-194,cs),
(-89,-200,o),
(-86,-205,o),
(-76,-205,cs)
);
},
{
closed = 1;
nodes = (
(217,455,ls),
(223,478,o),
(244,489,o),
(283,489,cs),
(368,489,o),
(414,452,o),
(414,363,cs),
(414,190,o),
(282,16,o),
(176,16,cs),
(131,16,o),
(113,48,o),
(126,115,c)
);
}
);
width = 518;
}
);
unicode = 112;
},
{
glyphname = thorn;
kernLeft = h;
kernRight = o;
lastChange = "2022-08-23 20:02:04 +0000";
layers = (
{
layerId = m002;
shapes = (
{
closed = 1;
nodes = (
(106,-205,ls),
(118,-205,o),
(125,-201,o),
(125,-193,cs),
(125,-187,o),
(121,-183,o),
(105,-181,cs),
(75,-177,ls),
(46,-173,o),
(38,-168,o),
(46,-138,cs),
(80,-6,ls),
(83,3,o),
(91,6,o),
(101,2,cs),
(118,-5,o),
(138,-9,o),
(160,-9,cs),
(309,-9,o),
(481,163,o),
(481,345,cs),
(481,461,o),
(400,516,o),
(288,516,cs),
(270,516,o),
(254,515,o),
(237,513,cs),
(225,511,o),
(220,517,o),
(222,527,cs),
(278,728,ls),
(281,738,o),
(276,743,o),
(268,743,cs),
(261,743,o),
(256,741,o),
(251,737,cs),
(224,718,o),
(177,708,o),
(122,700,cs),
(113,699,o),
(107,695,o),
(106,689,cs),
(105,682,o),
(109,677,o),
(121,676,cs),
(155,673,ls),
(177,671,o),
(183,664,o),
(176,640,cs),
(140,505,ls),
(137,492,o),
(130,485,o),
(116,479,cs),
(92,469,o),
(70,458,o),
(49,446,cs),
(41,441,o),
(38,437,o),
(38,432,cs),
(38,422,o),
(48,418,o),
(62,426,cs),
(76,434,o),
(89,441,o),
(105,448,cs),
(117,454,o),
(125,447,o),
(122,436,cs),
(-27,-138,ls),
(-34,-168,o),
(-44,-176,o),
(-71,-180,cs),
(-85,-182,ls),
(-94,-183,o),
(-101,-187,o),
(-101,-194,cs),
(-101,-200,o),
(-98,-205,o),
(-88,-205,cs)
);
},
{
closed = 1;
nodes = (
(117,16,o),
(99,48,o),
(113,115,c),
(204,455,ls),
(209,478,o),
(230,489,o),
(269,489,cs),
(354,489,o),
(400,452,o),
(400,363,cs),
(400,190,o),
(268,16,o),
(162,16,cs)
);
}
);
width = 504;
}
);
unicode = 254;
},
{
glyphname = q;
kernLeft = o;
lastChange = "2022-09-01 20:20:31 +0000";
layers = (
{
background = {
shapes = (
{
closed = 1;
nodes = (
(162,-9,o),
(223,35,o),
(284,135,cs),
(317,190,l),
(354,190,l),
(424,471,l),
(416,471,l),
(401,500,o),
(373,516,o),
(334,516,cs),
(184,516,o),
(15,303,o),
(15,113,cs),
(15,33,o),
(47,-9,o),
(103,-9,cs)
);
},
{
closed = 1;
nodes = (
(109,42,o),
(93,55,o),
(93,102,cs),
(93,275,o),
(229,491,o),
(330,491,cs),
(361,491,o),
(379,469,o),
(379,430,cs),
(379,318,o),
(223,42,o),
(131,42,cs)
);
},
{
closed = 1;
nodes = (
(361,-205,ls),
(374,-205,o),
(381,-201,o),
(381,-193,cs),
(381,-187,o),
(376,-183,o),
(360,-181,cs),
(340,-178,ls),
(313,-174,o),
(305,-168,o),
(313,-138,cs),
(482,496,ls),
(484,505,o),
(478,510,o),
(470,510,cs),
(461,510,o),
(454,506,o),
(445,496,cs),
(389,433,l),
(236,-138,ls),
(228,-168,o),
(217,-178,o),
(186,-180,cs),
(158,-182,ls),
(147,-183,o),
(139,-187,o),
(139,-194,cs),
(139,-200,o),
(143,-205,o),
(154,-205,cs)
);
}
);
};
guides = (
{
angle = 76.918;
pos = (375,305);
}
);
layerId = m002;
shapes = (
{
closed = 1;
nodes = (
(361,-205,ls),
(374,-205,o),
(381,-201,o),
(381,-193,cs),
(381,-187,o),
(376,-183,o),
(360,-181,cs),
(340,-178,ls),
(313,-174,o),
(305,-168,o),
(313,-138,cs),
(482,496,ls),
(484,505,o),
(478,510,o),
(470,510,cs),
(461,510,o),
(452,506,o),
(435,485,cs),
(430,479,o),
(427,476,o),
(421,476,cs),
(415,476,o),
(412,479,o),
(407,485,cs),
(390,506,o),
(362,516,o),
(334,516,cs),
(184,516,o),
(15,303,o),
(15,113,cs),
(15,33,o),
(47,-9,o),
(103,-9,cs),
(162,-9,o),
(227,33,o),
(306,171,cs),
(310,179,o),
(320,177,o),
(317,168,cs),
(236,-138,ls),
(228,-168,o),
(217,-178,o),
(186,-180,cs),
(158,-182,ls),
(147,-183,o),
(139,-187,o),
(139,-194,cs),
(139,-200,o),
(143,-205,o),
(154,-205,cs)
);
},
{
closed = 1;
nodes = (
(109,42,o),
(93,55,o),
(93,102,cs),
(93,275,o),
(229,491,o),
(330,491,cs),
(361,491,o),
(379,469,o),
(379,430,cs),
(379,318,o),
(223,42,o),
(131,42,cs)
);
}
);
width = 489;
}
);
unicode = 113;
},
{
glyphname = r;
kernLeft = n;
kernRight = r;
lastChange = "2022-09-01 19:37:15 +0000";
layers = (
{
anchors = (
{
name = bottom;
pos = (86,0);
},
{
name = top;
pos = (243,510);
}
);
background = {
shapes = (
{
closed = 1;
nodes = (
(243,411,ls),
(262,486,o),
(238,516,o),
(187,516,cs),
(138,516,o),
(74,474,o),
(24,337,cs),
(20,326,o),
(24,319,o),
(33,319,cs),
(40,319,o),
(46,323,o),
(49,332,cs),
(91,431,o),
(123,459,o),
(151,459,cs),
(174,459,o),
(178,441,o),
(170,412,cs),
(67,27,ls),
(62,11,o),
(71,0,o),
(91,0,cs),
(109,0,ls),
(125,0,o),
(136,7,o),
(139,21,cs)
);
},
{
closed = 1;
nodes = (
(195,234,o),
(306,460,o),
(353,460,cs),
(382,460,o),
(367,407,o),
(415,407,cs),
(444,407,o),
(465,429,o),
(465,462,cs),
(465,495,o),
(444,516,o),
(402,516,cs),
(342,516,o),
(300,476,o),
(255,388,cs),
(228,334,l),
(210,334,l),
(139,21,l)
);
}
);
};
layerId = m002;
shapes = (
{
closed = 1;
nodes = (
(121,0,ls),
(130,0,o),
(135,3,o),
(137,11,cs),
(194,234,o),
(306,460,o),
(353,460,cs),
(382,460,o),
(367,407,o),
(415,407,cs),
(444,407,o),
(465,429,o),
(465,462,cs),
(465,495,o),
(444,516,o),
(402,516,cs),
(342,516,o),
(299,477,o),
(241,361,cs),
(237,353,o),
(228,355,o),
(230,364,cs),
(243,411,ls),
(262,485,o),
(238,516,o),
(187,516,cs),
(138,516,o),
(74,474,o),
(24,337,cs),
(20,326,o),
(24,319,o),
(33,319,cs),
(40,319,o),
(46,323,o),
(49,332,cs),
(91,431,o),
(123,459,o),
(151,459,cs),
(174,459,o),
(178,441,o),
(170,412,cs),
(61,13,ls),
(59,4,o),
(63,0,o),
(74,0,cs)
);
}
);
width = 423;
}
);
unicode = 114;
},
{
glyphname = s;
kernLeft = s;
kernRight = s;
lastChange = "2022-09-01 21:00:18 +0000";
layers = (
{
anchors = (
{
name = bottom;
pos = (89,0);
},
{
name = top;
pos = (207,510);
}
);
background = {
shapes = (
{
closed = 1;
nodes = (
(290,146,ls),
(286,201,o),
(246,244,o),
(205,287,cs),
(169,326,o),
(133,363,o),
(131,407,cs),
(126,451,o),
(162,489,o),
(212,489,cs),
(264,489,o),
(282,453,o),
(291,419,cs),
(300,384,o),
(299,349,o),
(317,349,cs),
(330,349,o),
(331,355,o),
(344,405,cs),
(350,433,o),
(354,456,o),
(353,476,cs),
(353,490,o),
(291,515,o),
(228,515,cs),
(131,515,o),
(68,435,o),
(72,355,cs),
(77,303,o),
(110,265,o),
(148,228,cs),
(186,192,o),
(222,153,o),
(224,101,cs),
(227,59,o),
(190,14,o),
(140,14,cs),
(62,14,o),
(33,78,o),
(30,148,cs),
(28,181,o),
(26,188,o),
(15,188,cs),
(2,188,o),
(1,181,o),
(-5,145,cs),
(-14,96,o),
(-18,56,o),
(-17,38,cs),
(-17,32,o),
(-8,24,o),
(3,17,cs),
(30,2,o),
(72,-12,o),
(112,-12,cs),
(163,-12,o),
(212,6,o),
(245,36,cs),
(275,64,o),
(292,102,o),
(290,145,cs)
);
}
);
};
layerId = m002;
shapes = (
{
closed = 1;
nodes = (
(218,-9,o),
(290,52,o),
(290,137,cs),
(290,181,o),
(271,216,o),
(209,288,cs),
(161,344,o),
(132,374,o),
(132,418,cs),
(132,459,o),
(166,493,o),
(215,493,cs),
(270,493,o),
(282,461,o),
(288,381,cs),
(291,333,ls),
(292,324,o),
(296,319,o),
(304,319,cs),
(310,319,o),
(315,324,o),
(317,332,cs),
(350,466,ls),
(352,474,o),
(350,479,o),
(343,484,cs),
(316,505,o),
(275,516,o),
(233,516,cs),
(140,516,o),
(72,461,o),
(72,377,cs),
(72,332,o),
(98,294,o),
(150,236,cs),
(208,171,o),
(230,143,o),
(230,97,cs),
(230,44,o),
(189,16,o),
(140,16,cs),
(84,16,o),
(40,50,o),
(37,126,cs),
(34,174,ls),
(34,183,o),
(29,188,o),
(22,188,cs),
(15,188,o),
(9,183,o),
(8,175,cs),
(-15,44,ls),
(-16,36,o),
(-15,31,o),
(-9,26,cs),
(18,6,o),
(83,-9,o),
(133,-9,cs)
);
}
);
width = 347;
}
);
unicode = 115;
},
{
glyphname = germandbls;
kernLeft = f;
kernRight = s;
lastChange = "2022-08-23 20:02:28 +0000";
layers = (
{
background = {
shapes = (
{
closed = 1;
nodes = (
(457,-9,o),
(530,46,o),
(552,132,cs),
(569,197,o),
(544,252,o),
(485,294,cs),
(414,345,o),
(397,368,o),
(407,405,cs),
(428,483,o),
(613,523,o),
(643,638,cs),
(657,687,o),
(624,748,o),
(524,748,c),
(396,748,o),
(293,654,o),
(264,544,cs),
(258,521,o),
(236,506,o),
(199,503,cs),
(190,502,o),
(184,498,o),
(183,492,cs),
(181,486,o),
(185,482,o),
(193,482,cs),
(220,482,ls),
(237,482,o),
(245,473,o),
(241,458,cs),
(137,67,ls),
(130,39,o),
(120,27,o),
(87,25,cs),
(57,23,ls),
(47,22,o),
(41,17,o),
(40,11,cs),
(38,4,o),
(43,0,o),
(54,0,cs),
(175,0,ls),
(190,0,o),
(200,7,o),
(204,20,c),
(350,570,ls),
(376,672,o),
(444,717,o),
(511,717,cs),
(566,717,o),
(583,688,o),
(570,643,cs),
(536,512,o),
(378,490,o),
(348,379,cs),
(335,324,o),
(355,282,o),
(422,235,cs),
(477,196,o),
(498,155,o),
(484,102,cs),
(469,49,o),
(425,17,o),
(384,17,cs),
(334,17,o),
(317,45,o),
(317,140,cs),
(317,151,o),
(314,156,o),
(305,156,cs),
(296,156,o),
(288,149,o),
(285,139,cs),
(259,27,ls),
(256,19,o),
(258,14,o),
(264,10,cs),
(286,-1,o),
(317,-9,o),
(361,-9,cs)
);
}
);
};
layerId = m002;
shapes = (
{
closed = 1;
nodes = (
(400,-9,o),
(454,74,o),
(454,139,cs),
(454,190,o),
(430,231,o),
(378,276,cs),
(320,327,o),
(306,356,o),
(306,384,cs),
(306,494,o),
(543,526,o),
(543,642,cs),
(543,700,o),
(489,740,o),
(406,740,cs),
(282,740,o),
(205,660,o),
(175,561,cs),
(163,523,o),
(138,510,o),
(105,510,cs),
(92,510,o),
(84,507,o),
(84,499,cs),
(84,493,o),
(89,491,o),
(95,490,cs),
(120,486,ls),
(140,483,o),
(147,470,o),
(141,449,cs),
(39,67,ls),
(31,39,o),
(22,27,o),
(-9,25,cs),
(-35,23,ls),
(-44,22,o),
(-49,17,o),
(-50,11,cs),
(-52,4,o),
(-48,0,o),
(-38,0,cs),
(77,0,ls),
(92,0,o),
(102,7,o),
(106,20,cs),
(253,578,ls),
(277,669,o),
(334,709,o),
(400,709,cs),
(447,709,o),
(473,685,o),
(473,642,cs),
(473,507,o),
(247,491,o),
(247,351,cs),
(247,310,o),
(271,271,o),
(324,226,cs),
(367,189,o),
(389,164,o),
(389,113,cs),
(389,49,o),
(355,17,o),
(298,17,cs),
(237,17,o),
(222,54,o),
(221,151,cs),
(221,163,o),
(218,169,o),
(207,169,cs),
(199,169,o),
(192,163,o),
(190,154,cs),
(164,42,ls),
(162,34,o),
(163,29,o),
(170,24,cs),
(204,2,o),
(255,-9,o),
(291,-9,cs)
);
}
);
width = 490;
}
);
metricLeft = f;
unicode = 223;
},
{
glyphname = t;
kernLeft = t;
kernRight = t;
lastChange = "2022-09-01 20:40:20 +0000";
layers = (
{
anchors = (
{
name = bottom;
pos = (98,0);
},
{
name = center;
pos = (136,255);
},
{
name = top;
pos = (195,510);
},
{
name = topright;
pos = (298,760);
}
);
background = {
shapes = (
{
closed = 1;
nodes = (
(172,-9,o),
(235,28,o),
(277,186,c),
(252,186,l),
(220,78,o),
(186,48,o),
(151,48,cs),
(125,48,o),
(115,66,o),
(123,95,cs),
(270,649,l),
(197,649,l),
(52,105,ls),
(30,25,o),
(66,-9,o),
(117,-9,cs)
);
},
{
closed = 1;
nodes = (
(332,482,l),
(340,510,l),
(79,510,l),
(71,482,l)
);
}
);
};
guides = (
{
pos = (15,186);
}
);
layerId = m002;
shapes = (
{
closed = 1;
nodes = (
(168,-9,o),
(224,22,o),
(269,158,cs),
(276,179,o),
(273,186,o),
(262,186,cs),
(255,186,o),
(251,182,o),
(247,173,cs),
(213,75,o),
(185,48,o),
(151,48,cs),
(125,48,o),
(115,66,o),
(123,95,cs),
(220,461,ls),
(223,475,o),
(235,482,o),
(251,482,cs),
(313,482,ls),
(329,482,o),
(337,488,o),
(337,497,cs),
(337,505,o),
(332,510,o),
(317,510,cs),
(252,510,ls),
(241,510,o),
(236,516,o),
(238,525,cs),
(267,636,ls),
(269,645,o),
(264,649,o),
(254,649,cs),
(207,649,ls),
(198,649,o),
(193,646,o),
(191,638,cs),
(163,531,ls),
(160,516,o),
(148,510,o),
(132,510,cs),
(91,510,ls),
(80,510,o),
(71,504,o),
(71,495,cs),
(71,488,o),
(77,482,o),
(87,482,cs),
(131,482,ls),
(141,482,o),
(147,476,o),
(145,467,cs),
(49,105,ls),
(29,25,o),
(66,-9,o),
(117,-9,cs)
);
}
);
width = 313;
}
);
unicode = 116;
},
{
glyphname = u;
kernLeft = u;
kernRight = u;
lastChange = "2022-09-01 20:40:25 +0000";
layers = (
{
anchors = (
{
name = bottom;
pos = (195,0);
},
{
name = ogonek;
pos = (378,0);
},
{
name = top;
pos = (293,510);
},
{
name = topright;
pos = (547,510);
}
);
background = {
shapes = (
{
closed = 1;
nodes = (
(194,-9,o),
(264,51,o),
(329,159,cs),
(370,229,l),
(376,229,l),
(340,96,ls),
(322,26,o),
(340,-9,o),
(396,-9,cs),
(458,-9,o),
(518,57,o),
(559,170,cs),
(564,180,o),
(559,188,o),
(550,188,cs),
(543,188,o),
(537,184,o),
(534,175,cs),
(498,90,o),
(465,48,o),
(432,48,cs),
(411,48,o),
(404,64,o),
(413,95,cs),
(516,483,ls),
(521,499,o),
(512,510,o),
(492,510,cs),
(474,510,ls),
(458,510,o),
(447,503,o),
(444,489,cs),
(385,273,o),
(238,34,o),
(163,34,cs),
(139,34,o),
(133,57,o),
(148,103,cs),
(240,393,ls),
(264,469,o),
(245,516,o),
(190,516,cs),
(121,516,o),
(61,453,o),
(25,341,cs),
(22,329,o),
(25,321,o),
(36,321,cs),
(44,321,o),
(48,325,o),
(51,332,cs),
(77,414,o),
(115,464,o),
(151,464,cs),
(172,464,o),
(178,441,o),
(167,403,cs),
(76,113,ls),
(53,40,o),
(76,-9,o),
(132,-9,cs)
);
}
);
};
layerId = m002;
shapes = (
{
closed = 1;
nodes = (
(194,-9,o),
(270,50,o),
(359,210,cs),
(363,218,o),
(373,216,o),
(370,207,cs),
(340,96,ls),
(322,26,o),
(340,-9,o),
(396,-9,cs),
(458,-9,o),
(518,57,o),
(559,170,cs),
(564,180,o),
(559,188,o),
(550,188,cs),
(543,188,o),
(537,184,o),
(534,175,cs),
(498,90,o),
(465,48,o),
(432,48,cs),
(411,48,o),
(405,64,o),
(413,95,cs),
(521,497,ls),
(523,506,o),
(519,510,o),
(508,510,cs),
(462,510,ls),
(453,510,o),
(448,507,o),
(446,499,cs),
(390,283,o),
(238,34,o),
(163,34,cs),
(139,34,o),
(133,57,o),
(148,103,cs),
(240,393,ls),
(264,469,o),
(245,516,o),
(190,516,cs),
(121,516,o),
(61,453,o),
(25,341,cs),
(22,329,o),
(25,321,o),
(36,321,cs),
(44,321,o),
(48,325,o),
(51,332,cs),
(77,414,o),
(115,464,o),
(151,464,cs),
(172,464,o),
(178,441,o),
(167,403,cs),
(76,113,ls),
(53,40,o),
(76,-9,o),
(132,-9,cs)
);
}
);
width = 584;
}
);
unicode = 117;
},
{
glyphname = v;
lastChange = "2022-09-01 20:40:32 +0000";
layers = (
{
background = {
shapes = (
{
closed = 1;
nodes = (
(325,-9,o),
(481,207,o),
(481,410,cs),
(481,480,o),
(462,516,o),
(425,516,cs),
(401,516,o),
(386,501,o),
(386,477,cs),
(386,437,o),
(429,416,o),
(429,332,cs),
(429,193,o),
(301,26,o),
(195,26,cs),
(151,26,o),
(135,57,o),
(152,113,cs),
(243,411,ls),
(262,476,o),
(243,516,o),
(191,516,cs),
(123,516,o),
(63,448,o),
(20,321,c),
(47,321,l),
(86,418,o),
(117,459,o),
(151,459,cs),
(171,459,o),
(178,442,o),
(169,412,cs),
(80,123,ls),
(57,46,o),
(98,-9,o),
(179,-9,c)
);
}
);
};
layerId = m002;
shapes = (
{
closed = 1;
nodes = (
(308,-9,o),
(458,207,o),
(458,410,cs),
(458,480,o),
(439,516,o),
(402,516,cs),
(378,516,o),
(363,501,o),
(363,477,cs),
(363,437,o),
(406,416,o),
(406,332,cs),
(406,193,o),
(278,26,o),
(190,26,cs),
(151,26,o),
(135,57,o),
(152,113,cs),
(243,411,ls),
(262,476,o),
(243,516,o),
(191,516,cs),
(125,516,o),
(68,454,o),
(24,335,cs),
(21,325,o),
(26,319,o),
(34,319,cs),
(43,319,o),
(47,323,o),
(51,331,cs),
(87,421,o),
(117,459,o),
(150,459,cs),
(170,459,o),
(177,442,o),
(168,412,cs),
(79,123,ls),
(56,46,o),
(98,-9,o),
(174,-9,cs)
);
}
);
width = 474;
}
);
unicode = 118;
},
{
glyphname = w;
kernLeft = w;
kernRight = w;
lastChange = "2022-09-01 20:49:11 +0000";
layers = (
{
anchors = (
{
name = bottom;
pos = (246,0);
},
{
name = top;
pos = (396,510);
}
);
background = {
shapes = (
{
closed = 1;
nodes = (
(225,-9,o),
(286,45,o),
(335,138,c),
(346,138,l),
(436,488,l),
(419,489,l),
(347,173,o),
(248,26,o),
(172,26,cs),
(147,26,o),
(132,46,o),
(146,92,cs),
(243,411,ls),
(262,476,o),
(243,516,o),
(191,516,cs),
(125,516,o),
(68,454,o),
(24,335,cs),
(21,325,o),
(26,319,o),
(34,319,cs),
(43,319,o),
(47,323,o),
(51,331,cs),
(87,421,o),
(117,459,o),
(150,459,cs),
(170,459,o),
(177,442,o),
(168,412,cs),
(76,110,ls),
(54,37,o),
(94,-9,o),
(160,-9,cs)
);
},
{
closed = 1;
nodes = (
(558,-9,o),
(681,207,o),
(681,410,cs),
(681,480,o),
(674,516,o),
(637,516,cs),
(613,516,o),
(598,501,o),
(598,477,cs),
(598,437,o),
(629,416,o),
(629,332,cs),
(629,193,o),
(526,26,o),
(436,26,cs),
(406,26,o),
(392,48,o),
(402,92,cs),
(491,483,ls),
(494,499,o),
(486,510,o),
(467,510,cs),
(448,510,ls),
(432,510,o),
(422,503,o),
(419,489,cs),
(332,110,ls),
(316,37,o),
(354,-9,o),
(421,-9,cs)
);
}
);
};
guides = (
{
angle = 78.8592;
pos = (389,288);
},
{
angle = 78.6901;
pos = (331,325);
}
);
layerId = m002;
shapes = (
{
closed = 1;
nodes = (
(227,-9,o),
(278,50,o),
(322,125,cs),
(327,133,o),
(336,131,o),
(334,122,cs),
(314,37,o),
(354,-9,o),
(421,-9,cs),
(558,-9,o),
(681,207,o),
(681,410,cs),
(681,480,o),
(674,516,o),
(637,516,cs),
(613,516,o),
(598,501,o),
(598,477,cs),
(598,437,o),
(629,416,o),
(629,332,cs),
(629,193,o),
(526,26,o),
(436,26,cs),
(406,26,o),
(392,48,o),
(402,92,cs),
(494,497,ls),
(497,506,o),
(492,510,o),
(482,510,cs),
(437,510,ls),
(428,510,o),
(423,507,o),
(421,499,c),
(350,189,o),
(247,26,o),
(172,26,cs),
(147,26,o),
(132,46,o),
(146,92,cs),
(243,411,ls),
(262,476,o),
(243,516,o),
(191,516,cs),
(125,516,o),
(68,454,o),
(24,335,cs),
(21,325,o),
(26,319,o),
(34,319,cs),
(43,319,o),
(47,323,o),
(51,331,cs),
(87,421,o),
(117,459,o),
(150,459,cs),
(170,459,o),
(177,442,o),
(168,412,cs),
(76,110,ls),
(54,37,o),
(94,-9,o),
(158,-9,cs)
);
}
);
width = 700;
}
);
unicode = 119;
},
{
glyphname = x;
lastChange = "2022-09-01 20:49:22 +0000";
layers = (
{
background = {
shapes = (
{
closed = 1;
nodes = (
(377,-9,o),
(442,32,o),
(462,169,cs),
(463,180,o),
(460,187,o),
(451,187,cs),
(444,187,o),
(437,183,o),
(435,174,cs),
(415,75,o),
(381,43,o),
(352,43,cs),
(329,43,o),
(315,59,o),
(312,100,cs),
(288,421,ls),
(282,490,o),
(255,516,o),
(208,516,cs),
(160,516,o),
(92,474,o),
(64,337,cs),
(62,326,o),
(68,319,o),
(77,319,cs),
(84,319,o),
(90,323,o),
(92,332,cs),
(112,431,o),
(145,459,o),
(178,459,cs),
(197,459,o),
(209,446,o),
(212,412,cs),
(237,95,ls),
(243,19,o),
(273,-9,o),
(330,-9,cs)
);
},
{
closed = 1;
nodes = (
(225,268,l),
(182,141,o),
(130,46,o),
(90,46,cs),
(56,46,o),
(70,99,o),
(21,99,cs),
(-8,99,o),
(-24,77,o),
(-24,46,cs),
(-24,13,o),
(-4,-10,o),
(38,-10,cs),
(100,-10,o),
(152,36,o),
(197,127,cs),
(224,185,l),
(238,185,l)
);
},
{
closed = 1;
nodes = (
(297,261,l),
(317,365,o),
(377,460,o),
(417,460,cs),
(448,460,o),
(435,407,o),
(484,407,cs),
(514,407,o),
(532,429,o),
(532,460,cs),
(532,493,o),
(509,516,o),
(467,516,cs),
(405,516,o),
(355,472,o),
(308,379,cs),
(298,358,l),
(285,358,l)
);
}
);
};
layerId = m002;
shapes = (
{
closed = 1;
nodes = (
(100,-10,o),
(153,36,o),
(197,127,cs),
(217,171,ls),
(222,179,o),
(230,179,o),
(231,170,cs),
(237,95,ls),
(243,19,o),
(273,-9,o),
(330,-9,cs),
(377,-9,o),
(442,32,o),
(462,169,cs),
(463,180,o),
(460,187,o),
(451,187,cs),
(444,187,o),
(437,183,o),
(435,174,cs),
(415,75,o),
(381,43,o),
(352,43,cs),
(329,43,o),
(315,59,o),
(312,100,cs),
(301,246,ls),
(300,264,o),
(300,277,o),
(305,296,cs),
(330,385,o),
(382,460,o),
(417,460,cs),
(448,460,o),
(435,407,o),
(484,407,cs),
(514,407,o),
(532,429,o),
(532,460,cs),
(532,493,o),
(509,516,o),
(467,516,cs),
(409,516,o),
(361,478,o),
(306,373,cs),
(301,365,o),
(292,366,o),
(291,374,cs),
(288,421,ls),
(283,490,o),
(255,516,o),
(208,516,cs),
(160,516,o),
(92,474,o),
(64,337,cs),
(62,326,o),
(68,319,o),
(77,319,cs),
(84,319,o),
(90,323,o),
(92,332,cs),
(112,431,o),
(145,459,o),
(178,459,cs),
(197,459,o),
(209,446,o),
(212,412,cs),
(221,288,ls),
(222,269,o),
(221,256,o),
(214,238,cs),
(174,126,o),
(128,46,o),
(90,46,cs),
(56,46,o),
(70,99,o),
(21,99,cs),
(-8,99,o),
(-24,77,o),
(-24,46,cs),
(-24,13,o),
(-4,-10,o),
(38,-10,cs)
);
}
);
width = 518;
}
);
unicode = 120;
},
{
glyphname = y;
kernLeft = y;
kernRight = y;
lastChange = "2022-09-01 20:21:06 +0000";
layers = (
{
anchors = (
{
name = bottom;
pos = (149,0);
},
{
name = top;
pos = (267,510);
}
);
background = {
shapes = (
{
closed = 1;
nodes = (
(166,-215,o),
(469,177,o),
(469,410,cs),
(469,480,o),
(451,516,o),
(414,516,cs),
(390,516,o),
(375,501,o),
(375,477,cs),
(375,437,o),
(417,416,o),
(417,332,cs),
(417,240,o),
(343,118,o),
(264,24,c),
(259,24,l),
(241,421,ls),
(238,490,o),
(209,516,o),
(162,516,cs),
(114,516,o),
(46,474,o),
(18,337,cs),
(16,326,o),
(22,319,o),
(31,319,cs),
(38,319,o),
(44,323,o),
(46,332,cs),
(66,431,o),
(99,459,o),
(132,459,cs),
(151,459,o),
(164,446,o),
(166,412,cs),
(183,53,ls),
(189,-76,o),
(93,-173,o),
(8,-173,cs),
(-45,-173,o),
(-21,-106,o),
(-72,-106,cs),
(-90,-106,o),
(-107,-120,o),
(-107,-148,cs),
(-107,-186,o),
(-78,-215,o),
(-27,-215,cs)
);
}
);
};
layerId = m002;
shapes = (
{
closed = 1;
nodes = (
(166,-215,o),
(469,177,o),
(469,410,cs),
(469,480,o),
(451,516,o),
(414,516,cs),
(390,516,o),
(375,501,o),
(375,477,cs),
(375,437,o),
(417,416,o),
(417,332,cs),
(417,245,o),
(352,131,o),
(273,33,cs),
(266,25,o),
(258,27,o),
(258,37,cs),
(241,421,ls),
(238,490,o),
(209,516,o),
(162,516,cs),
(114,516,o),
(46,474,o),
(18,337,cs),
(16,326,o),
(22,319,o),
(31,319,cs),
(38,319,o),
(44,323,o),
(46,332,cs),
(66,431,o),
(99,459,o),
(132,459,cs),
(151,459,o),
(164,446,o),
(166,412,cs),
(183,53,ls),
(189,-76,o),
(93,-173,o),
(8,-173,cs),
(-45,-173,o),
(-21,-106,o),
(-72,-106,cs),
(-90,-106,o),
(-107,-120,o),
(-107,-148,cs),
(-107,-186,o),
(-78,-215,o),
(-27,-215,cs)
);
}
);
width = 481;
}
);
metricRight = v;
unicode = 121;
},
{
glyphname = z;
kernLeft = z;
kernRight = z;
lastChange = "2022-09-01 20:49:33 +0000";
layers = (
{
anchors = (
{
name = bottom;
pos = (139,0);
},
{
name = center;
pos = (198,255);
},
{
name = top;
pos = (257,510);
}
);
background = {
shapes = (
{
closed = 1;
nodes = (
(26,-9,o),
(66,32,o),
(79,66,c),
(369,401,ls),
(422,462,o),
(462,472,o),
(462,500,cs),
(462,510,o),
(455,516,o),
(444,516,cs),
(417,516,o),
(381,474,o),
(368,439,c),
(53,77,l),
(13,57,o),
(-13,31,o),
(-13,6,cs),
(-13,-3,o),
(-9,-9,o),
(0,-9,cs)
);
},
{
closed = 1;
nodes = (
(376,186,o),
(370,182,o),
(370,173,cs),
(370,93,o),
(350,60,o),
(305,60,cs),
(262,60,o),
(199,95,o),
(150,95,cs),
(123,95,o),
(110,89,o),
(99,80,c),
(80,80,l),
(66,56,l),
(72,57,o),
(83,58,o),
(90,58,cs),
(163,58,o),
(205,-9,o),
(273,-9,cs),
(332,-9,o),
(398,33,o),
(398,168,cs),
(398,179,o),
(393,186,o),
(384,186,cs)
);
},
{
closed = 1;
nodes = (
(71,319,o),
(77,323,o),
(77,332,cs),
(77,412,o),
(98,447,o),
(143,447,cs),
(185,447,o),
(233,406,o),
(298,406,cs),
(319,406,o),
(334,412,o),
(345,421,c),
(363,421,l),
(378,445,l),
(371,444,o),
(361,443,o),
(354,443,cs),
(281,443,o),
(243,516,o),
(175,516,cs),
(115,516,o),
(49,474,o),
(49,337,cs),
(49,326,o),
(54,319,o),
(63,319,cs)
);
}
);
};
guides = (
{
pos = (29,319);
},
{
pos = (29,186);
}
);
layerId = m002;
shapes = (
{
closed = 1;
nodes = (
(21,-9,o),
(51,14,o),
(66,42,cs),
(72,53,o),
(84,58,o),
(102,58,cs),
(156,59,o),
(190,-9,o),
(273,-9,cs),
(332,-9,o),
(398,33,o),
(398,168,cs),
(398,179,o),
(393,186,o),
(384,186,cs),
(376,186,o),
(370,182,o),
(370,173,cs),
(370,93,o),
(350,60,o),
(305,60,cs),
(262,60,o),
(199,95,o),
(150,95,cs),
(136,95,o),
(126,93,o),
(118,90,cs),
(107,86,o),
(102,92,o),
(108,99,cs),
(369,401,ls),
(422,462,o),
(462,472,o),
(462,500,cs),
(462,510,o),
(455,516,o),
(444,516,cs),
(421,516,o),
(391,485,o),
(375,455,cs),
(371,447,o),
(367,443,o),
(356,443,cs),
(275,442,o),
(264,516,o),
(175,516,cs),
(115,516,o),
(49,474,o),
(49,337,cs),
(49,326,o),
(54,319,o),
(63,319,cs),
(71,319,o),
(77,323,o),
(77,332,cs),
(77,412,o),
(98,447,o),
(143,447,cs),
(185,447,o),
(233,406,o),
(294,406,cs),
(305,406,o),
(319,408,o),
(327,411,cs),
(337,415,o),
(343,411,o),
(335,401,cs),
(53,77,l),
(13,57,o),
(-13,31,o),
(-13,6,cs),
(-13,-3,o),
(-9,-9,o),
(0,-9,cs)
);
}
);
width = 443;
}
);
unicode = 122;
},
{
glyphname = a.ss01;
kernLeft = a;
kernRight = a;
lastChange = "2022-08-27 16:36:11 +0000";
layers = (
{
background = {
shapes = (
{
closed = 1;
nodes = (
(162,-9,o),
(222,36,o),
(284,135,cs),
(319,190,l),
(354,190,l),
(424,471,l),
(416,471,l),
(401,500,o),
(373,516,o),
(334,516,cs),
(184,516,o),
(15,303,o),
(15,113,cs),
(15,33,o),
(47,-9,o),
(103,-9,cs)
);
},
{
closed = 1;
nodes = (
(109,42,o),
(93,55,o),
(93,102,cs),
(93,275,o),
(229,491,o),
(330,491,cs),
(361,491,o),
(379,469,o),
(379,430,cs),
(379,318,o),
(223,42,o),
(131,42,cs)
);
},
{
closed = 1;
nodes = (
(521,177,o),
(519,186,o),
(508,186,cs),
(500,186,o),
(496,182,o),
(493,175,cs),
(465,88,o),
(438,48,o),
(402,48,cs),
(374,48,o),
(368,71,o),
(379,113,cs),
(482,496,ls),
(484,505,o),
(478,510,o),
(470,510,cs),
(461,510,o),
(454,506,o),
(445,496,cs),
(389,433,l),
(304,114,ls),
(283,38,o),
(312,-9,o),
(371,-9,cs),
(440,-9,o),
(489,41,o),
(519,166,cs)
);
}
);
};
guides = (
{
angle = -26.565;
pos = (205,61);
showMeasurement = 1;
}
);
layerId = m002;
shapes = (
{
closed = 1;
nodes = (
(161,-9,o),
(222,37,o),
(307,172,cs),
(312,180,o),
(321,178,o),
(319,169,cs),
(304,114,ls),
(283,38,o),
(312,-9,o),
(371,-9,cs),
(440,-9,o),
(489,41,o),
(519,166,cs),
(521,177,o),
(519,186,o),
(508,186,cs),
(500,186,o),
(496,182,o),
(493,175,cs),
(465,88,o),
(438,48,o),
(402,48,cs),
(374,48,o),
(368,71,o),
(379,113,cs),
(482,496,ls),
(484,505,o),
(478,510,o),
(470,510,cs),
(461,510,o),
(452,506,o),
(435,485,cs),
(430,479,o),
(427,476,o),
(421,476,cs),
(415,476,o),
(412,479,o),
(407,485,cs),
(390,506,o),
(362,516,o),
(334,516,cs),
(184,516,o),
(15,303,o),
(15,113,cs),
(15,33,o),
(47,-9,o),
(102,-9,cs)
);
},
{
closed = 1;
nodes = (
(107,42,o),
(93,55,o),
(93,102,cs),
(93,275,o),
(229,491,o),
(330,491,cs),
(361,491,o),
(379,469,o),
(379,430,cs),
(379,318,o),
(223,42,o),
(131,42,cs)
);
}
);
width = 545;
}
);
},
{
glyphname = c.ss01;
kernLeft = o;
kernRight = c;
lastChange = "2022-08-27 16:33:08 +0000";
layers = (
{
anchors = (
{
name = bottom;
pos = (131,0);
},
{
name = top;
pos = (265,510);
}
);
background = {
shapes = (
{
closed = 1;
nodes = (
(254,-9,o),
(338,70,o),
(362,179,cs),
(367,196,o),
(366,201,o),
(356,201,cs),
(348,201,o),
(343,198,o),
(340,191,cs),
(299,90,o),
(252,43,o),
(192,43,cs),
(130,43,o),
(98,87,o),
(98,169,cs),
(98,323,o),
(200,491,o),
(294,491,cs),
(334,491,o),
(345,468,o),
(345,384,cs),
(345,343,ls),
(345,333,o),
(350,329,o),
(359,329,cs),
(366,329,o),
(370,333,o),
(373,342,cs),
(404,473,ls),
(406,483,o),
(405,485,o),
(398,490,cs),
(371,508,o),
(344,516,o),
(305,516,cs),
(166,516,o),
(17,332,o),
(17,153,cs),
(17,58,o),
(78,-9,o),
(163,-9,cs)
);
}
);
};
guides = (
{
angle = 78.25;
pos = (337,405);
}
);
layerId = m002;
shapes = (
{
closed = 1;
nodes = (
(254,-9,o),
(338,70,o),
(362,179,cs),
(367,196,o),
(366,201,o),
(356,201,cs),
(348,201,o),
(343,198,o),
(340,191,cs),
(299,90,o),
(252,43,o),
(192,43,cs),
(130,43,o),
(98,87,o),
(98,169,cs),
(98,323,o),
(199,488,o),
(286,488,cs),
(317,488,o),
(332,475,o),
(337,414,cs),
(343,343,ls),
(344,333,o),
(348,328,o),
(358,328,cs),
(365,328,o),
(370,333,o),
(373,342,cs),
(404,473,ls),
(406,483,o),
(405,485,o),
(398,490,cs),
(371,508,o),
(344,516,o),
(305,516,cs),
(166,516,o),
(17,332,o),
(17,153,cs),
(17,58,o),
(78,-9,o),
(163,-9,cs)
);
}
);
width = 404;
}
);
},
{
glyphname = d.ss01;
kernLeft = o;
kernRight = d;
lastChange = "2022-08-27 16:36:33 +0000";
layers = (
{
background = {
shapes = (
{
closed = 1;
nodes = (
(162,-9,o),
(222,36,o),
(284,135,cs),
(313,181,l),
(348,181,l),
(424,471,l),
(416,471,l),
(401,500,o),
(373,516,o),
(334,516,cs),
(184,516,o),
(15,303,o),
(15,113,cs),
(15,33,o),
(47,-9,o),
(103,-9,cs)
);
},
{
closed = 1;
nodes = (
(109,42,o),
(93,55,o),
(93,102,cs),
(93,275,o),
(229,491,o),
(330,491,cs),
(361,491,o),
(379,469,o),
(379,430,cs),
(379,318,o),
(223,42,o),
(131,42,cs)
);
},
{
closed = 1;
nodes = (
(300,114,ls),
(279,38,o),
(308,-9,o),
(368,-9,cs),
(437,-9,o),
(489,41,o),
(519,166,cs),
(521,177,o),
(519,186,o),
(508,186,cs),
(500,186,o),
(496,182,o),
(493,175,cs),
(465,88,o),
(438,48,o),
(402,48,cs),
(374,48,o),
(368,71,o),
(379,113,cs),
(543,728,ls),
(545,738,o),
(540,743,o),
(532,743,cs),
(526,743,o),
(521,741,o),
(515,737,cs),
(489,718,o),
(445,708,o),
(390,700,cs),
(381,699,o),
(375,695,o),
(374,689,cs),
(373,682,o),
(377,677,o),
(389,676,cs),
(423,673,ls),
(445,671,o),
(451,664,o),
(444,640,cs)
);
}
);
};
layerId = m002;
shapes = (
{
closed = 1;
nodes = (
(162,-9,o),
(228,38,o),
(301,163,cs),
(306,171,o),
(315,169,o),
(313,160,cs),
(300,114,ls),
(279,38,o),
(308,-9,o),
(368,-9,cs),
(437,-9,o),
(489,41,o),
(519,166,cs),
(521,177,o),
(519,186,o),
(508,186,cs),
(500,186,o),
(496,182,o),
(493,175,cs),
(465,88,o),
(438,48,o),
(402,48,cs),
(374,48,o),
(368,71,o),
(379,113,cs),
(543,728,ls),
(545,738,o),
(540,743,o),
(532,743,cs),
(526,743,o),
(521,741,o),
(515,737,cs),
(489,718,o),
(445,708,o),
(390,700,cs),
(381,699,o),
(375,695,o),
(374,689,cs),
(373,682,o),
(377,677,o),
(389,676,cs),
(423,673,ls),
(445,671,o),
(451,664,o),
(444,640,cs),
(407,508,ls),
(405,498,o),
(398,496,o),
(388,502,cs),
(373,511,o),
(355,516,o),
(334,516,cs),
(184,516,o),
(15,303,o),
(15,113,cs),
(15,33,o),
(47,-9,o),
(103,-9,cs)
);
},
{
closed = 1;
nodes = (
(109,42,o),
(93,55,o),
(93,102,cs),
(93,275,o),
(229,491,o),
(330,491,cs),
(361,491,o),
(379,469,o),
(379,430,cs),
(379,318,o),
(223,42,o),
(131,42,cs)
);
}
);
width = 545;
}
);
},
{
glyphname = dcroat.ss01;
kernLeft = o;
kernRight = d;
lastChange = "2022-08-27 16:34:48 +0000";
layers = (
{
layerId = m002;
shapes = (
{
ref = d;
},
{
closed = 1;
nodes = (
(568,578,ls),
(575,578,o),
(581,582,o),
(583,588,cs),
(585,596,ls),
(586,602,o),
(583,606,o),
(576,606,cs),
(260,606,ls),
(253,606,o),
(247,602,o),
(246,596,cs),
(244,588,ls),
(241,582,o),
(245,578,o),
(252,578,cs)
);
}
);
width = 545;
}
);
},
{
glyphname = e.ss01;
kernLeft = o;
kernRight = e;
lastChange = "2022-08-27 16:36:41 +0000";
layers = (
{
background = {
shapes = (
{
closed = 1;
nodes = (
(231,-9,o),
(302,51,o),
(352,169,cs),
(355,178,o),
(353,186,o),
(344,186,cs),
(337,186,o),
(332,183,o),
(330,177,cs),
(293,91,o),
(235,43,o),
(177,43,cs),
(125,43,o),
(93,82,o),
(93,158,cs),
(93,313,o),
(216,491,o),
(301,491,cs),
(328,491,o),
(339,477,o),
(339,449,cs),
(339,360,o),
(251,253,o),
(86,230,c),
(86,206,l),
(279,233,o),
(411,336,o),
(411,433,cs),
(411,484,o),
(381,516,o),
(309,516,cs),
(176,516,o),
(14,327,o),
(14,150,cs),
(14,48,o),
(67,-9,o),
(148,-9,cs)
);
}
);
};
layerId = m002;
shapes = (
{
closed = 1;
nodes = (
(231,-9,o),
(302,51,o),
(352,169,cs),
(355,178,o),
(353,186,o),
(344,186,cs),
(337,186,o),
(332,183,o),
(330,177,cs),
(293,91,o),
(235,43,o),
(177,43,cs),
(125,43,o),
(93,82,o),
(93,158,cs),
(93,167,o),
(93,177,o),
(94,187,cs),
(95,201,o),
(105,209,o),
(121,212,cs),
(294,246,o),
(411,342,o),
(411,433,cs),
(411,484,o),
(381,516,o),
(309,516,cs),
(176,516,o),
(14,327,o),
(14,150,cs),
(14,48,o),
(67,-9,o),
(148,-9,cs)
);
},
{
closed = 1;
nodes = (
(140,376,o),
(233,491,o),
(301,491,cs),
(328,491,o),
(339,477,o),
(339,449,cs),
(339,367,o),
(264,269,o),
(122,236,cs),
(110,233,o),
(102,240,o),
(106,250,cs)
);
}
);
width = 400;
}
);
},
{
glyphname = g.ss01;
kernLeft = g;
kernRight = g;
lastChange = "2022-08-27 16:37:06 +0000";
layers = (
{
background = {
shapes = (
{
closed = 1;
nodes = (
(248,-216,o),
(370,-157,o),
(370,-56,cs),
(370,-4,o),
(338,40,o),
(236,70,cs),
(148,96,o),
(139,103,o),
(139,118,cs),
(139,130,o),
(153,142,o),
(222,172,cs),
(288,200,ls),
(366,234,o),
(429,308,o),
(429,389,cs),
(429,425,o),
(417,455,o),
(397,477,c),
(397,482,l),
(494,482,ls),
(508,482,o),
(518,487,o),
(518,496,cs),
(518,505,o),
(512,510,o),
(498,510,cs),
(365,510,ls),
(336,510,o),
(322,516,o),
(294,516,cs),
(181,516,o),
(75,418,o),
(75,311,cs),
(75,243,o),
(118,195,o),
(185,186,c),
(185,182,l),
(139,161,ls),
(85,136,o),
(66,118,o),
(66,90,cs),
(66,73,o),
(72,60,o),
(103,45,c),
(103,40,l),
(67,26,ls),
(-29,-12,o),
(-68,-59,o),
(-68,-111,cs),
(-68,-172,o),
(-13,-216,o),
(107,-216,cs)
);
},
{
closed = 1;
nodes = (
(30,-191,o),
(-6,-151,o),
(-6,-98,cs),
(-6,-56,o),
(14,-12,o),
(143,29,c),
(199,11,ls),
(269,-11,o),
(292,-36,o),
(292,-76,cs),
(292,-153,o),
(208,-191,o),
(120,-191,cs)
);
},
{
closed = 1;
nodes = (
(174,206,o),
(152,235,o),
(152,293,cs),
(152,394,o),
(218,495,o),
(291,495,cs),
(330,495,o),
(351,465,o),
(351,408,cs),
(351,307,o),
(284,206,o),
(212,206,cs)
);
}
);
};
layerId = m002;
shapes = (
{
closed = 1;
nodes = (
(248,-216,o),
(370,-157,o),
(370,-60,cs),
(370,-8,o),
(342,30,o),
(256,57,cs),
(158,89,ls),
(108,105,o),
(99,125,o),
(122,137,cs),
(168,161,ls),
(201,179,o),
(220,185,o),
(247,190,cs),
(352,209,o),
(429,297,o),
(429,391,cs),
(429,415,o),
(424,437,o),
(413,458,cs),
(409,464,o),
(412,468,o),
(421,470,cs),
(490,483,ls),
(500,485,o),
(508,490,o),
(508,498,cs),
(508,505,o),
(503,510,o),
(491,510,cs),
(392,510,ls),
(342,510,o),
(334,516,o),
(301,516,cs),
(175,516,o),
(75,418,o),
(75,311,cs),
(75,264,o),
(95,222,o),
(137,201,cs),
(153,193,o),
(152,182,o),
(137,175,cs),
(49,131,ls),
(22,117,o),
(30,79,o),
(74,55,cs),
(90,46,o),
(86,35,o),
(70,27,cs),
(-38,-30,o),
(-68,-72,o),
(-68,-118,cs),
(-68,-172,o),
(-13,-216,o),
(107,-216,cs)
);
},
{
closed = 1;
nodes = (
(30,-191,o),
(-8,-151,o),
(-8,-101,cs),
(-8,-60,o),
(14,-28,o),
(97,12,cs),
(121,23,o),
(150,26,o),
(177,17,cs),
(199,10,ls),
(273,-14,o),
(292,-40,o),
(292,-84,cs),
(292,-151,o),
(208,-191,o),
(120,-191,cs)
);
},
{
closed = 1;
nodes = (
(174,206,o),
(152,232,o),
(152,293,cs),
(152,394,o),
(218,495,o),
(291,495,cs),
(330,495,o),
(351,474,o),
(351,408,cs),
(351,307,o),
(284,206,o),
(212,206,cs)
);
}
);
width = 461;
}
);
},
{
glyphname = f_b;
kernLeft = f;
kernRight = o;
lastChange = "2023-02-22 10:42:26 +0000";
layers = (
{
anchors = (
{
name = bottom_1;
pos = (110,0);
},
{
name = bottom_2;
pos = (447,0);
},
{
name = caret_1;
pos = (337,0);
},
{
name = top_1;
pos = (281,740);
},
{
name = top_2;
pos = (618,740);
}
);
background = {
shapes = (
{
closed = 1;
nodes = (
(85,0,ls),
(94,0,o),
(99,3,o),
(101,11,cs),
(224,472,ls),
(227,479,o),
(231,482,o),
(239,482,cs),
(316,482,ls),
(327,482,o),
(335,487,o),
(337,496,cs),
(339,504,o),
(332,510,o),
(320,510,cs),
(251,510,ls),
(241,510,o),
(236,514,o),
(238,523,cs),
(261,610,ls),
(283,692,o),
(308,717,o),
(344,717,cs),
(400,717,o),
(354,637,o),
(419,637,cs),
(445,637,o),
(465,656,o),
(465,686,cs),
(465,725,o),
(429,748,o),
(375,748,cs),
(275,748,o),
(198,663,o),
(169,550,cs),
(161,518,o),
(139,510,o),
(92,510,cs),
(80,510,o),
(71,505,o),
(71,496,cs),
(71,488,o),
(77,482,o),
(90,482,cs),
(114,482,ls),
(139,482,o),
(148,471,o),
(141,445,cs),
(25,13,ls),
(23,4,o),
(26,0,o),
(37,0,cs)
);
},
{
closed = 1;
nodes = (
(585,-9,o),
(760,204,o),
(760,394,cs),
(760,474,o),
(724,516,o),
(668,516,cs),
(610,516,o),
(545,472,o),
(461,332,cs),
(457,324,o),
(447,326,o),
(450,335,cs),
(554,728,ls),
(557,738,o),
(552,743,o),
(544,743,cs),
(537,743,o),
(532,741,o),
(527,737,cs),
(500,718,o),
(457,708,o),
(401,700,cs),
(392,699,o),
(386,695,o),
(385,689,cs),
(384,682,o),
(389,677,o),
(400,676,cs),
(435,673,ls),
(457,671,o),
(462,664,o),
(455,640,cs),
(327,159,ls),
(297,47,o),
(358,-9,o),
(436,-9,cs)
);
},
{
closed = 1;
nodes = (
(408,16,o),
(390,38,o),
(390,77,cs),
(390,207,o),
(554,464,o),
(638,464,cs),
(669,464,o),
(680,445,o),
(680,395,cs),
(680,232,o),
(540,16,o),
(439,16,cs)
);
}
);
};
layerId = m002;
shapes = (
{
closed = 1;
nodes = (
(585,-9,o),
(760,204,o),
(760,394,cs),
(760,474,o),
(724,516,o),
(668,516,cs),
(610,516,o),
(545,472,o),
(461,332,cs),
(457,324,o),
(447,326,o),
(450,335,cs),
(554,728,ls),
(557,738,o),
(552,743,o),
(543,743,cs),
(536,743,o),
(531,741,o),
(526,737,cs),
(503,723,ls),
(494,718,o),
(489,719,o),
(483,724,cs),
(463,740,o),
(436,748,o),
(402,748,cs),
(275,748,o),
(198,663,o),
(169,550,cs),
(161,518,o),
(139,510,o),
(92,510,cs),
(80,510,o),
(71,505,o),
(71,496,cs),
(71,488,o),
(77,482,o),
(90,482,cs),
(114,482,ls),
(139,482,o),
(148,471,o),
(141,445,cs),
(25,13,ls),
(23,4,o),
(26,0,o),
(37,0,cs),
(85,0,ls),
(94,0,o),
(99,3,o),
(101,11,cs),
(224,472,ls),
(227,479,o),
(231,482,o),
(239,482,cs),
(316,482,ls),
(327,482,o),
(335,487,o),
(337,496,cs),
(339,504,o),
(332,510,o),
(320,510,cs),
(251,510,ls),
(241,510,o),
(236,514,o),
(238,523,cs),
(256,591,ls),
(283,690,o),
(334,723,o),
(389,723,cs),
(446,723,o),
(467,681,o),
(451,621,cs),
(327,159,ls),
(297,47,o),
(358,-9,o),
(436,-9,cs)
);
},
{
closed = 1;
nodes = (
(408,16,o),
(390,38,o),
(390,77,cs),
(390,207,o),
(554,464,o),
(638,464,cs),
(669,464,o),
(680,445,o),
(680,395,cs),
(680,232,o),
(540,16,o),
(439,16,cs)
);
}
);
width = 775;
}
);
metricLeft = f;
metricRight = b;
},
{
glyphname = f_f_i;
lastChange = "2023-02-22 10:42:26 +0000";
layers = (
{
anchors = (
{
name = caret_1;
pos = (238,0);
},
{
name = caret_2;
pos = (476,0);
}
);
background = {
shapes = (
{
closed = 1;
nodes = (
(351,0,ls),
(360,0,o),
(365,3,o),
(367,11,cs),
(490,472,ls),
(492,479,o),
(497,482,o),
(505,482,cs),
(637,482,ls),
(670,482,o),
(675,465,o),
(666,430,cs),
(575,95,ls),
(554,20,o),
(580,-10,o),
(630,-10,cs),
(680,-10,o),
(746,32,o),
(796,169,cs),
(800,180,o),
(796,187,o),
(787,187,cs),
(780,187,o),
(774,183,o),
(770,174,cs),
(729,75,o),
(697,47,o),
(669,47,cs),
(646,47,o),
(642,65,o),
(650,94,cs),
(737,421,ls),
(754,486,o),
(729,510,o),
(659,510,cs),
(516,510,ls),
(507,510,o),
(501,514,o),
(504,523,cs),
(520,583,ls),
(544,673,o),
(574,719,o),
(639,719,cs),
(736,719,o),
(680,617,o),
(753,617,cs),
(780,617,o),
(799,636,o),
(799,666,cs),
(799,705,o),
(759,748,o),
(668,748,cs),
(540,748,o),
(465,663,o),
(435,550,cs),
(291,13,ls),
(289,4,o),
(292,0,o),
(302,0,cs)
);
},
{
closed = 1;
nodes = (
(480,704,l),
(460,720,o),
(432,728,o),
(399,728,cs),
(271,728,o),
(194,643,o),
(169,550,cs),
(161,518,o),
(139,510,o),
(92,510,cs),
(80,510,o),
(71,505,o),
(71,496,cs),
(71,488,o),
(77,482,o),
(90,482,cs),
(114,482,ls),
(139,482,o),
(148,471,o),
(141,445,cs),
(25,13,ls),
(23,4,o),
(26,0,o),
(37,0,cs),
(85,0,ls),
(94,0,o),
(99,3,o),
(101,11,cs),
(224,472,ls),
(227,479,o),
(231,482,o),
(239,482,cs),
(439,482,ls),
(450,482,o),
(458,487,o),
(460,496,cs),
(462,504,o),
(455,510,o),
(443,510,cs),
(251,510,ls),
(241,510,o),
(236,514,o),
(238,523,cs),
(256,591,ls),
(278,670,o),
(330,703,o),
(385,703,cs),
(443,703,o),
(463,661,o),
(447,601,c)
);
}
);
};
layerId = m002;
shapes = (
{
closed = 1;
nodes = (
(680,-10,o),
(746,32,o),
(796,169,cs),
(800,180,o),
(796,187,o),
(787,187,cs),
(780,187,o),
(774,183,o),
(770,174,cs),
(729,75,o),
(697,47,o),
(669,47,cs),
(646,47,o),
(642,65,o),
(650,94,cs),
(737,421,ls),
(754,486,o),
(729,510,o),
(659,510,cs),
(516,510,ls),
(507,510,o),
(501,514,o),
(504,523,cs),
(520,583,ls),
(544,673,o),
(574,719,o),
(639,719,cs),
(736,719,o),
(680,617,o),
(753,617,cs),
(780,617,o),
(799,636,o),
(799,666,cs),
(799,705,o),
(759,748,o),
(668,748,cs),
(600,748,o),
(547,724,o),
(509,688,cs),
(503,682,o),
(497,682,o),
(491,689,cs),
(470,714,o),
(436,728,o),
(388,728,cs),
(271,728,o),
(194,643,o),
(169,550,cs),
(161,518,o),
(139,510,o),
(92,510,cs),
(80,510,o),
(71,505,o),
(71,496,cs),
(71,488,o),
(77,482,o),
(90,482,cs),
(114,482,ls),
(139,482,o),
(148,471,o),
(141,445,cs),
(25,13,ls),
(23,4,o),
(26,0,o),
(37,0,cs),
(85,0,ls),
(94,0,o),
(99,3,o),
(101,11,cs),
(224,472,ls),
(227,479,o),
(231,482,o),
(239,482,cs),
(400,482,ls),
(409,482,o),
(415,478,o),
(413,469,cs),
(291,13,ls),
(289,4,o),
(292,0,o),
(302,0,cs),
(351,0,ls),
(360,0,o),
(365,3,o),
(367,11,cs),
(490,472,ls),
(492,479,o),
(497,482,o),
(505,482,cs),
(637,482,ls),
(670,482,o),
(675,465,o),
(666,430,cs),
(575,95,ls),
(554,20,o),
(580,-10,o),
(630,-10,cs)
);
},
{
closed = 1;
nodes = (
(241,510,o),
(236,514,o),
(238,523,cs),
(256,591,ls),
(278,670,o),
(330,703,o),
(385,703,cs),
(465,703,o),
(459,637,o),
(440,570,cs),
(427,520,ls),
(424,513,o),
(419,510,o),
(411,510,cs),
(251,510,ls)
);
}
);
width = 821;
}
);
metricLeft = f;
metricRight = i;
},
{
glyphname = f_f_l;
lastChange = "2023-02-22 10:42:26 +0000";
layers = (
{
anchors = (
{
name = caret_1;
pos = (238,0);
},
{
name = caret_2;
pos = (476,0);
}
);
background = {
shapes = (
{
closed = 1;
nodes = (
(491,689,l),
(470,714,o),
(436,728,o),
(388,728,cs),
(271,728,o),
(194,643,o),
(169,550,cs),
(161,518,o),
(139,510,o),
(92,510,cs),
(80,510,o),
(71,505,o),
(71,496,cs),
(71,488,o),
(77,482,o),
(90,482,cs),
(114,482,ls),
(139,482,o),
(148,471,o),
(141,445,cs),
(25,13,ls),
(23,4,o),
(26,0,o),
(37,0,cs),
(85,0,ls),
(94,0,o),
(99,3,o),
(101,11,cs),
(224,472,ls),
(227,479,o),
(231,482,o),
(239,482,cs),
(400,482,ls),
(409,482,o),
(415,478,o),
(413,469,cs),
(291,13,ls),
(289,4,o),
(292,0,o),
(302,0,cs),
(351,0,ls),
(360,0,o),
(365,3,o),
(367,11,cs),
(490,472,ls),
(492,479,o),
(497,482,o),
(505,482,cs),
(582,482,ls),
(592,482,o),
(600,487,o),
(603,496,cs),
(605,504,o),
(598,510,o),
(585,510,cs),
(516,510,ls),
(507,510,o),
(501,514,o),
(504,523,cs),
(522,591,ls),
(549,690,o),
(599,723,o),
(654,723,cs),
(712,723,o),
(733,681,o),
(716,621,cs),
(575,95,ls),
(554,20,o),
(580,-10,o),
(630,-10,cs),
(680,-10,o),
(746,32,o),
(796,169,cs),
(800,180,o),
(796,187,o),
(787,187,cs),
(780,187,o),
(774,183,o),
(770,174,cs),
(729,75,o),
(697,47,o),
(669,47,cs),
(646,47,o),
(642,65,o),
(650,94,cs),
(820,728,ls),
(822,738,o),
(818,743,o),
(810,743,cs),
(803,743,o),
(798,741,o),
(784,733,cs),
(768,723,ls),
(760,718,o),
(754,719,o),
(749,724,cs),
(729,740,o),
(702,748,o),
(668,748,cs),
(540,748,o),
(463,663,o),
(435,550,cs),
(427,520,l),
(424,513,o),
(419,510,o),
(411,510,cs),
(251,510,ls),
(241,510,o),
(236,514,o),
(238,523,cs),
(256,591,ls),
(278,670,o),
(330,703,o),
(385,703,cs),
(465,703,o),
(459,637,o),
(440,570,c)
);
}
);
};
layerId = m002;
shapes = (
{
closed = 1;
nodes = (
(680,-10,o),
(746,32,o),
(796,169,cs),
(800,180,o),
(796,187,o),
(787,187,cs),
(780,187,o),
(774,183,o),
(770,174,cs),
(729,75,o),
(697,47,o),
(669,47,cs),
(646,47,o),
(642,65,o),
(650,94,cs),
(820,728,ls),
(822,738,o),
(818,743,o),
(810,743,cs),
(803,743,o),
(798,741,o),
(784,733,cs),
(768,723,ls),
(760,718,o),
(754,719,o),
(749,724,cs),
(729,740,o),
(702,748,o),
(668,748,cs),
(603,748,o),
(552,726,o),
(513,689,cs),
(506,683,o),
(499,683,o),
(493,689,cs),
(467,715,o),
(435,728,o),
(388,728,cs),
(271,728,o),
(194,643,o),
(169,550,cs),
(161,518,o),
(139,510,o),
(92,510,cs),
(80,510,o),
(71,505,o),
(71,496,cs),
(71,488,o),
(77,482,o),
(90,482,cs),
(114,482,ls),
(139,482,o),
(148,471,o),
(141,445,cs),
(25,13,ls),
(23,4,o),
(26,0,o),
(37,0,cs),
(85,0,ls),
(94,0,o),
(99,3,o),
(101,11,cs),
(224,472,ls),
(227,479,o),
(231,482,o),
(239,482,cs),
(400,482,ls),
(409,482,o),
(415,478,o),
(413,469,cs),
(291,13,ls),
(289,4,o),
(292,0,o),
(302,0,cs),
(351,0,ls),
(360,0,o),
(365,3,o),
(367,11,cs),
(490,472,ls),
(492,479,o),
(497,482,o),
(505,482,cs),
(582,482,ls),
(592,482,o),
(600,487,o),
(603,496,cs),
(605,504,o),
(598,510,o),
(585,510,cs),
(516,510,ls),
(507,510,o),
(501,514,o),
(504,523,cs),
(522,591,ls),
(549,690,o),
(599,723,o),
(654,723,cs),
(712,723,o),
(733,681,o),
(716,621,cs),
(575,95,ls),
(554,20,o),
(580,-10,o),
(630,-10,cs)
);
},
{
closed = 1;
nodes = (
(241,510,o),
(236,514,o),
(238,523,cs),
(256,591,ls),
(278,670,o),
(330,703,o),
(385,703,cs),
(465,703,o),
(459,637,o),
(440,570,cs),
(427,520,ls),
(424,513,o),
(419,510,o),
(411,510,cs),
(251,510,ls)
);
}
);
width = 821;
}
);
metricLeft = f;
metricRight = l;
},
{
glyphname = f_h;
kernLeft = f;
kernRight = n;
lastChange = "2023-02-22 10:42:32 +0000";
layers = (
{
anchors = (
{
name = bottom_1;
pos = (124,0);
},
{
name = bottom_2;
pos = (489,0);
},
{
name = caret_1;
pos = (365.5,0);
},
{
name = top_1;
pos = (295,740);
},
{
name = top_2;
pos = (660,740);
}
);
layerId = m002;
shapes = (
{
closed = 1;
nodes = (
(702,-9,o),
(757,29,o),
(800,166,cs),
(804,177,o),
(802,186,o),
(790,186,cs),
(782,186,o),
(777,182,o),
(775,175,cs),
(742,76,o),
(714,48,o),
(683,48,cs),
(659,48,o),
(647,66,o),
(659,104,cs),
(746,394,ls),
(772,476,o),
(741,516,o),
(684,516,cs),
(624,516,o),
(545,463,o),
(453,300,cs),
(448,292,o),
(439,294,o),
(442,303,cs),
(554,728,ls),
(557,738,o),
(551,743,o),
(543,743,cs),
(536,743,o),
(531,741,o),
(526,737,cs),
(503,723,ls),
(494,718,o),
(489,719,o),
(483,724,cs),
(463,740,o),
(436,748,o),
(402,748,cs),
(275,748,o),
(198,663,o),
(169,550,cs),
(161,518,o),
(139,510,o),
(92,510,cs),
(80,510,o),
(71,505,o),
(71,496,cs),
(71,488,o),
(77,482,o),
(90,482,cs),
(114,482,ls),
(139,482,o),
(148,471,o),
(141,445,cs),
(25,13,ls),
(23,4,o),
(26,0,o),
(37,0,cs),
(85,0,ls),
(94,0,o),
(99,3,o),
(101,11,cs),
(224,472,ls),
(227,479,o),
(231,482,o),
(239,482,cs),
(316,482,ls),
(327,482,o),
(335,487,o),
(337,496,cs),
(339,504,o),
(332,510,o),
(320,510,cs),
(251,510,ls),
(241,510,o),
(236,514,o),
(238,523,cs),
(256,591,ls),
(283,690,o),
(334,723,o),
(389,723,cs),
(446,723,o),
(467,681,o),
(451,621,cs),
(288,13,ls),
(285,4,o),
(290,0,o),
(300,0,cs),
(348,0,ls),
(358,0,o),
(362,3,o),
(365,11,cs),
(419,219,o),
(568,473,o),
(653,473,cs),
(675,473,o),
(690,456,o),
(674,404,cs),
(585,114,ls),
(560,30,o),
(595,-9,o),
(650,-9,cs)
);
}
);
width = 827;
}
);
metricLeft = f;
metricRight = h;
},
{
glyphname = f_i;
kernLeft = f;
kernRight = i;
lastChange = "2023-02-22 10:42:26 +0000";
layers = (
{
anchors = (
{
name = bottom_1;
pos = (62,0);
},
{
name = bottom_2;
pos = (303,0);
},
{
name = caret_1;
pos = (241.5,0);
},
{
name = top_1;
pos = (233,740);
},
{
name = top_2;
pos = (474,740);
}
);
background = {
shapes = (
{
closed = 1;
nodes = (
(85,0,ls),
(94,0,o),
(99,3,o),
(101,11,cs),
(224,472,ls),
(227,479,o),
(231,482,o),
(239,482,cs),
(339,482,ls),
(350,482,o),
(358,487,o),
(360,496,cs),
(362,504,o),
(355,510,o),
(343,510,cs),
(251,510,ls),
(241,510,o),
(236,514,o),
(238,523,cs),
(261,610,ls),
(283,692,o),
(308,717,o),
(344,717,cs),
(400,717,o),
(354,637,o),
(419,637,cs),
(445,637,o),
(465,656,o),
(465,686,cs),
(465,725,o),
(429,748,o),
(375,748,cs),
(275,748,o),
(198,663,o),
(169,550,cs),
(161,518,o),
(139,510,o),
(92,510,cs),
(80,510,o),
(71,505,o),
(71,496,cs),
(71,488,o),
(77,482,o),
(90,482,cs),
(114,482,ls),
(139,482,o),
(148,471,o),
(141,445,cs),
(25,13,ls),
(23,4,o),
(26,0,o),
(37,0,cs)
);
},
{
closed = 1;
nodes = (
(483,-10,o),
(550,32,o),
(599,169,cs),
(604,180,o),
(599,187,o),
(590,187,cs),
(583,187,o),
(577,183,o),
(574,174,cs),
(532,75,o),
(500,47,o),
(473,47,cs),
(450,47,o),
(445,65,o),
(453,94,cs),
(538,411,ls),
(558,486,o),
(534,516,o),
(481,516,cs),
(431,516,o),
(367,474,o),
(317,337,cs),
(313,326,o),
(317,319,o),
(327,319,cs),
(334,319,o),
(339,323,o),
(343,332,cs),
(384,431,o),
(416,459,o),
(444,459,cs),
(467,459,o),
(471,441,o),
(463,412,cs),
(378,95,ls),
(359,20,o),
(383,-10,o),
(434,-10,cs)
);
},
{
closed = 1;
nodes = (
(562,605,o),
(593,628,o),
(593,665,cs),
(593,692,o),
(570,710,o),
(539,710,cs),
(507,710,o),
(477,687,o),
(477,651,cs),
(477,625,o),
(499,605,o),
(528,605,cs)
);
}
);
};
layerId = m002;
shapes = (
{
closed = 1;
nodes = (
(85,0,ls),
(94,0,o),
(99,3,o),
(101,11,cs),
(224,472,ls),
(227,479,o),
(231,482,o),
(239,482,cs),
(371,482,ls),
(405,482,o),
(409,465,o),
(400,430,cs),
(309,95,ls),
(289,20,o),
(314,-10,o),
(365,-10,cs),
(414,-10,o),
(481,32,o),
(530,169,cs),
(535,180,o),
(530,187,o),
(521,187,cs),
(514,187,o),
(508,183,o),
(505,174,cs),
(463,75,o),
(431,47,o),
(404,47,cs),
(381,47,o),
(376,65,o),
(384,94,cs),
(471,421,ls),
(489,486,o),
(463,510,o),
(393,510,cs),
(251,510,ls),
(241,510,o),
(236,514,o),
(238,523,cs),
(254,583,ls),
(278,673,o),
(308,719,o),
(374,719,cs),
(470,719,o),
(414,617,o),
(488,617,cs),
(514,617,o),
(534,636,o),
(534,666,cs),
(534,705,o),
(493,748,o),
(402,748,cs),
(275,748,o),
(198,663,o),
(169,550,cs),
(161,518,o),
(139,510,o),
(92,510,cs),
(80,510,o),
(71,505,o),
(71,496,cs),
(71,488,o),
(77,482,o),
(90,482,cs),
(114,482,ls),
(139,482,o),
(148,471,o),
(141,445,cs),
(25,13,ls),
(23,4,o),
(26,0,o),
(37,0,cs)
);
}
);
width = 555;
}
);
metricLeft = f;
metricRight = i;
},
{
glyphname = f_l;
kernLeft = f;
kernRight = l;
lastChange = "2023-02-22 10:42:32 +0000";
layers = (
{
anchors = (
{
name = bottom_1;
pos = (65,0);
},
{
name = bottom_2;
pos = (312,0);
},
{
name = caret_1;
pos = (247.5,0);
},
{
name = top_1;
pos = (236,740);
},
{
name = top_2;
pos = (483,740);
}
);
layerId = m002;
shapes = (
{
closed = 1;
nodes = (
(414,-10,o),
(481,32,o),
(530,169,cs),
(535,180,o),
(530,187,o),
(521,187,cs),
(514,187,o),
(508,183,o),
(505,174,cs),
(463,75,o),
(431,47,o),
(404,47,cs),
(381,47,o),
(376,65,o),
(384,94,cs),
(554,728,ls),
(557,738,o),
(552,743,o),
(544,743,cs),
(537,743,o),
(532,741,o),
(519,733,cs),
(503,723,ls),
(494,718,o),
(489,719,o),
(483,724,cs),
(463,740,o),
(436,748,o),
(402,748,cs),
(275,748,o),
(198,663,o),
(169,550,cs),
(161,518,o),
(139,510,o),
(92,510,cs),
(80,510,o),
(71,505,o),
(71,496,cs),
(71,488,o),
(77,482,o),
(90,482,cs),
(114,482,ls),
(139,482,o),
(148,471,o),
(141,445,cs),
(25,13,ls),
(23,4,o),
(26,0,o),
(37,0,cs),
(85,0,ls),
(94,0,o),
(99,3,o),
(101,11,cs),
(224,472,ls),
(227,479,o),
(231,482,o),
(239,482,cs),
(316,482,ls),
(327,482,o),
(335,487,o),
(337,496,cs),
(339,504,o),
(332,510,o),
(320,510,cs),
(251,510,ls),
(241,510,o),
(236,514,o),
(238,523,cs),
(256,591,ls),
(283,690,o),
(334,723,o),
(389,723,cs),
(446,723,o),
(467,681,o),
(451,621,cs),
(309,95,ls),
(289,20,o),
(314,-10,o),
(365,-10,cs)
);
}
);
width = 555;
}
);
metricLeft = f;
metricRight = l;
},
{
glyphname = q_j;
lastChange = "2023-02-22 10:42:26 +0000";
layers = (
{
anchors = (
{
name = bottom_1;
pos = (114,0);
},
{
name = bottom_2;
pos = (459,0);
},
{
name = caret_1;
pos = (345.5,0);
},
{
name = top_1;
pos = (232,510);
},
{
name = top_2;
pos = (577,510);
}
);
layerId = m002;
shapes = (
{
closed = 1;
nodes = (
(269,-205,ls),
(285,-205,o),
(297,-198,o),
(300,-184,cs),
(482,496,ls),
(484,505,o),
(478,510,o),
(470,510,cs),
(461,510,o),
(452,506,o),
(435,485,cs),
(430,479,o),
(427,476,o),
(421,476,cs),
(415,476,o),
(412,479,o),
(407,485,cs),
(390,506,o),
(362,516,o),
(334,516,cs),
(184,516,o),
(15,303,o),
(15,113,cs),
(15,33,o),
(47,-9,o),
(103,-9,cs),
(162,-9,o),
(227,33,o),
(306,171,cs),
(310,179,o),
(320,177,o),
(317,168,cs),
(236,-138,ls),
(228,-168,o),
(217,-178,o),
(186,-180,cs),
(158,-182,ls),
(147,-183,o),
(139,-187,o),
(139,-194,cs),
(139,-200,o),
(143,-205,o),
(154,-205,cs)
);
},
{
closed = 1;
nodes = (
(109,42,o),
(93,55,o),
(93,102,cs),
(93,275,o),
(229,491,o),
(330,491,cs),
(361,491,o),
(379,469,o),
(379,430,cs),
(379,318,o),
(223,42,o),
(131,42,cs)
);
},
{
pos = (425,0);
ref = j;
}
);
width = 795;
}
);
metricLeft = q;
metricRight = j;
},
{
glyphname = ordfeminine;
lastChange = "2022-08-18 20:35:28 +0000";
layers = (
{
layerId = m002;
shapes = (
{
closed = 1;
nodes = (
(215,363,o),
(263,395,o),
(332,489,cs),
(336,495,o),
(344,494,o),
(342,487,cs),
(329,449,ls),
(312,396,o),
(336,363,o),
(383,363,cs),
(438,363,o),
(477,398,o),
(501,485,cs),
(504,495,o),
(500,502,o),
(491,502,cs),
(482,502,o),
(478,496,o),
(476,489,cs),
(453,431,o),
(437,403,o),
(408,403,cs),
(385,403,o),
(381,419,o),
(390,448,cs),
(471,716,ls),
(474,723,o),
(469,726,o),
(462,726,cs),
(455,726,o),
(447,723,o),
(434,709,cs),
(430,704,o),
(428,702,o),
(423,702,cs),
(419,702,o),
(415,704,o),
(412,709,cs),
(398,723,o),
(376,730,o),
(353,730,cs),
(233,730,o),
(98,581,o),
(98,448,cs),
(98,392,o),
(124,363,o),
(168,363,cs)
);
},
{
closed = 1;
nodes = (
(171,405,o),
(161,415,o),
(161,447,cs),
(161,569,o),
(269,706,o),
(351,706,cs),
(375,706,o),
(390,690,o),
(390,663,cs),
(390,585,o),
(256,405,o),
(191,405,cs)
);
}
);
width = 480;
}
);
unicode = 170;
},
{
glyphname = ordmasculine;
lastChange = "2022-08-18 20:36:01 +0000";
layers = (
{
layerId = m002;
shapes = (
{
closed = 1;
nodes = (
(351,363,o),
(460,479,o),
(460,599,cs),
(460,679,o),
(413,730,o),
(339,730,cs),
(227,730,o),
(117,614,o),
(117,495,cs),
(117,415,o),
(164,363,o),
(239,363,cs)
);
},
{
closed = 1;
nodes = (
(199,387,o),
(179,416,o),
(179,475,cs),
(179,590,o),
(259,706,o),
(338,706,cs),
(378,706,o),
(398,677,o),
(398,619,cs),
(398,504,o),
(319,387,o),
(239,387,cs)
);
}
);
width = 422;
}
);
metricLeft = O;
metricRight = O;
unicode = 186;
},
{
glyphname = zero;
lastChange = "2022-08-31 19:16:14 +0000";
layers = (
{
background = {
shapes = (
{
closed = 1;
nodes = (
(429,-9,o),
(519,153,o),
(519,361,cs),
(519,568,o),
(429,730,o),
(296,730,cs),
(161,730,o),
(72,568,o),
(72,361,cs),
(72,153,o),
(161,-9,o),
(296,-9,cs)
);
},
{
closed = 1;
nodes = (
(199,18,o),
(155,130,o),
(155,361,cs),
(155,591,o),
(199,703,o),
(296,703,cs),
(392,703,o),
(436,591,o),
(436,361,cs),
(436,130,o),
(392,18,o),
(296,18,cs)
);
}
);
};
layerId = m002;
shapes = (
{
closed = 1;
nodes = (
(394,-9,o),
(531,299,o),
(531,487,cs),
(531,634,o),
(485,730,o),
(374,730,cs),
(193,730,o),
(55,424,o),
(55,234,cs),
(55,87,o),
(100,-9,o),
(213,-9,cs)
);
},
{
closed = 1;
nodes = (
(143,17,o),
(122,85,o),
(122,164,cs),
(122,312,o),
(217,704,o),
(368,704,cs),
(431,704,o),
(465,658,o),
(465,557,cs),
(465,410,o),
(369,17,o),
(218,17,cs)
);
}
);
width = 530;
}
);
unicode = 48;
},
{
glyphname = one;
lastChange = "2022-08-31 19:17:48 +0000";
layers = (
{
background = {
shapes = (
{
closed = 1;
nodes = (
(191,0,ls),
(202,0,o),
(209,4,o),
(212,11,cs),
(213,17,o),
(209,22,o),
(199,23,cs),
(162,27,ls),
(131,30,o),
(124,38,o),
(131,66,cs),
(304,713,ls),
(307,728,o),
(301,735,o),
(285,735,cs),
(267,735,o),
(229,721,o),
(146,709,cs),
(131,707,o),
(125,701,o),
(123,695,cs),
(122,687,o),
(126,681,o),
(140,682,cs),
(183,686,ls),
(207,688,o),
(222,683,o),
(215,660,cs),
(57,66,ls),
(51,38,o),
(39,30,o),
(6,27,cs),
(-35,23,ls),
(-44,22,o),
(-49,17,o),
(-50,11,cs),
(-52,4,o),
(-48,0,o),
(-38,0,cs)
);
}
);
};
layerId = m002;
shapes = (
{
closed = 1;
nodes = (
(189,0,ls),
(202,0,o),
(209,5,o),
(209,12,cs),
(209,18,o),
(205,22,o),
(195,23,cs),
(160,27,ls),
(129,30,o),
(122,38,o),
(129,66,cs),
(301,713,ls),
(305,728,o),
(299,735,o),
(283,735,cs),
(264,735,o),
(229,721,o),
(146,709,cs),
(129,707,o),
(123,701,o),
(123,693,cs),
(123,687,o),
(128,681,o),
(140,682,cs),
(183,686,ls),
(207,688,o),
(221,683,o),
(215,660,cs),
(57,66,ls),
(51,38,o),
(39,30,o),
(6,27,cs),
(-35,23,ls),
(-45,22,o),
(-50,17,o),
(-50,10,cs),
(-50,4,o),
(-45,0,o),
(-35,0,cs)
);
}
);
width = 530;
}
);
unicode = 49;
},
{
glyphname = two;
lastChange = "2022-08-31 19:14:36 +0000";
layers = (
{
background = {
shapes = (
{
closed = 1;
nodes = (
(324,0,ls),
(342,0,o),
(354,8,o),
(359,23,cs),
(423,211,ls),
(427,222,o),
(422,228,o),
(414,228,cs),
(405,228,o),
(397,223,o),
(393,215,cs),
(370,168,ls),
(327,80,o),
(284,60,o),
(197,60,cs),
(74,60,ls),
(57,60,o),
(49,70,o),
(62,82,cs),
(183,200,ls),
(352,365,o),
(471,468,o),
(499,573,cs),
(526,671,o),
(468,730,o),
(362,730,cs),
(269,730,o),
(159,685,o),
(108,554,cs),
(103,542,o),
(107,534,o),
(117,534,cs),
(126,534,o),
(133,538,o),
(139,550,cs),
(181,647,o),
(260,690,o),
(334,690,cs),
(407,690,o),
(436,644,o),
(414,562,cs),
(390,470,o),
(313,366,o),
(158,214,cs),
(-25,31,ls),
(-32,23,o),
(-35,19,o),
(-36,13,cs),
(-38,4,o),
(-33,0,o),
(-21,0,cs)
);
}
);
};
layerId = m002;
shapes = (
{
closed = 1;
nodes = (
(324,0,ls),
(342,0,o),
(354,4,o),
(359,19,cs),
(421,204,ls),
(424,215,o),
(419,222,o),
(409,222,cs),
(401,222,o),
(396,218,o),
(392,211,cs),
(369,166,ls),
(325,81,o),
(292,60,o),
(204,60,cs),
(75,60,ls),
(54,60,o),
(51,71,o),
(63,83,cs),
(190,207,ls),
(304,319,o),
(505,453,o),
(505,594,cs),
(505,676,o),
(438,730,o),
(332,730,cs),
(250,730,o),
(160,687,o),
(113,568,cs),
(108,556,o),
(113,547,o),
(124,547,cs),
(131,547,o),
(138,550,o),
(143,561,cs),
(183,655,o),
(250,691,o),
(315,691,cs),
(385,691,o),
(422,657,o),
(422,600,cs),
(422,470,o),
(263,323,o),
(166,225,cs),
(-20,37,ls),
(-31,25,o),
(-36,17,o),
(-36,10,cs),
(-36,3,o),
(-31,0,o),
(-19,0,cs)
);
}
);
width = 530;
}
);
unicode = 50;
},
{
glyphname = three;
lastChange = "2022-08-31 19:18:42 +0000";
layers = (
{
background = {
shapes = (
{
closed = 1;
nodes = (
(306,-9,o),
(420,108,o),
(420,236,cs),
(420,356,o),
(345,441,o),
(240,441,cs),
(228,441,o),
(213,439,o),
(201,436,cs),
(193,434,o),
(191,441,o),
(197,445,cs),
(223,461,ls),
(324,522,o),
(371,575,o),
(371,629,cs),
(371,690,o),
(321,730,o),
(244,730,cs),
(154,730,o),
(89,676,o),
(78,594,cs),
(77,583,o),
(83,576,o),
(92,576,cs),
(101,576,o),
(108,582,o),
(109,591,cs),
(121,656,o),
(163,696,o),
(222,696,cs),
(267,696,o),
(293,667,o),
(293,618,cs),
(293,573,o),
(263,529,o),
(197,475,cs),
(114,407,ls),
(103,398,o),
(100,389,o),
(105,383,cs),
(110,377,o),
(120,378,o),
(132,386,cs),
(154,399,o),
(179,405,o),
(210,405,cs),
(294,405,o),
(337,340,o),
(337,212,cs),
(337,96,o),
(277,18,o),
(190,18,cs),
(106,18,o),
(150,96,o),
(92,96,cs),
(68,96,o),
(51,82,o),
(51,60,cs),
(51,18,o),
(102,-9,o),
(183,-9,cs)
);
}
);
};
layerId = m002;
shapes = (
{
closed = 1;
nodes = (
(252,-9,o),
(392,147,o),
(392,272,cs),
(392,377,o),
(331,442,o),
(243,442,cs),
(235,442,o),
(229,441,o),
(221,439,cs),
(212,437,o),
(209,444,o),
(217,447,cs),
(250,461,ls),
(382,518,o),
(442,573,o),
(442,639,cs),
(442,692,o),
(393,730,o),
(313,730,cs),
(235,730,o),
(163,686,o),
(143,604,cs),
(139,592,o),
(144,584,o),
(154,584,cs),
(162,584,o),
(169,589,o),
(171,597,cs),
(191,665,o),
(240,698,o),
(294,698,cs),
(338,698,o),
(362,676,o),
(362,639,cs),
(362,583,o),
(321,535,o),
(227,479,cs),
(129,421,ls),
(117,414,o),
(113,410,o),
(113,404,cs),
(113,395,o),
(123,391,o),
(140,398,cs),
(160,406,o),
(183,412,o),
(212,412,cs),
(284,412,o),
(310,368,o),
(310,287,cs),
(310,169,o),
(239,17,o),
(107,17,cs),
(18,17,o),
(82,108,o),
(15,108,cs),
(-6,108,o),
(-22,92,o),
(-22,66,cs),
(-22,17,o),
(32,-9,o),
(100,-9,cs)
);
}
);
width = 530;
}
);
unicode = 51;
},
{
glyphname = four;
lastChange = "2022-08-31 19:18:03 +0000";
layers = (
{
background = {
shapes = (
{
closed = 1;
nodes = (
(352,0,ls),
(363,0,o),
(370,4,o),
(373,11,cs),
(374,17,o),
(370,21,o),
(360,23,cs),
(335,27,ls),
(304,32,o),
(299,38,o),
(306,66,cs),
(340,196,ls),
(343,205,o),
(350,210,o),
(360,210,cs),
(411,210,ls),
(419,210,o),
(427,215,o),
(428,222,cs),
(437,254,ls),
(438,261,o),
(434,266,o),
(425,266,cs),
(375,266,ls),
(365,266,o),
(361,271,o),
(363,280,cs),
(422,504,ls),
(425,515,o),
(417,518,o),
(405,513,cs),
(358,492,ls),
(350,488,o),
(344,483,o),
(342,476,cs),
(285,266,l),
(86,266,ls),
(76,266,o),
(75,272,o),
(82,280,cs),
(469,703,ls),
(478,713,o),
(476,720,o),
(463,720,cs),
(440,720,ls),
(432,720,o),
(425,717,o),
(420,710,cs),
(22,252,ls),
(12,240,o),
(7,234,o),
(5,227,cs),
(2,217,o),
(8,210,o),
(22,210,cs),
(270,210,l),
(232,66,ls),
(225,40,o),
(217,33,o),
(184,29,cs),
(132,23,ls),
(122,22,o),
(116,17,o),
(115,11,cs),
(113,4,o),
(117,0,o),
(129,0,cs)
);
}
);
};
layerId = m002;
shapes = (
{
closed = 1;
nodes = (
(352,0,ls),
(365,0,o),
(373,4,o),
(373,12,cs),
(373,17,o),
(369,22,o),
(355,24,cs),
(335,27,ls),
(304,31,o),
(299,38,o),
(306,66,cs),
(340,196,ls),
(343,205,o),
(350,210,o),
(360,210,cs),
(411,210,ls),
(419,210,o),
(425,215,o),
(428,222,cs),
(437,254,ls),
(439,261,o),
(434,266,o),
(425,266,cs),
(375,266,ls),
(365,266,o),
(361,271,o),
(363,280,cs),
(422,504,ls),
(425,515,o),
(417,519,o),
(405,513,cs),
(360,492,ls),
(352,488,o),
(346,483,o),
(344,476,cs),
(291,278,ls),
(289,269,o),
(282,266,o),
(273,266,cs),
(86,266,ls),
(76,266,o),
(75,272,o),
(82,280,cs),
(469,703,ls),
(478,713,o),
(476,720,o),
(463,720,cs),
(440,720,ls),
(432,720,o),
(425,717,o),
(420,710,cs),
(22,252,ls),
(10,239,o),
(3,230,o),
(3,222,cs),
(3,215,o),
(9,210,o),
(22,210,cs),
(255,210,ls),
(266,210,o),
(271,204,o),
(269,195,cs),
(235,66,ls),
(228,40,o),
(220,33,o),
(186,29,cs),
(132,23,ls),
(122,22,o),
(115,17,o),
(115,10,cs),
(115,4,o),
(121,0,o),
(132,0,cs)
);
}
);
width = 530;
}
);
unicode = 52;
},
{
glyphname = five;
lastChange = "2022-08-31 19:18:50 +0000";
layers = (
{
background = {
shapes = (
{
closed = 1;
nodes = (
(200,-9,o),
(352,78,o),
(392,229,cs),
(425,354,o),
(375,461,o),
(200,479,cs),
(189,480,o),
(185,484,o),
(190,494,cs),
(263,647,ls),
(268,656,o),
(275,660,o),
(284,660,cs),
(474,660,ls),
(483,660,o),
(490,664,o),
(494,672,cs),
(526,724,ls),
(532,735,o),
(534,745,o),
(521,745,cs),
(503,745,o),
(494,720,o),
(457,720,cs),
(276,720,ls),
(267,720,o),
(260,716,o),
(255,707,cs),
(122,431,ls),
(116,421,o),
(121,416,o),
(131,415,cs),
(293,403,o),
(337,335,o),
(304,208,cs),
(267,69,o),
(171,18,o),
(99,18,cs),
(9,18,o),
(57,96,o),
(5,96,cs),
(-16,96,o),
(-32,82,o),
(-37,62,cs),
(-48,15,o),
(16,-9,o),
(79,-9,cs)
);
}
);
};
guides = (
{
angle = 246.7488;
pos = (168,578);
}
);
layerId = m002;
shapes = (
{
closed = 1;
nodes = (
(291,-9,o),
(402,127,o),
(402,257,cs),
(402,363,o),
(343,454,o),
(205,486,cs),
(193,489,o),
(191,493,o),
(195,502,cs),
(267,649,ls),
(271,658,o),
(276,660,o),
(288,660,cs),
(473,660,ls),
(482,660,o),
(489,662,o),
(493,670,cs),
(526,724,ls),
(534,738,o),
(529,745,o),
(519,745,cs),
(501,745,o),
(494,720,o),
(457,720,cs),
(278,720,ls),
(269,720,o),
(262,718,o),
(258,709,cs),
(132,454,ls),
(128,445,o),
(132,439,o),
(141,437,cs),
(267,410,o),
(324,351,o),
(324,248,cs),
(324,137,o),
(252,17,o),
(124,17,cs),
(20,17,o),
(67,108,o),
(5,108,cs),
(-18,108,o),
(-32,90,o),
(-32,69,cs),
(-32,14,o),
(57,-9,o),
(118,-9,cs)
);
}
);
width = 530;
}
);
unicode = 53;
},
{
glyphname = six;
lastChange = "2022-08-31 19:18:12 +0000";
layers = (
{
background = {
shapes = (
{
closed = 1;
nodes = (
(376,-9,o),
(463,98,o),
(463,229,cs),
(463,360,o),
(383,456,o),
(275,456,cs),
(244,456,o),
(215,449,o),
(191,434,cs),
(182,429,o),
(175,432,o),
(178,442,cs),
(217,580,o),
(299,665,o),
(434,704,cs),
(442,706,o),
(446,710,o),
(446,717,cs),
(446,725,o),
(439,732,o),
(424,729,cs),
(228,688,o),
(72,480,o),
(72,261,cs),
(72,100,o),
(152,-9,o),
(268,-9,cs)
);
},
{
closed = 1;
nodes = (
(193,18,o),
(155,84,o),
(155,218,cs),
(155,358,o),
(195,431,o),
(274,431,cs),
(347,431,o),
(381,366,o),
(381,224,cs),
(381,84,o),
(345,18,o),
(269,18,cs)
);
}
);
};
layerId = m002;
shapes = (
{
closed = 1;
nodes = (
(342,-9,o),
(437,166,o),
(437,270,cs),
(437,382,o),
(378,456,o),
(282,456,cs),
(260,456,o),
(232,452,o),
(213,443,cs),
(204,438,o),
(198,444,o),
(202,452,cs),
(276,584,o),
(378,670,o),
(520,705,cs),
(531,708,o),
(538,710,o),
(538,719,cs),
(538,728,o),
(529,732,o),
(518,730,cs),
(266,688,o),
(37,414,o),
(37,191,cs),
(37,79,o),
(89,-9,o),
(192,-9,cs)
);
},
{
closed = 1;
nodes = (
(125,17,o),
(98,62,o),
(98,135,cs),
(98,230,o),
(151,431,o),
(277,431,cs),
(335,431,o),
(363,388,o),
(363,312,cs),
(363,220,o),
(306,17,o),
(190,17,cs)
);
}
);
width = 530;
}
);
unicode = 54;
},
{
glyphname = seven;
lastChange = "2022-08-31 19:19:00 +0000";
layers = (
{
layerId = m002;
shapes = (
{
closed = 1;
nodes = (
(76,0,ls),
(84,0,o),
(91,3,o),
(95,11,cs),
(518,675,ls),
(531,696,o),
(535,705,o),
(535,711,cs),
(535,718,o),
(530,720,o),
(520,720,cs),
(181,720,ls),
(171,720,o),
(164,716,o),
(160,708,cs),
(129,656,ls),
(122,645,o),
(122,635,o),
(135,635,cs),
(153,635,o),
(160,660,o),
(198,660,cs),
(453,660,ls),
(465,660,o),
(469,654,o),
(462,644,cs),
(38,15,ls),
(32,6,o),
(37,0,o),
(47,0,cs)
);
}
);
width = 530;
}
);
unicode = 55;
},
{
glyphname = eight;
lastChange = "2022-08-31 19:16:02 +0000";
layers = (
{
background = {
shapes = (
{
closed = 1;
nodes = (
(350,-9,o),
(452,98,o),
(452,208,cs),
(452,266,o),
(421,320,o),
(347,379,cs),
(340,384,o),
(342,392,o),
(351,395,cs),
(451,427,o),
(532,495,o),
(532,585,cs),
(532,665,o),
(460,730,o),
(358,730,cs),
(239,730,o),
(143,647,o),
(143,543,cs),
(143,491,o),
(168,436,o),
(224,388,cs),
(231,382,o),
(229,375,o),
(218,373,cs),
(102,337,o),
(13,262,o),
(13,159,cs),
(13,61,o),
(100,-9,o),
(214,-9,cs)
);
},
{
closed = 1;
nodes = (
(145,17,o),
(78,52,o),
(78,136,cs),
(78,207,o),
(120,309,o),
(237,358,cs),
(247,363,o),
(258,362,o),
(267,354,cs),
(329,308,o),
(377,257,o),
(377,184,cs),
(377,114,o),
(335,17,o),
(217,17,cs)
);
},
{
closed = 1;
nodes = (
(321,406,o),
(313,405,o),
(304,413,cs),
(236,467,o),
(214,512,o),
(214,556,cs),
(214,620,o),
(254,703,o),
(355,703,cs),
(431,703,o),
(468,663,o),
(468,605,cs),
(468,549,o),
(435,455,o),
(334,411,cs)
);
}
);
};
layerId = m002;
shapes = (
{
closed = 1;
nodes = (
(350,-9,o),
(452,88,o),
(452,208,cs),
(452,266,o),
(421,320,o),
(347,379,cs),
(340,384,o),
(342,392,o),
(351,395,cs),
(451,427,o),
(532,495,o),
(532,585,cs),
(532,665,o),
(460,730,o),
(358,730,cs),
(230,730,o),
(143,647,o),
(143,553,cs),
(143,491,o),
(168,436,o),
(224,388,cs),
(231,382,o),
(229,375,o),
(218,373,cs),
(102,337,o),
(13,262,o),
(13,159,cs),
(13,61,o),
(100,-9,o),
(214,-9,cs)
);
},
{
closed = 1;
nodes = (
(145,17,o),
(78,52,o),
(78,146,cs),
(78,217,o),
(120,309,o),
(237,358,cs),
(247,363,o),
(258,361,o),
(267,354,cs),
(348,293,o),
(377,247,o),
(377,174,cs),
(377,104,o),
(335,17,o),
(217,17,cs)
);
},
{
closed = 1;
nodes = (
(321,406,o),
(313,405,o),
(304,413,cs),
(237,468,o),
(214,512,o),
(214,576,cs),
(214,630,o),
(254,703,o),
(355,703,cs),
(431,703,o),
(468,660,o),
(468,602,cs),
(468,546,o),
(435,455,o),
(334,411,cs)
);
}
);
width = 530;
}
);
unicode = 56;
},
{
glyphname = nine;
lastChange = "2022-08-31 19:19:08 +0000";
layers = (
{
background = {
shapes = (
{
closed = 1;
nodes = (
(195,30,o),
(383,189,o),
(447,435,cs),
(489,595,o),
(439,712,o),
(327,726,cs),
(221,739,o),
(107,644,o),
(76,524,cs),
(45,404,o),
(98,300,o),
(204,287,cs),
(237,283,o),
(268,287,o),
(296,300,cs),
(306,305,o),
(312,301,o),
(307,291,cs),
(237,139,o),
(138,61,o),
(13,37,cs),
(5,35,o),
(-1,32,o),
(-2,25,cs),
(-4,17,o),
(0,9,o),
(15,10,cs)
);
},
{
closed = 1;
nodes = (
(192,648,o),
(244,709,o),
(319,700,cs),
(392,691,o),
(413,621,o),
(381,498,cs),
(346,369,o),
(288,302,o),
(212,311,cs),
(139,320,o),
(124,388,o),
(159,519,cs)
);
}
);
};
layerId = m002;
shapes = (
{
closed = 1;
nodes = (
(258,32,o),
(496,299,o),
(496,531,cs),
(496,657,o),
(438,730,o),
(344,730,cs),
(215,730,o),
(95,604,o),
(95,472,cs),
(95,358,o),
(155,286,o),
(251,286,cs),
(276,286,o),
(302,291,o),
(320,299,cs),
(329,304,o),
(335,298,o),
(330,290,cs),
(247,141,o),
(139,48,o),
(13,17,cs),
(-2,13,o),
(-5,10,o),
(-5,3,cs),
(-5,-6,o),
(2,-10,o),
(15,-8,cs)
);
},
{
closed = 1;
nodes = (
(201,311,o),
(169,359,o),
(169,440,cs),
(169,575,o),
(251,704,o),
(344,704,cs),
(399,704,o),
(435,658,o),
(435,577,cs),
(435,436,o),
(351,311,o),
(255,311,cs)
);
}
);
width = 530;
}
);
unicode = 57;
},
{
glyphname = .notdef;
lastChange = "2023-03-17 07:46:37 +0000";
layers = (
{
layerId = m002;
shapes = (
{
closed = 1;
nodes = (
(446,-130,ls),
(452,-130,o),
(457,-127,o),
(458,-122,cs),
(697,782,ls),
(698,787,o),
(696,790,o),
(690,790,cs),
(269,790,ls),
(263,790,o),
(259,787,o),
(258,782,cs),
(18,-122,ls),
(17,-127,o),
(20,-130,o),
(25,-130,cs)
);
},
{
closed = 1;
nodes = (
(289,758,l),
(654,758,l),
(427,-98,l),
(61,-98,l)
);
}
);
width = 690;
}
);
},
{
glyphname = period;
kernLeft = period;
kernRight = period;
lastChange = "2022-08-31 20:12:01 +0000";
layers = (
{
background = {
shapes = (
{
closed = 1;
nodes = (
(148,-9,o),
(183,12,o),
(183,49,cs),
(183,73,o),
(162,92,o),
(137,95,cs),
(99,101,o),
(61,75,o),
(61,38,cs),
(61,11,o),
(84,-9,o),
(116,-9,cs)
);
}
);
};
layerId = m002;
shapes = (
{
closed = 1;
nodes = (
(102,-9,o),
(136,14,o),
(136,49,cs),
(136,76,o),
(113,96,o),
(82,96,cs),
(51,96,o),
(17,73,o),
(17,38,cs),
(17,11,o),
(39,-9,o),
(71,-9,cs)
);
}
);
width = 252;
}
);
unicode = 46;
},
{
glyphname = comma;
kernLeft = period;
kernRight = period;
lastChange = "2022-08-31 20:13:38 +0000";
layers = (
{
background = {
shapes = (
{
ref = period;
}
);
};
layerId = m002;
shapes = (
{
closed = 1;
nodes = (
(60,-109,o),
(133,-21,o),
(133,43,cs),
(133,75,o),
(112,96,o),
(76,96,cs),
(44,96,o),
(18,75,o),
(18,46,cs),
(18,13,o),
(57,8,o),
(57,-24,cs),
(57,-61,o),
(14,-106,o),
(-26,-133,cs),
(-33,-138,o),
(-36,-142,o),
(-36,-147,cs),
(-36,-156,o),
(-24,-157,o),
(-13,-150,cs)
);
}
);
width = 252;
}
);
unicode = 44;
},
{
glyphname = exclam;
lastChange = "2022-09-01 19:18:34 +0000";
layers = (
{
background = {
shapes = (
{
closed = 1;
nodes = (
(145,181,o),
(152,186,o),
(154,196,cs),
(201,369,o),
(307,631,o),
(322,685,cs),
(330,718,o),
(317,743,o),
(284,747,cs),
(252,751,o),
(227,731,o),
(218,698,cs),
(204,644,o),
(170,373,o),
(126,199,cs),
(124,189,o),
(129,183,o),
(137,182,cs)
);
}
);
};
layerId = m002;
shapes = (
{
closed = 1;
nodes = (
(145,181,o),
(152,186,o),
(154,196,cs),
(201,369,o),
(307,631,o),
(322,685,cs),
(332,721,o),
(315,748,o),
(278,748,cs),
(250,748,o),
(227,731,o),
(218,698,cs),
(204,644,o),
(170,373,o),
(126,199,cs),
(124,189,o),
(129,183,o),
(137,182,cs)
);
},
{
pos = (18,0);
ref = period;
}
);
width = 316;
}
);
unicode = 33;
},
{
glyphname = exclamdown;
lastChange = "2022-09-01 19:15:39 +0000";
layers = (
{
layerId = m002;
shapes = (
{
closed = 1;
nodes = (
(78,-215,o),
(101,-198,o),
(109,-165,cs),
(124,-111,o),
(152,138,o),
(195,312,cs),
(198,322,o),
(193,328,o),
(185,329,cs),
(177,330,o),
(170,325,o),
(168,315,cs),
(121,142,o),
(21,-98,o),
(6,-152,cs),
(-4,-188,o),
(13,-215,o),
(49,-215,cs)
);
},
{
angle = 180;
pos = (257,511);
ref = period;
}
);
width = 315;
}
);
metricLeft = "=|exclam";
metricRight = "=|exclam";
unicode = 161;
},
{
glyphname = question;
lastChange = "2022-09-01 19:14:29 +0000";
layers = (
{
background = {
shapes = (
{
closed = 1;
nodes = (
(155,185,o),
(161,189,o),
(164,200,cs),
(195,305,ls),
(201,325,o),
(207,332,o),
(222,343,cs),
(273,381,ls),
(377,459,o),
(420,516,o),
(439,592,cs),
(462,679,o),
(413,737,o),
(310,750,cs),
(276,754,o),
(223,750,o),
(195,736,cs),
(185,731,o),
(181,727,o),
(177,716,cs),
(143,597,ls),
(139,586,o),
(143,579,o),
(150,578,cs),
(158,577,o),
(162,581,o),
(168,590,cs),
(228,683,o),
(270,724,o),
(335,716,cs),
(371,711,o),
(397,684,o),
(379,618,cs),
(362,552,o),
(331,512,o),
(248,448,cs),
(220,426,ls),
(190,403,o),
(178,386,o),
(170,350,cs),
(137,204,ls),
(135,193,o),
(138,187,o),
(146,186,cs)
);
}
);
};
layerId = m002;
shapes = (
{
closed = 1;
nodes = (
(155,186,o),
(161,189,o),
(164,200,cs),
(202,325,ls),
(209,347,o),
(215,360,o),
(231,370,cs),
(288,405,ls),
(385,465,o),
(445,535,o),
(445,630,cs),
(445,715,o),
(365,751,o),
(283,751,cs),
(247,751,o),
(216,747,o),
(195,736,cs),
(185,731,o),
(181,727,o),
(177,716,cs),
(143,597,ls),
(139,586,o),
(143,579,o),
(150,578,cs),
(158,577,o),
(162,581,o),
(168,590,cs),
(228,683,o),
(264,717,o),
(324,717,cs),
(360,717,o),
(385,695,o),
(385,656,cs),
(385,574,o),
(339,519,o),
(259,468,cs),
(224,446,ls),
(192,426,o),
(183,406,o),
(175,370,cs),
(137,204,ls),
(133,191,o),
(140,186,o),
(147,186,cs)
);
},
{
pos = (33,0);
ref = period;
}
);
width = 412;
}
);
unicode = 63;
},
{
glyphname = questiondown;
lastChange = "2022-09-01 19:11:10 +0000";
layers = (
{
layerId = m002;
shapes = (
{
closed = 1;
nodes = (
(172,-210,o),
(204,-206,o),
(224,-195,cs),
(235,-190,o),
(239,-186,o),
(243,-175,cs),
(277,-56,ls),
(281,-45,o),
(277,-38,o),
(270,-37,cs),
(262,-36,o),
(258,-40,o),
(252,-49,cs),
(192,-142,o),
(155,-176,o),
(95,-176,cs),
(60,-176,o),
(34,-154,o),
(34,-115,cs),
(34,-33,o),
(80,22,o),
(161,73,cs),
(195,95,ls),
(228,115,o),
(237,135,o),
(245,171,cs),
(276,307,ls),
(279,320,o),
(273,325,o),
(266,325,cs),
(258,325,o),
(252,322,o),
(248,311,cs),
(217,216,ls),
(210,194,o),
(205,181,o),
(189,171,cs),
(132,136,ls),
(34,76,o),
(-22,6,o),
(-22,-89,cs),
(-22,-174,o),
(55,-210,o),
(137,-210,cs)
);
},
{
angle = 180;
pos = (322,511);
ref = period;
}
);
width = 412;
}
);
metricLeft = "=|question";
metricRight = "=|question";
unicode = 191;
},
{
glyphname = asterisk;
kernLeft = asterisk;
kernRight = asterisk;
lastChange = "2022-08-23 20:03:46 +0000";
layers = (
{
background = {
shapes = (
{
closed = 1;
nodes = (
(330,414,o),
(351,431,o),
(355,451,cs),
(363,482,o),
(342,506,o),
(347,557,cs),
(348,565,o),
(355,566,o),
(361,561,cs),
(398,522,o),
(398,492,o),
(423,473,cs),
(439,461,o),
(466,461,o),
(486,480,cs),
(506,500,o),
(501,523,o),
(484,535,cs),
(458,555,o),
(419,546,o),
(373,573,cs),
(365,578,o),
(366,583,o),
(376,585,cs),
(434,600,o),
(465,583,o),
(500,594,cs),
(522,602,o),
(538,623,o),
(530,646,cs),
(521,669,o),
(496,675,o),
(474,667,cs),
(438,655,o),
(424,624,o),
(370,599,cs),
(362,595,o),
(358,599,o),
(360,607,cs),
(381,656,o),
(414,674,o),
(422,704,cs),
(428,724,o),
(416,745,o),
(389,748,cs),
(360,752,o),
(339,735,o),
(335,715,cs),
(327,684,o),
(348,660,o),
(343,609,cs),
(342,601,o),
(335,599,o),
(330,604,cs),
(292,641,o),
(294,673,o),
(267,693,cs),
(251,705,o),
(224,705,o),
(204,686,cs),
(184,666,o),
(189,643,o),
(206,631,cs),
(232,611,o),
(271,620,o),
(317,593,cs),
(325,588,o),
(324,583,o),
(314,581,cs),
(256,566,o),
(225,583,o),
(190,572,cs),
(168,564,o),
(152,543,o),
(160,520,cs),
(169,497,o),
(194,491,o),
(216,499,cs),
(250,510,o),
(264,539,o),
(319,566,cs),
(327,570,o),
(332,567,o),
(330,559,cs),
(309,510,o),
(276,492,o),
(268,462,cs),
(262,442,o),
(274,421,o),
(301,418,cs)
);
}
);
};
layerId = m002;
shapes = (
{
closed = 1;
nodes = (
(330,414,o),
(351,431,o),
(355,451,cs),
(363,482,o),
(342,506,o),
(347,557,cs),
(348,565,o),
(355,566,o),
(361,561,cs),
(398,522,o),
(398,492,o),
(423,473,cs),
(439,461,o),
(466,461,o),
(486,480,cs),
(506,500,o),
(501,523,o),
(484,535,cs),
(458,555,o),
(419,546,o),
(373,573,cs),
(365,578,o),
(366,583,o),
(376,585,cs),
(434,600,o),
(465,583,o),
(500,594,cs),
(522,602,o),
(538,623,o),
(530,646,cs),
(521,669,o),
(496,675,o),
(474,667,cs),
(438,655,o),
(424,624,o),
(370,599,cs),
(362,595,o),
(358,599,o),
(360,607,cs),
(381,656,o),
(414,674,o),
(422,704,cs),
(428,724,o),
(416,745,o),
(389,748,cs),
(360,752,o),
(339,735,o),
(335,715,cs),
(327,684,o),
(348,660,o),
(343,609,cs),
(342,601,o),
(335,599,o),
(330,604,cs),
(292,641,o),
(294,673,o),
(267,693,cs),
(251,705,o),
(224,705,o),
(204,686,cs),
(184,666,o),
(189,643,o),
(206,631,cs),
(232,611,o),
(271,620,o),
(317,593,cs),
(325,588,o),
(324,583,o),
(314,581,cs),
(256,566,o),
(225,583,o),
(190,572,cs),
(168,564,o),
(152,543,o),
(160,520,cs),
(169,497,o),
(194,491,o),
(216,499,cs),
(250,510,o),
(264,539,o),
(319,566,cs),
(327,570,o),
(332,567,o),
(330,559,cs),
(309,510,o),
(276,492,o),
(268,462,cs),
(262,442,o),
(274,421,o),
(301,418,cs)
);
}
);
width = 516;
}
);
unicode = 42;
},
{
glyphname = numbersign;
lastChange = "2022-08-11 18:45:18 +0000";
layers = (
{
layerId = m002;
shapes = (
{
closed = 1;
nodes = (
(183,0,l),
(239,213,ls),
(243,224,o),
(251,230,o),
(264,230,cs),
(446,230,ls),
(458,230,o),
(463,224,o),
(461,213,cs),
(405,0,l),
(442,0,l),
(498,213,ls),
(501,224,o),
(509,230,o),
(523,230,cs),
(670,230,l),
(670,260,l),
(530,260,ls),
(519,260,o),
(513,266,o),
(515,277,cs),
(559,442,ls),
(562,453,o),
(570,460,o),
(584,460,cs),
(731,460,l),
(731,490,l),
(591,490,ls),
(580,490,o),
(574,496,o),
(576,507,cs),
(632,720,l),
(596,720,l),
(539,507,ls),
(536,496,o),
(528,490,o),
(514,490,cs),
(332,490,ls),
(321,490,o),
(315,496,o),
(317,507,cs),
(374,720,l),
(337,720,l),
(281,507,ls),
(277,496,o),
(269,490,o),
(255,490,cs),
(108,490,l),
(108,460,l),
(248,460,ls),
(260,460,o),
(266,454,o),
(263,443,cs),
(220,278,ls),
(216,267,o),
(208,260,o),
(194,260,cs),
(47,260,l),
(47,230,l),
(187,230,ls),
(199,230,o),
(205,224,o),
(202,213,cs),
(146,0,l)
);
},
{
closed = 1;
nodes = (
(260,260,o),
(254,266,o),
(256,277,cs),
(300,442,ls),
(304,453,o),
(312,460,o),
(325,460,cs),
(507,460,ls),
(519,460,o),
(524,454,o),
(522,443,cs),
(478,278,ls),
(475,267,o),
(467,260,o),
(453,260,cs),
(271,260,ls)
);
}
);
width = 723;
}
);
unicode = 35;
},
{
glyphname = slash;
lastChange = "2022-08-11 18:55:19 +0000";
layers = (
{
layerId = m002;
shapes = (
{
closed = 1;
nodes = (
(-59,-130,ls),
(-53,-130,o),
(-48,-126,o),
(-46,-121,cs),
(424,779,ls),
(427,785,o),
(425,790,o),
(417,790,cs),
(404,790,ls),
(397,790,o),
(391,786,o),
(389,781,cs),
(-76,-119,ls),
(-79,-125,o),
(-78,-130,o),
(-71,-130,cs)
);
}
);
width = 297;
}
);
unicode = 47;
},
{
glyphname = backslash;
lastChange = "2022-08-11 18:57:07 +0000";
layers = (
{
layerId = m002;
shapes = (
{
closed = 1;
nodes = (
(171,-130,ls),
(179,-130,o),
(183,-125,o),
(184,-119,cs),
(184,781,ls),
(184,786,o),
(181,790,o),
(174,790,cs),
(162,790,ls),
(154,790,o),
(151,785,o),
(151,779,cs),
(150,-121,ls),
(150,-126,o),
(153,-130,o),
(160,-130,cs)
);
}
);
width = 294;
}
);
unicode = 92;
},
{
glyphname = hyphen;
kernLeft = hyphen;
kernRight = hyphen;
lastChange = "2022-08-31 19:46:08 +0000";
layers = (
{
background = {
shapes = (
{
closed = 1;
nodes = (
(399,259,ls),
(415,259,o),
(427,265,o),
(427,277,cs),
(427,287,o),
(417,293,o),
(405,293,cs),
(125,293,ls),
(109,293,o),
(98,287,o),
(98,275,cs),
(98,265,o),
(107,259,o),
(120,259,cs)
);
}
);
};
layerId = m002;
shapes = (
{
closed = 1;
nodes = (
(385,259,ls),
(392,259,o),
(398,263,o),
(399,269,cs),
(402,283,ls),
(405,289,o),
(401,293,o),
(394,293,cs),
(116,293,ls),
(109,293,o),
(102,289,o),
(101,283,cs),
(98,269,ls),
(97,263,o),
(100,259,o),
(107,259,cs)
);
}
);
width = 490;
}
);
unicode = 45;
},
{
glyphname = endash;
kernLeft = hyphen;
kernRight = hyphen;
lastChange = "2022-08-23 20:03:55 +0000";
layers = (
{
layerId = m002;
shapes = (
{
closed = 1;
nodes = (
(476,259,ls),
(483,259,o),
(489,263,o),
(490,269,cs),
(493,283,ls),
(494,289,o),
(492,293,o),
(485,293,cs),
(116,293,ls),
(109,293,o),
(102,289,o),
(101,283,cs),
(98,269,ls),
(97,263,o),
(100,259,o),
(107,259,cs)
);
}
);
width = 581;
}
);
unicode = 8211;
},
{
glyphname = emdash;
kernLeft = hyphen;
kernRight = hyphen;
lastChange = "2022-08-23 20:03:55 +0000";
layers = (
{
layerId = m002;
shapes = (
{
closed = 1;
nodes = (
(718,259,ls),
(724,259,o),
(730,263,o),
(731,269,cs),
(735,283,ls),
(736,289,o),
(734,293,o),
(727,293,cs),
(116,293,ls),
(109,293,o),
(102,289,o),
(101,283,cs),
(98,269,ls),
(97,263,o),
(100,259,o),
(107,259,cs)
);
}
);
width = 822;
}
);
unicode = 8212;
},
{
glyphname = underscore;
lastChange = "2022-08-11 19:14:16 +0000";
layers = (
{
layerId = m002;
shapes = (
{
closed = 1;
nodes = (
(302,-109,ls),
(309,-109,o),
(315,-105,o),
(316,-99,cs),
(320,-85,ls),
(321,-79,o),
(319,-75,o),
(312,-75,cs),
(-50,-75,ls),
(-56,-75,o),
(-62,-79,o),
(-63,-85,cs),
(-66,-99,ls),
(-67,-105,o),
(-64,-109,o),
(-58,-109,cs)
);
}
);
width = 428;
}
);
unicode = 95;
},
{
glyphname = parenleft;
lastChange = "2022-09-01 21:01:08 +0000";
layers = (
{
layerId = m002;
shapes = (
{
closed = 1;
nodes = (
(252,-120,o),
(256,-116,o),
(256,-112,cs),
(258,-108,o),
(256,-105,o),
(253,-100,cs),
(189,-25,o),
(160,68,o),
(160,200,cs),
(160,372,o),
(246,592,o),
(467,714,cs),
(473,717,o),
(475,720,o),
(476,724,cs),
(477,728,o),
(475,732,o),
(468,733,cs),
(465,733,o),
(461,733,o),
(458,731,cs),
(231,633,o),
(90,444,o),
(90,220,cs),
(90,69,o),
(164,-51,o),
(236,-114,cs),
(238,-117,o),
(241,-118,o),
(245,-119,cs)
);
}
);
width = 398;
}
);
unicode = 40;
},
{
glyphname = braceleft;
lastChange = "2022-09-01 21:01:41 +0000";
layers = (
{
background = {
shapes = (
{
closed = 1;
nodes = (
(199,-96,o),
(206,-91,o),
(208,-84,cs),
(209,-77,o),
(205,-72,o),
(197,-72,cs),
(143,-72,o),
(128,-38,o),
(147,36,cs),
(185,178,ls),
(209,267,o),
(193,302,o),
(138,322,c),
(204,342,o),
(238,377,o),
(262,466,cs),
(299,608,ls),
(319,682,o),
(352,716,o),
(406,716,cs),
(414,716,o),
(421,721,o),
(423,728,cs),
(425,735,o),
(421,740,o),
(413,740,cs),
(319,740,o),
(256,696,o),
(231,604,cs),
(194,462,ls),
(169,368,o),
(136,334,o),
(82,334,cs),
(74,334,o),
(67,329,o),
(64,322,cs),
(63,315,o),
(68,310,o),
(76,310,cs),
(130,310,o),
(145,276,o),
(120,182,cs),
(82,40,ls),
(57,-52,o),
(97,-96,o),
(191,-96,cs)
);
}
);
};
layerId = m002;
shapes = (
{
closed = 1;
nodes = (
(200,-96,o),
(209,-92,o),
(209,-83,cs),
(209,-77,o),
(205,-72,o),
(194,-72,cs),
(140,-72,o),
(130,-39,o),
(150,35,cs),
(186,175,ls),
(209,263,o),
(193,301,o),
(140,322,c),
(204,341,o),
(238,372,o),
(261,461,cs),
(298,601,ls),
(322,693,o),
(354,717,o),
(402,717,cs),
(414,717,o),
(422,722,o),
(422,729,cs),
(422,736,o),
(416,740,o),
(405,740,cs),
(316,740,o),
(255,696,o),
(231,605,cs),
(194,465,ls),
(170,372,o),
(136,334,o),
(83,334,cs),
(72,334,o),
(64,329,o),
(64,321,cs),
(64,314,o),
(70,310,o),
(82,310,cs),
(131,310,o),
(146,280,o),
(122,187,cs),
(85,47,ls),
(61,-44,o),
(94,-96,o),
(184,-96,cs)
);
}
);
width = 368;
}
);
unicode = 123;
},
{
glyphname = bracketleft;
lastChange = "2022-09-01 21:02:14 +0000";
layers = (
{
background = {
shapes = (
{
closed = 1;
nodes = (
(194,-98,ls),
(205,-98,o),
(213,-93,o),
(214,-86,cs),
(216,-79,o),
(212,-74,o),
(201,-74,cs),
(92,-74,ls),
(84,-74,o),
(79,-69,o),
(82,-62,cs),
(285,704,ls),
(286,711,o),
(293,716,o),
(301,716,cs),
(411,716,ls),
(421,716,o),
(428,721,o),
(430,728,cs),
(432,735,o),
(428,740,o),
(417,740,cs),
(255,740,ls),
(238,740,o),
(225,731,o),
(221,716,cs),
(12,-74,ls),
(7,-89,o),
(15,-98,o),
(32,-98,cs)
);
}
);
};
layerId = m002;
shapes = (
{
closed = 1;
nodes = (
(193,-98,ls),
(206,-98,o),
(214,-92,o),
(214,-85,cs),
(214,-78,o),
(209,-74,o),
(199,-74,cs),
(91,-74,ls),
(83,-74,o),
(79,-69,o),
(82,-62,cs),
(285,704,ls),
(288,711,o),
(293,716,o),
(301,716,cs),
(411,716,ls),
(423,716,o),
(431,722,o),
(431,729,cs),
(431,736,o),
(427,740,o),
(416,740,cs),
(255,740,ls),
(238,740,o),
(224,731,o),
(221,716,cs),
(12,-74,ls),
(8,-89,o),
(15,-98,o),
(32,-98,cs)
);
}
);
width = 375;
}
);
unicode = 91;
},
{
glyphname = quoteleft;
kernLeft = quoteleft;
kernRight = quoteleft;
lastChange = "2023-02-22 10:42:32 +0000";
layers = (
{
background = {
shapes = (
{
closed = 1;
nodes = (
(177,562,o),
(198,582,o),
(198,606,cs),
(198,653,o),
(138,644,o),
(138,692,cs),
(138,715,o),
(147,730,o),
(199,769,cs),
(209,776,o),
(208,784,o),
(202,788,cs),
(197,792,o),
(190,790,o),
(181,784,cs),
(109,740,o),
(80,690,o),
(80,629,cs),
(80,588,o),
(105,562,o),
(143,562,cs)
);
}
);
};
layerId = m002;
shapes = (
{
closed = 1;
nodes = (
(218,562,o),
(241,583,o),
(241,609,cs),
(241,646,o),
(201,649,o),
(201,681,cs),
(201,705,o),
(222,737,o),
(283,769,cs),
(291,773,o),
(293,777,o),
(293,781,cs),
(293,790,o),
(283,793,o),
(269,786,cs),
(185,750,o),
(128,682,o),
(128,617,cs),
(128,585,o),
(150,562,o),
(185,562,cs)
);
}
);
width = 191;
}
);
metricLeft = "=|quoteright";
metricRight = "=|quoteright";
unicode = 8216;
},
{
glyphname = quoteright;
kernLeft = quoteright;
kernRight = quoteright;
lastChange = "2022-09-19 13:28:36 +0000";
layers = (
{
background = {
shapes = (
{
closed = 1;
nodes = (
(228,552,o),
(256,602,o),
(256,663,cs),
(256,704,o),
(232,730,o),
(194,730,cs),
(160,730,o),
(139,710,o),
(139,686,cs),
(139,639,o),
(199,648,o),
(199,600,cs),
(199,583,o),
(190,562,o),
(138,523,cs),
(128,516,o),
(129,508,o),
(135,504,cs),
(140,500,o),
(147,502,o),
(156,508,cs)
);
}
);
};
layerId = m002;
shapes = (
{
closed = 1;
nodes = (
(213,542,o),
(270,610,o),
(270,675,cs),
(270,707,o),
(248,730,o),
(213,730,cs),
(179,730,o),
(156,709,o),
(156,683,cs),
(156,646,o),
(197,643,o),
(197,611,cs),
(197,587,o),
(176,555,o),
(115,523,cs),
(107,519,o),
(105,515,o),
(105,511,cs),
(105,502,o),
(115,499,o),
(129,506,cs)
);
}
);
width = 191;
}
);
unicode = 8217;
},
{
glyphname = guilsinglleft;
kernLeft = guilleft;
kernRight = guilleft;
lastChange = "2022-08-23 20:04:35 +0000";
layers = (
{
background = {
shapes = (
{
closed = 1;
nodes = (
(154,83,o),
(159,79,o),
(167,79,cs),
(176,79,o),
(181,86,o),
(179,92,cs),
(139,250,ls),
(137,259,o),
(138,266,o),
(144,272,cs),
(260,408,ls),
(264,414,o),
(263,424,o),
(252,424,cs),
(246,424,o),
(241,423,o),
(229,412,cs),
(78,280,ls),
(66,269,o),
(62,260,o),
(69,247,cs),
(147,96,ls)
);
}
);
};
layerId = m002;
shapes = (
{
closed = 1;
nodes = (
(154,83,o),
(159,79,o),
(167,79,cs),
(176,79,o),
(181,86,o),
(179,92,cs),
(137,245,ls),
(135,254,o),
(136,261,o),
(141,267,cs),
(260,408,ls),
(264,414,o),
(263,424,o),
(252,424,cs),
(246,424,o),
(241,423,o),
(229,412,cs),
(78,280,ls),
(66,269,o),
(62,260,o),
(69,247,cs),
(147,96,ls)
);
}
);
width = 307;
}
);
unicode = 8249;
},
{
glyphname = quotesingle;
kernLeft = quotesingle;
kernRight = quotesingle;
lastChange = "2022-09-01 20:16:30 +0000";
layers = (
{
background = {
shapes = (
{
closed = 1;
nodes = (
(207,490,o),
(213,496,o),
(215,505,cs),
(246,609,o),
(300,638,o),
(300,687,cs),
(300,713,o),
(286,731,o),
(255,731,cs),
(214,731,o),
(194,701,o),
(194,663,cs),
(194,641,o),
(198,619,o),
(198,591,cs),
(198,568,o),
(195,541,o),
(189,509,cs),
(185,497,o),
(191,490,o),
(200,490,cs)
);
}
);
};
layerId = m002;
shapes = (
{
closed = 1;
nodes = (
(207,490,o),
(213,496,o),
(215,505,cs),
(246,609,o),
(300,638,o),
(300,687,cs),
(300,713,o),
(286,731,o),
(255,731,cs),
(214,731,o),
(194,701,o),
(194,663,cs),
(194,596,o),
(204,574,o),
(189,509,cs),
(185,497,o),
(191,490,o),
(200,490,cs)
);
}
);
width = 270;
}
);
unicode = 39;
},
{
glyphname = at;
kernLeft = o;
kernRight = o;
lastChange = "2022-08-23 20:05:05 +0000";
layers = (
{
background = {
shapes = (
{
closed = 1;
nodes = (
(486,-81,o),
(558,-62,o),
(611,-26,cs),
(621,-19,o),
(622,-12,o),
(616,-4,cs),
(611,3,o),
(600,3,o),
(588,-6,cs),
(540,-36,o),
(477,-52,o),
(402,-52,cs),
(223,-52,o),
(126,42,o),
(126,215,cs),
(126,414,o),
(256,553,o),
(442,553,cs),
(584,553,o),
(673,464,o),
(673,322,cs),
(673,206,o),
(600,94,o),
(524,94,cs),
(492,94,o),
(483,122,o),
(498,177,cs),
(561,413,ls),
(565,425,o),
(560,433,o),
(550,433,cs),
(542,433,o),
(534,427,o),
(529,416,cs),
(527,411,o),
(523,409,o),
(520,409,cs),
(515,409,o),
(513,411,o),
(509,416,cs),
(499,430,o),
(480,438,o),
(457,438,cs),
(351,438,o),
(230,285,o),
(230,151,cs),
(230,94,o),
(252,63,o),
(292,63,cs),
(339,63,o),
(389,105,o),
(444,192,cs),
(447,198,o),
(454,197,o),
(452,190,cs),
(448,178,ls),
(428,107,o),
(453,63,o),
(513,63,cs),
(620,63,o),
(718,185,o),
(718,319,cs),
(718,475,o),
(608,580,o),
(446,580,cs),
(236,580,o),
(51,411,o),
(51,218,cs),
(51,45,o),
(179,-81,o),
(405,-81,cs)
);
},
{
closed = 1;
nodes = (
(297,100,o),
(290,112,o),
(290,143,cs),
(290,258,o),
(382,411,o),
(452,411,cs),
(474,411,o),
(486,396,o),
(486,369,cs),
(486,278,o),
(371,100,o),
(313,100,cs)
);
}
);
};
layerId = m002;
shapes = (
{
closed = 1;
nodes = (
(436,-81,o),
(489,-70,o),
(535,-48,cs),
(544,-43,o),
(550,-36,o),
(546,-27,cs),
(540,-17,o),
(529,-20,o),
(518,-25,cs),
(478,-43,o),
(432,-52,o),
(382,-52,cs),
(229,-52,o),
(110,15,o),
(110,171,cs),
(110,330,o),
(237,554,o),
(477,554,cs),
(618,554,o),
(696,489,o),
(696,359,cs),
(696,257,o),
(606,93,o),
(498,93,cs),
(453,93,o),
(451,123,o),
(477,172,cs),
(600,398,ls),
(606,408,o),
(605,419,o),
(592,419,cs),
(585,419,o),
(576,415,o),
(569,405,cs),
(566,400,o),
(564,399,o),
(560,399,cs),
(555,399,o),
(553,402,o),
(550,407,cs),
(540,422,o),
(516,436,o),
(491,436,cs),
(367,436,o),
(202,236,o),
(202,119,cs),
(202,82,o),
(223,63,o),
(255,63,cs),
(309,63,o),
(376,120,o),
(434,193,cs),
(438,199,o),
(446,197,o),
(442,190,cs),
(420,155,o),
(415,138,o),
(415,120,cs),
(415,84,o),
(445,63,o),
(489,63,cs),
(631,63,o),
(739,247,o),
(739,363,cs),
(739,497,o),
(637,580,o),
(483,580,cs),
(262,580,o),
(39,409,o),
(39,185,cs),
(39,17,o),
(192,-81,o),
(378,-81,cs)
);
},
{
closed = 1;
nodes = (
(267,98,o),
(260,104,o),
(260,117,cs),
(260,192,o),
(393,410,o),
(481,410,cs),
(512,410,o),
(515,390,o),
(508,363,cs),
(486,275,o),
(340,98,o),
(279,98,cs)
);
}
);
width = 765;
}
);
metricLeft = O;
metricRight = O;
unicode = 64;
},
{
glyphname = ampersand;
lastChange = "2022-08-27 16:49:40 +0000";
layers = (
{
background = {
shapes = (
{
closed = 1;
nodes = (
(22,208,ls),
(22,113,o),
(84,-16,o),
(239,-16,cs),
(317,-16,o),
(385,13,o),
(435,57,cs),
(484,100,o),
(514,157,o),
(514,214,cs),
(514,238,o),
(511,258,o),
(507,271,c),
(511,270,o),
(518,269,o),
(523,269,cs),
(574,269,o),
(620,316,o),
(620,369,cs),
(620,392,o),
(619,393,o),
(613,393,cs),
(606,393,o),
(604,381,o),
(598,367,cs),
(584,334,o),
(561,331,o),
(470,331,cs),
(392,331,o),
(342,307,o),
(312,278,cs),
(289,255,o),
(278,230,o),
(278,213,cs),
(278,205,o),
(279,202,o),
(284,202,cs),
(296,202,o),
(327,286,o),
(409,286,cs),
(459,286,o),
(482,256,o),
(482,213,cs),
(482,120,o),
(384,23,o),
(278,23,cs),
(179,23,o),
(105,109,o),
(105,222,cs),
(105,306,o),
(158,398,o),
(248,425,c),
(268,413,o),
(296,406,o),
(320,406,cs),
(348,406,o),
(360,415,o),
(360,427,cs),
(360,447,o),
(339,456,o),
(293,456,cs),
(282,456,o),
(268,454,o),
(255,453,c),
(235,477,o),
(227,505,o),
(227,530,cs),
(227,615,o),
(301,673,o),
(363,673,cs),
(405,673,o),
(445,652,o),
(453,608,cs),
(460,569,o),
(453,534,o),
(474,534,cs),
(491,534,o),
(496,568,o),
(501,592,cs),
(506,612,o),
(514,648,o),
(514,670,cs),
(514,679,o),
(482,730,o),
(396,730,cs),
(284,730,o),
(194,647,o),
(194,545,cs),
(194,510,o),
(205,474,o),
(227,447,c),
(112,423,o),
(22,335,o),
(22,210,cs)
);
}
);
};
layerId = m002;
shapes = (
{
closed = 1;
nodes = (
(407,-9,o),
(518,86,o),
(518,214,cs),
(518,250,o),
(509,278,o),
(493,297,c),
(469,276,l),
(554,251,o),
(620,292,o),
(620,361,cs),
(620,406,o),
(593,436,o),
(550,436,cs),
(516,436,o),
(497,419,o),
(497,397,cs),
(497,348,o),
(580,363,o),
(580,331,cs),
(580,313,o),
(555,308,o),
(505,315,cs),
(469,320,ls),
(365,335,o),
(281,287,o),
(281,213,cs),
(281,169,o),
(307,140,o),
(348,140,cs),
(381,140,o),
(402,155,o),
(402,179,cs),
(402,231,o),
(327,206,o),
(327,245,cs),
(327,267,o),
(353,285,o),
(398,285,cs),
(455,285,o),
(483,260,o),
(483,207,cs),
(483,105,o),
(391,23,o),
(277,23,cs),
(169,23,o),
(105,95,o),
(105,218,cs),
(105,343,o),
(168,417,o),
(288,433,c),
(282,444,l),
(248,457,o),
(228,495,o),
(228,541,cs),
(228,624,o),
(291,687,o),
(374,687,cs),
(439,687,o),
(466,646,o),
(471,535,cs),
(473,514,ls),
(474,502,o),
(478,497,o),
(488,497,cs),
(496,497,o),
(501,502,o),
(504,512,cs),
(536,658,ls),
(539,674,o),
(537,681,o),
(524,691,cs),
(494,715,o),
(446,730,o),
(398,730,cs),
(283,730,o),
(193,649,o),
(193,545,cs),
(193,466,o),
(246,406,o),
(316,406,cs),
(344,406,o),
(360,415,o),
(360,430,cs),
(360,447,o),
(338,456,o),
(299,456,cs),
(150,456,o),
(22,336,o),
(22,196,cs),
(22,74,o),
(116,-9,o),
(256,-9,cs)
);
}
);
width = 604;
}
);
unicode = 38;
},
{
glyphname = paragraph;
lastChange = "2022-08-13 19:12:03 +0000";
layers = (
{
layerId = m002;
shapes = (
{
closed = 1;
nodes = (
(236,-130,ls),
(245,-130,o),
(252,-127,o),
(254,-118,cs),
(462,666,ls),
(466,681,o),
(478,690,o),
(496,690,cs),
(522,690,ls),
(540,690,o),
(547,679,o),
(544,666,cs),
(337,-115,ls),
(335,-124,o),
(340,-130,o),
(351,-130,cs),
(381,-130,ls),
(390,-130,o),
(397,-127,o),
(399,-118,cs),
(604,654,ls),
(611,682,o),
(620,688,o),
(653,693,cs),
(681,697,ls),
(692,699,o),
(699,703,o),
(699,711,cs),
(699,717,o),
(695,720,o),
(684,720,cs),
(409,720,ls),
(214,720,o),
(98,611,o),
(98,490,cs),
(98,393,o),
(169,326,o),
(278,326,cs),
(292,326,ls),
(305,326,o),
(307,321,o),
(305,312,cs),
(192,-115,ls),
(190,-124,o),
(195,-130,o),
(206,-130,cs)
);
}
);
width = 601;
}
);
metricLeft = "=|P";
metricRight = "=|P";
unicode = 182;
},
{
glyphname = section;
lastChange = "2022-08-14 16:25:16 +0000";
layers = (
{
background = {
shapes = (
{
closed = 1;
nodes = (
(304,-129,o),
(370,-81,o),
(370,-8,cs),
(370,40,o),
(340,84,o),
(285,135,cs),
(278,142,o),
(281,148,o),
(291,150,cs),
(361,165,o),
(412,215,o),
(412,286,cs),
(412,351,o),
(368,408,o),
(282,479,cs),
(191,553,o),
(166,592,o),
(166,639,cs),
(166,675,o),
(199,702,o),
(243,702,cs),
(289,702,o),
(319,673,o),
(352,586,cs),
(355,577,o),
(359,570,o),
(370,570,cs),
(378,570,o),
(385,575,o),
(385,585,cs),
(383,695,ls),
(383,703,o),
(378,707,o),
(371,711,cs),
(347,724,o),
(315,730,o),
(282,730,cs),
(169,730,o),
(102,682,o),
(102,609,cs),
(102,561,o),
(132,517,o),
(187,466,cs),
(194,459,o),
(192,453,o),
(182,451,cs),
(112,436,o),
(61,386,o),
(61,315,cs),
(61,250,o),
(105,193,o),
(191,122,cs),
(282,48,o),
(307,9,o),
(307,-38,cs),
(307,-74,o),
(274,-101,o),
(230,-101,cs),
(184,-101,o),
(154,-72,o),
(121,15,cs),
(117,24,o),
(114,31,o),
(102,31,cs),
(94,31,o),
(87,26,o),
(87,16,cs),
(90,-94,ls),
(90,-102,o),
(94,-106,o),
(101,-110,cs),
(125,-123,o),
(158,-129,o),
(191,-129,cs)
);
},
{
closed = 1;
nodes = (
(251,170,o),
(240,174,o),
(230,184,cs),
(154,251,o),
(124,295,o),
(124,345,cs),
(124,392,o),
(155,422,o),
(207,429,cs),
(222,431,o),
(232,427,o),
(243,417,cs),
(319,350,o),
(348,306,o),
(348,256,cs),
(348,209,o),
(316,178,o),
(266,172,cs)
);
}
);
};
layerId = m002;
shapes = (
{
closed = 1;
nodes = (
(222,-122,o),
(291,-69,o),
(291,9,cs),
(291,47,o),
(274,86,o),
(241,131,cs),
(236,138,o),
(240,144,o),
(251,145,cs),
(344,153,o),
(408,221,o),
(408,302,cs),
(408,354,o),
(381,407,o),
(327,472,cs),
(273,538,o),
(251,579,o),
(251,615,cs),
(251,656,o),
(276,698,o),
(334,698,cs),
(388,698,o),
(413,668,o),
(423,569,cs),
(424,559,o),
(427,551,o),
(439,551,cs),
(446,551,o),
(453,555,o),
(455,564,cs),
(482,673,ls),
(484,681,o),
(481,686,o),
(475,691,cs),
(443,716,o),
(388,723,o),
(350,723,cs),
(251,723,o),
(182,670,o),
(182,592,cs),
(182,554,o),
(199,515,o),
(231,470,cs),
(237,463,o),
(232,457,o),
(222,456,cs),
(129,448,o),
(64,380,o),
(64,299,cs),
(64,247,o),
(92,194,o),
(146,129,cs),
(200,63,o),
(222,22,o),
(222,-14,cs),
(222,-55,o),
(197,-97,o),
(139,-97,cs),
(85,-97,o),
(60,-67,o),
(49,32,cs),
(48,42,o),
(46,50,o),
(33,50,cs),
(26,50,o),
(20,46,o),
(17,37,cs),
(-8,-72,ls),
(-10,-80,o),
(-7,-85,o),
(-2,-90,cs),
(30,-115,o),
(85,-122,o),
(123,-122,cs)
);
},
{
closed = 1;
nodes = (
(216,170,o),
(207,175,o),
(200,186,cs),
(154,246,o),
(135,288,o),
(135,328,cs),
(135,376,o),
(163,430,o),
(241,431,cs),
(256,431,o),
(266,426,o),
(273,415,cs),
(319,355,o),
(338,313,o),
(338,273,cs),
(338,226,o),
(308,169,o),
(231,170,cs)
);
}
);
width = 436;
}
);
metricLeft = S;
metricRight = S;
unicode = 167;
},
{
glyphname = copyright;
lastChange = "2022-08-14 16:28:39 +0000";
layers = (
{
layerId = m002;
shapes = (
{
closed = 1;
nodes = (
(754,-15,o),
(948,153,o),
(948,360,cs),
(948,567,o),
(754,735,o),
(516,735,cs),
(278,735,o),
(85,567,o),
(85,360,cs),
(85,153,o),
(278,-15,o),
(516,-15,cs)
);
},
{
closed = 1;
nodes = (
(304,23,o),
(131,175,o),
(131,360,cs),
(131,545,o),
(304,697,o),
(516,697,cs),
(729,697,o),
(902,545,o),
(902,360,cs),
(902,175,o),
(729,23,o),
(516,23,cs)
);
},
{
closed = 1;
nodes = (
(583,142,o),
(621,149,o),
(652,160,cs),
(660,164,o),
(664,167,o),
(664,174,cs),
(667,278,ls),
(667,291,o),
(661,297,o),
(652,297,cs),
(643,297,o),
(638,292,o),
(634,277,cs),
(626,253,ls),
(601,181,o),
(570,162,o),
(521,162,cs),
(447,162,o),
(373,242,o),
(373,363,cs),
(373,480,o),
(438,560,o),
(520,560,cs),
(564,560,o),
(595,540,o),
(619,468,cs),
(627,444,ls),
(631,429,o),
(636,424,o),
(645,424,cs),
(654,424,o),
(660,430,o),
(660,443,cs),
(657,547,ls),
(657,554,o),
(653,557,o),
(645,560,cs),
(614,572,o),
(576,579,o),
(527,579,cs),
(398,579,o),
(296,481,o),
(296,363,cs),
(296,240,o),
(386,142,o),
(523,142,cs)
);
}
);
width = 977;
}
);
metricLeft = O;
metricRight = O;
unicode = 169;
},
{
glyphname = registered;
lastChange = "2022-08-14 16:32:48 +0000";
layers = (
{
layerId = m002;
shapes = (
{
closed = 1;
nodes = (
(754,-15,o),
(948,153,o),
(948,360,cs),
(948,567,o),
(754,735,o),
(516,735,cs),
(278,735,o),
(85,567,o),
(85,360,cs),
(85,153,o),
(278,-15,o),
(516,-15,cs)
);
},
{
closed = 1;
nodes = (
(304,23,o),
(131,175,o),
(131,360,cs),
(131,545,o),
(304,697,o),
(516,697,cs),
(729,697,o),
(902,545,o),
(902,360,cs),
(902,175,o),
(729,23,o),
(516,23,cs)
);
},
{
closed = 1;
nodes = (
(708,144,o),
(735,155,o),
(735,172,cs),
(735,180,o),
(727,184,o),
(718,179,cs),
(708,174,o),
(700,171,o),
(692,171,cs),
(668,171,o),
(654,182,o),
(642,224,cs),
(623,284,ls),
(612,320,o),
(596,341,o),
(562,352,cs),
(554,355,o),
(554,358,o),
(562,360,cs),
(630,377,o),
(676,420,o),
(676,471,cs),
(676,533,o),
(610,578,o),
(515,578,cs),
(348,578,ls),
(339,578,o),
(334,573,o),
(334,568,cs),
(334,563,o),
(337,559,o),
(347,558,cs),
(361,556,ls),
(384,553,o),
(390,549,o),
(390,532,cs),
(390,194,ls),
(390,178,o),
(384,174,o),
(361,171,cs),
(344,169,ls),
(337,168,o),
(334,163,o),
(334,159,cs),
(334,154,o),
(337,149,o),
(345,149,cs),
(507,149,ls),
(515,149,o),
(520,154,o),
(520,159,cs),
(520,163,o),
(516,169,o),
(505,170,cs),
(481,173,ls),
(462,175,o),
(458,180,o),
(458,197,cs),
(458,340,ls),
(458,349,o),
(467,355,o),
(482,355,cs),
(524,355,o),
(539,340,o),
(558,278,cs),
(577,212,ls),
(591,167,o),
(619,144,o),
(676,144,cs)
);
},
{
closed = 1;
nodes = (
(475,374,o),
(458,384,o),
(458,407,cs),
(458,533,ls),
(458,550,o),
(473,556,o),
(508,556,cs),
(560,556,o),
(606,522,o),
(606,463,cs),
(606,409,o),
(559,374,o),
(511,374,cs)
);
}
);
width = 977;
}
);
unicode = 174;
},
